  0
SECTION
  2
HEADER
  9
$ACADVER
  1
AC1009
  9
$EXTMIN
 10
0.0
 20
0.0
 30
0.0
  9
$EXTMAX
 10
1000.0
 20
1000.0
 30
0.0
  9
$FILLMODE
 70
 0
  9
$SPLFRAME
 70
 1
  0
ENDSEC
  0
SECTION
  2
TABLES
  0
TABLE
  2
LAYER
 70
1
  0
LAYER
  2
0
 70
     0
 62
     7
  6
CONTINUOUS
  0
ENDTAB
  0
ENDSEC
  0
SECTION
  2
ENTITIES
  0
POLYLINE
  8
0
 62
     0
 66
     1
 10
0
 20
0
 30
0.0
 70
     1
 40
0.143564
 41
0.143564
  0
VERTEX
  8
0
 10
0.0506185
 20
0.901801
 30
0.0
 40
0.00199394
 41
0.00199394
  0
VERTEX
  8
0
 10
0.553711
 20
0.901801
 30
0.0
 40
0.00199394
 41
0.00199394
  0
VERTEX
  8
0
 10
0.558539
 20
0.901801
 30
0.0
 40
0.00199394
 41
0.00199394
  0
VERTEX
  8
0
 10
0.573025
 20
0.897949
 30
0.0
 40
0.00199394
 41
0.00199394
  0
VERTEX
  8
0
 10
0.588758
 20
0.887315
 30
0.0
 40
0.00199394
 41
0.00199394
  0
VERTEX
  8
0
 10
0.599393
 20
0.871528
 30
0.0
 40
0.00199394
 41
0.00199394
  0
VERTEX
  8
0
 10
0.603299
 20
0.857042
 30
0.0
 40
0.00199394
 41
0.00199394
  0
VERTEX
  8
0
 10
0.603299
 20
0.85216
 30
0.0
 40
0.00199394
 41
0.00199394
  0
VERTEX
  8
0
 10
0.603299
 20
0.114475
 30
0.0
 40
0.00199394
 41
0.00199394
  0
VERTEX
  8
0
 10
0.603299
 20
0.109646
 30
0.0
 40
0.00199394
 41
0.00199394
  0
VERTEX
  8
0
 10
0.599393
 20
0.0951606
 30
0.0
 40
0.00199394
 41
0.00199394
  0
VERTEX
  8
0
 10
0.588758
 20
0.0794271
 30
0.0
 40
0.00199394
 41
0.00199394
  0
VERTEX
  8
0
 10
0.573025
 20
0.0687935
 30
0.0
 40
0.00199394
 41
0.00199394
  0
VERTEX
  8
0
 10
0.558539
 20
0.0648872
 30
0.0
 40
0.00199394
 41
0.00199394
  0
VERTEX
  8
0
 10
0.553711
 20
0.0648872
 30
0.0
 40
0.00199394
 41
0.00199394
  0
VERTEX
  8
0
 10
0.0506185
 20
0.0648872
 30
0.0
 40
0.00199394
 41
0.00199394
  0
VERTEX
  8
0
 10
0.0457357
 20
0.0648872
 30
0.0
 40
0.00199394
 41
0.00199394
  0
VERTEX
  8
0
 10
0.03125
 20
0.0687935
 30
0.0
 40
0.00199394
 41
0.00199394
  0
VERTEX
  8
0
 10
0.0154622
 20
0.0794271
 30
0.0
 40
0.00199394
 41
0.00199394
  0
VERTEX
  8
0
 10
0.00482856
 20
0.0951606
 30
0.0
 40
0.00199394
 41
0.00199394
  0
VERTEX
  8
0
 10
0.000976563
 20
0.109646
 30
0.0
 40
0.00199394
 41
0.00199394
  0
VERTEX
  8
0
 10
0.000976563
 20
0.114475
 30
0.0
 40
0.00199394
 41
0.00199394
  0
VERTEX
  8
0
 10
0.000976563
 20
0.85216
 30
0.0
 40
0.00199394
 41
0.00199394
  0
VERTEX
  8
0
 10
0.000976563
 20
0.857042
 30
0.0
 40
0.00199394
 41
0.00199394
  0
VERTEX
  8
0
 10
0.00482856
 20
0.871528
 30
0.0
 40
0.00199394
 41
0.00199394
  0
VERTEX
  8
0
 10
0.0154622
 20
0.887315
 30
0.0
 40
0.00199394
 41
0.00199394
  0
VERTEX
  8
0
 10
0.03125
 20
0.897949
 30
0.0
 40
0.00199394
 41
0.00199394
  0
VERTEX
  8
0
 10
0.0457357
 20
0.901801
 30
0.0
 40
0.00199394
 41
0.00199394
  0
VERTEX
  8
0
 10
0.0506185
 20
0.901801
 30
0.0
 40
0.00199394
 41
0.00199394
  0
SEQEND
 8
0
  0
POLYLINE
  8
0
 62
     0
 66
     1
 10
0
 20
0
 30
0.0
 40
0.183408
 41
0.183408
  0
VERTEX
  8
0
 10
0.353082
 20
0.735189
 30
0.0
 40
0.00254733
 41
0.00254733
  0
VERTEX
  8
0
 10
0.367296
 20
0.718479
 30
0.0
 40
0.00254733
 41
0.00254733
  0
VERTEX
  8
0
 10
0.435113
 20
0.629178
 30
0.0
 40
0.00254733
 41
0.00254733
  0
VERTEX
  8
0
 10
0.489367
 20
0.517578
 30
0.0
 40
0.00254733
 41
0.00254733
  0
VERTEX
  8
0
 10
0.496853
 20
0.489637
 30
0.0
 40
0.00254733
 41
0.00254733
  0
VERTEX
  8
0
 10
0.504286
 20
0.461751
 30
0.0
 40
0.00254733
 41
0.00254733
  0
VERTEX
  8
0
 10
0.524468
 20
0.294163
 30
0.0
 40
0.00254733
 41
0.00254733
  0
VERTEX
  8
0
 10
0.531088
 20
0.104221
 30
0.0
 40
0.00254733
 41
0.00254733
  0
VERTEX
  8
0
 10
0.531739
 20
0.0651042
 30
0.0
 40
0.00254733
 41
0.00254733
  0
SEQEND
 8
0
  0
POLYLINE
  8
0
 62
     0
 66
     1
 10
0
 20
0
 30
0.0
 40
0.188254
 41
0.188254
  0
VERTEX
  8
0
 10
0.268718
 20
0.16135
 30
0.0
 40
0.00261464
 41
0.00261464
  0
VERTEX
  8
0
 10
0.271918
 20
0.0651042
 30
0.0
 40
0.00261464
 41
0.00261464
  0
SEQEND
 8
0
  0
POLYLINE
  8
0
 62
     0
 66
     1
 10
0
 20
0
 30
0.0
 70
     1
 40
0
 41
0
  0
VERTEX
  8
0
 10
0.138835
 20
0.599012
 30
0.0
 40
0
 41
0
  0
VERTEX
  8
0
 10
0.139432
 20
0.597276
 30
0.0
 40
0
 41
0
  0
VERTEX
  8
0
 10
0.142415
 20
0.587728
 30
0.0
 40
0
 41
0
  0
VERTEX
  8
0
 10
0.144694
 20
0.580892
 30
0.0
 40
0
 41
0
  0
VERTEX
  8
0
 10
0.144965
 20
0.580513
 30
0.0
 40
0
 41
0
  0
VERTEX
  8
0
 10
0.145182
 20
0.580186
 30
0.0
 40
0
 41
0
  0
VERTEX
  8
0
 10
0.147299
 20
0.579047
 30
0.0
 40
0
 41
0
  0
VERTEX
  8
0
 10
0.148058
 20
0.579047
 30
0.0
 40
0
 41
0
  0
VERTEX
  8
0
 10
0.14936
 20
0.579047
 30
0.0
 40
0
 41
0
  0
VERTEX
  8
0
 10
0.149468
 20
0.579101
 30
0.0
 40
0
 41
0
  0
VERTEX
  8
0
 10
0.150011
 20
0.57959
 30
0.0
 40
0
 41
0
  0
VERTEX
  8
0
 10
0.150011
 20
0.579699
 30
0.0
 40
0
 41
0
  0
VERTEX
  8
0
 10
0.150011
 20
0.579699
 30
0.0
 40
0
 41
0
  0
VERTEX
  8
0
 10
0.149631
 20
0.58024
 30
0.0
 40
0
 41
0
  0
VERTEX
  8
0
 10
0.149631
 20
0.580296
 30
0.0
 40
0
 41
0
  0
VERTEX
  8
0
 10
0.149468
 20
0.580513
 30
0.0
 40
0
 41
0
  0
VERTEX
  8
0
 10
0.148383
 20
0.583008
 30
0.0
 40
0
 41
0
  0
VERTEX
  8
0
 10
0.148329
 20
0.583279
 30
0.0
 40
0
 41
0
  0
VERTEX
  8
0
 10
0.136502
 20
0.620822
 30
0.0
 40
0
 41
0
  0
VERTEX
  8
0
 10
0.136176
 20
0.621799
 30
0.0
 40
0
 41
0
  0
VERTEX
  8
0
 10
0.131022
 20
0.625597
 30
0.0
 40
0
 41
0
  0
VERTEX
  8
0
 10
0.12934
 20
0.625597
 30
0.0
 40
0
 41
0
  0
VERTEX
  8
0
 10
0.12934
 20
0.625597
 30
0.0
 40
0
 41
0
  0
VERTEX
  8
0
 10
0.128255
 20
0.625108
 30
0.0
 40
0
 41
0
  0
VERTEX
  8
0
 10
0.128255
 20
0.624892
 30
0.0
 40
0
 41
0
  0
VERTEX
  8
0
 10
0.128255
 20
0.624729
 30
0.0
 40
0
 41
0
  0
VERTEX
  8
0
 10
0.128635
 20
0.624132
 30
0.0
 40
0
 41
0
  0
VERTEX
  8
0
 10
0.128798
 20
0.624132
 30
0.0
 40
0
 41
0
  0
VERTEX
  8
0
 10
0.129286
 20
0.624078
 30
0.0
 40
0
 41
0
  0
VERTEX
  8
0
 10
0.13227
 20
0.620008
 30
0.0
 40
0
 41
0
  0
VERTEX
  8
0
 10
0.13265
 20
0.618869
 30
0.0
 40
0
 41
0
  0
VERTEX
  8
0
 10
0.138238
 20
0.600965
 30
0.0
 40
0
 41
0
  0
VERTEX
  8
0
 10
0.122125
 20
0.5829
 30
0.0
 40
0
 41
0
  0
VERTEX
  8
0
 10
0.121962
 20
0.582682
 30
0.0
 40
0
 41
0
  0
VERTEX
  8
0
 10
0.121148
 20
0.581326
 30
0.0
 40
0
 41
0
  0
VERTEX
  8
0
 10
0.121148
 20
0.580838
 30
0.0
 40
0
 41
0
  0
VERTEX
  8
0
 10
0.121148
 20
0.580404
 30
0.0
 40
0
 41
0
  0
VERTEX
  8
0
 10
0.12245
 20
0.578939
 30
0.0
 40
0
 41
0
  0
VERTEX
  8
0
 10
0.122884
 20
0.578939
 30
0.0
 40
0
 41
0
  0
VERTEX
  8
0
 10
0.123318
 20
0.578939
 30
0.0
 40
0
 41
0
  0
VERTEX
  8
0
 10
0.124674
 20
0.580186
 30
0.0
 40
0
 41
0
  0
VERTEX
  8
0
 10
0.124783
 20
0.580296
 30
0.0
 40
0
 41
0
  0
VERTEX
  8
0
 10
0.138835
 20
0.599012
 30
0.0
 40
0
 41
0
  0
SEQEND
 8
0
  0
POLYLINE
  8
0
 62
     0
 66
     1
 10
0
 20
0
 30
0.0
 70
     1
 40
0
 41
0
  0
VERTEX
  8
0
 10
0.171442
 20
0.599718
 30
0.0
 40
0
 41
0
  0
VERTEX
  8
0
 10
0.171496
 20
0.600151
 30
0.0
 40
0
 41
0
  0
VERTEX
  8
0
 10
0.175726
 20
0.607476
 30
0.0
 40
0
 41
0
  0
VERTEX
  8
0
 10
0.177192
 20
0.607476
 30
0.0
 40
0
 41
0
  0
VERTEX
  8
0
 10
0.177897
 20
0.607476
 30
0.0
 40
0
 41
0
  0
VERTEX
  8
0
 10
0.179796
 20
0.606879
 30
0.0
 40
0
 41
0
  0
VERTEX
  8
0
 10
0.180122
 20
0.606662
 30
0.0
 40
0
 41
0
  0
VERTEX
  8
0
 10
0.179688
 20
0.606554
 30
0.0
 40
0
 41
0
  0
VERTEX
  8
0
 10
0.177354
 20
0.60395
 30
0.0
 40
0
 41
0
  0
VERTEX
  8
0
 10
0.177354
 20
0.603028
 30
0.0
 40
0
 41
0
  0
VERTEX
  8
0
 10
0.177354
 20
0.602485
 30
0.0
 40
0
 41
0
  0
VERTEX
  8
0
 10
0.178982
 20
0.600749
 30
0.0
 40
0
 41
0
  0
VERTEX
  8
0
 10
0.179579
 20
0.600749
 30
0.0
 40
0
 41
0
  0
VERTEX
  8
0
 10
0.180339
 20
0.600749
 30
0.0
 40
0
 41
0
  0
VERTEX
  8
0
 10
0.182671
 20
0.603678
 30
0.0
 40
0
 41
0
  0
VERTEX
  8
0
 10
0.182671
 20
0.604601
 30
0.0
 40
0
 41
0
  0
VERTEX
  8
0
 10
0.182671
 20
0.605686
 30
0.0
 40
0
 41
0
  0
VERTEX
  8
0
 10
0.178603
 20
0.608942
 30
0.0
 40
0
 41
0
  0
VERTEX
  8
0
 10
0.1773
 20
0.608942
 30
0.0
 40
0
 41
0
  0
VERTEX
  8
0
 10
0.175726
 20
0.608942
 30
0.0
 40
0
 41
0
  0
VERTEX
  8
0
 10
0.171332
 20
0.604329
 30
0.0
 40
0
 41
0
  0
VERTEX
  8
0
 10
0.171169
 20
0.60395
 30
0.0
 40
0
 41
0
  0
VERTEX
  8
0
 10
0.17079
 20
0.605089
 30
0.0
 40
0
 41
0
  0
VERTEX
  8
0
 10
0.166342
 20
0.608942
 30
0.0
 40
0
 41
0
  0
VERTEX
  8
0
 10
0.164876
 20
0.608942
 30
0.0
 40
0
 41
0
  0
VERTEX
  8
0
 10
0.163086
 20
0.608942
 30
0.0
 40
0
 41
0
  0
VERTEX
  8
0
 10
0.157878
 20
0.604546
 30
0.0
 40
0
 41
0
  0
VERTEX
  8
0
 10
0.15549
 20
0.600261
 30
0.0
 40
0
 41
0
  0
VERTEX
  8
0
 10
0.15549
 20
0.598796
 30
0.0
 40
0
 41
0
  0
VERTEX
  8
0
 10
0.15549
 20
0.598633
 30
0.0
 40
0
 41
0
  0
VERTEX
  8
0
 10
0.155979
 20
0.59809
 30
0.0
 40
0
 41
0
  0
VERTEX
  8
0
 10
0.156196
 20
0.59809
 30
0.0
 40
0
 41
0
  0
VERTEX
  8
0
 10
0.156358
 20
0.59809
 30
0.0
 40
0
 41
0
  0
VERTEX
  8
0
 10
0.156847
 20
0.598687
 30
0.0
 40
0
 41
0
  0
VERTEX
  8
0
 10
0.156901
 20
0.598796
 30
0.0
 40
0
 41
0
  0
VERTEX
  8
0
 10
0.157389
 20
0.600586
 30
0.0
 40
0
 41
0
  0
VERTEX
  8
0
 10
0.162924
 20
0.607476
 30
0.0
 40
0
 41
0
  0
VERTEX
  8
0
 10
0.164768
 20
0.607476
 30
0.0
 40
0
 41
0
  0
VERTEX
  8
0
 10
0.165528
 20
0.607476
 30
0.0
 40
0
 41
0
  0
VERTEX
  8
0
 10
0.16786
 20
0.604167
 30
0.0
 40
0
 41
0
  0
VERTEX
  8
0
 10
0.16786
 20
0.603028
 30
0.0
 40
0
 41
0
  0
VERTEX
  8
0
 10
0.16786
 20
0.599121
 30
0.0
 40
0
 41
0
  0
VERTEX
  8
0
 10
0.165256
 20
0.589681
 30
0.0
 40
0
 41
0
  0
VERTEX
  8
0
 10
0.164768
 20
0.587349
 30
0.0
 40
0
 41
0
  0
VERTEX
  8
0
 10
0.164497
 20
0.586372
 30
0.0
 40
0
 41
0
  0
VERTEX
  8
0
 10
0.160482
 20
0.580513
 30
0.0
 40
0
 41
0
  0
VERTEX
  8
0
 10
0.159179
 20
0.580513
 30
0.0
 40
0
 41
0
  0
VERTEX
  8
0
 10
0.158421
 20
0.580513
 30
0.0
 40
0
 41
0
  0
VERTEX
  8
0
 10
0.156575
 20
0.581164
 30
0.0
 40
0
 41
0
  0
VERTEX
  8
0
 10
0.156304
 20
0.581326
 30
0.0
 40
0
 41
0
  0
VERTEX
  8
0
 10
0.156629
 20
0.581435
 30
0.0
 40
0
 41
0
  0
VERTEX
  8
0
 10
0.159017
 20
0.584093
 30
0.0
 40
0
 41
0
  0
VERTEX
  8
0
 10
0.159017
 20
0.584961
 30
0.0
 40
0
 41
0
  0
VERTEX
  8
0
 10
0.159017
 20
0.585558
 30
0.0
 40
0
 41
0
  0
VERTEX
  8
0
 10
0.157389
 20
0.58724
 30
0.0
 40
0
 41
0
  0
VERTEX
  8
0
 10
0.156901
 20
0.58724
 30
0.0
 40
0
 41
0
  0
VERTEX
  8
0
 10
0.156088
 20
0.58724
 30
0.0
 40
0
 41
0
  0
VERTEX
  8
0
 10
0.153754
 20
0.584364
 30
0.0
 40
0
 41
0
  0
VERTEX
  8
0
 10
0.153754
 20
0.583387
 30
0.0
 40
0
 41
0
  0
VERTEX
  8
0
 10
0.153754
 20
0.582303
 30
0.0
 40
0
 41
0
  0
VERTEX
  8
0
 10
0.157769
 20
0.579047
 30
0.0
 40
0
 41
0
  0
VERTEX
  8
0
 10
0.159125
 20
0.579047
 30
0.0
 40
0
 41
0
  0
VERTEX
  8
0
 10
0.160644
 20
0.579047
 30
0.0
 40
0
 41
0
  0
VERTEX
  8
0
 10
0.165201
 20
0.583985
 30
0.0
 40
0
 41
0
  0
VERTEX
  8
0
 10
0.165256
 20
0.584039
 30
0.0
 40
0
 41
0
  0
VERTEX
  8
0
 10
0.165419
 20
0.583442
 30
0.0
 40
0
 41
0
  0
VERTEX
  8
0
 10
0.169976
 20
0.579047
 30
0.0
 40
0
 41
0
  0
VERTEX
  8
0
 10
0.17155
 20
0.579047
 30
0.0
 40
0
 41
0
  0
VERTEX
  8
0
 10
0.173232
 20
0.579047
 30
0.0
 40
0
 41
0
  0
VERTEX
  8
0
 10
0.17844
 20
0.583496
 30
0.0
 40
0
 41
0
  0
VERTEX
  8
0
 10
0.180826
 20
0.587782
 30
0.0
 40
0
 41
0
  0
VERTEX
  8
0
 10
0.180826
 20
0.589193
 30
0.0
 40
0
 41
0
  0
VERTEX
  8
0
 10
0.180826
 20
0.58941
 30
0.0
 40
0
 41
0
  0
VERTEX
  8
0
 10
0.180339
 20
0.589899
 30
0.0
 40
0
 41
0
  0
VERTEX
  8
0
 10
0.180176
 20
0.589899
 30
0.0
 40
0
 41
0
  0
VERTEX
  8
0
 10
0.179958
 20
0.589899
 30
0.0
 40
0
 41
0
  0
VERTEX
  8
0
 10
0.179417
 20
0.589301
 30
0.0
 40
0
 41
0
  0
VERTEX
  8
0
 10
0.179362
 20
0.589193
 30
0.0
 40
0
 41
0
  0
VERTEX
  8
0
 10
0.178874
 20
0.587403
 30
0.0
 40
0
 41
0
  0
VERTEX
  8
0
 10
0.173503
 20
0.580513
 30
0.0
 40
0
 41
0
  0
VERTEX
  8
0
 10
0.171713
 20
0.580513
 30
0.0
 40
0
 41
0
  0
VERTEX
  8
0
 10
0.170899
 20
0.580513
 30
0.0
 40
0
 41
0
  0
VERTEX
  8
0
 10
0.168511
 20
0.583768
 30
0.0
 40
0
 41
0
  0
VERTEX
  8
0
 10
0.168511
 20
0.584853
 30
0.0
 40
0
 41
0
  0
VERTEX
  8
0
 10
0.168511
 20
0.584853
 30
0.0
 40
0
 41
0
  0
VERTEX
  8
0
 10
0.169271
 20
0.589953
 30
0.0
 40
0
 41
0
  0
VERTEX
  8
0
 10
0.169433
 20
0.590657
 30
0.0
 40
0
 41
0
  0
VERTEX
  8
0
 10
0.171442
 20
0.599718
 30
0.0
 40
0
 41
0
  0
SEQEND
 8
0
  0
POLYLINE
  8
0
 62
     0
 66
     1
 10
0
 20
0
 30
0.0
 70
     1
 40
0
 41
0
  0
VERTEX
  8
0
 10
0.256728
 20
0.202963
 30
0.0
 40
0
 41
0
  0
VERTEX
  8
0
 10
0.257269
 20
0.201226
 30
0.0
 40
0
 41
0
  0
VERTEX
  8
0
 10
0.260254
 20
0.191678
 30
0.0
 40
0
 41
0
  0
VERTEX
  8
0
 10
0.262532
 20
0.184842
 30
0.0
 40
0
 41
0
  0
VERTEX
  8
0
 10
0.262804
 20
0.184407
 30
0.0
 40
0
 41
0
  0
VERTEX
  8
0
 10
0.263021
 20
0.184082
 30
0.0
 40
0
 41
0
  0
VERTEX
  8
0
 10
0.265192
 20
0.182997
 30
0.0
 40
0
 41
0
  0
VERTEX
  8
0
 10
0.26595
 20
0.182997
 30
0.0
 40
0
 41
0
  0
VERTEX
  8
0
 10
0.267199
 20
0.182997
 30
0.0
 40
0
 41
0
  0
VERTEX
  8
0
 10
0.267307
 20
0.183051
 30
0.0
 40
0
 41
0
  0
VERTEX
  8
0
 10
0.26785
 20
0.183485
 30
0.0
 40
0
 41
0
  0
VERTEX
  8
0
 10
0.26785
 20
0.183594
 30
0.0
 40
0
 41
0
  0
VERTEX
  8
0
 10
0.26785
 20
0.183757
 30
0.0
 40
0
 41
0
  0
VERTEX
  8
0
 10
0.267469
 20
0.18419
 30
0.0
 40
0
 41
0
  0
VERTEX
  8
0
 10
0.267469
 20
0.184244
 30
0.0
 40
0
 41
0
  0
VERTEX
  8
0
 10
0.267307
 20
0.184462
 30
0.0
 40
0
 41
0
  0
VERTEX
  8
0
 10
0.266276
 20
0.186957
 30
0.0
 40
0
 41
0
  0
VERTEX
  8
0
 10
0.266222
 20
0.187229
 30
0.0
 40
0
 41
0
  0
VERTEX
  8
0
 10
0.25434
 20
0.224772
 30
0.0
 40
0
 41
0
  0
VERTEX
  8
0
 10
0.254015
 20
0.225749
 30
0.0
 40
0
 41
0
  0
VERTEX
  8
0
 10
0.248915
 20
0.229492
 30
0.0
 40
0
 41
0
  0
VERTEX
  8
0
 10
0.247233
 20
0.229492
 30
0.0
 40
0
 41
0
  0
VERTEX
  8
0
 10
0.246907
 20
0.229492
 30
0.0
 40
0
 41
0
  0
VERTEX
  8
0
 10
0.246094
 20
0.229004
 30
0.0
 40
0
 41
0
  0
VERTEX
  8
0
 10
0.246094
 20
0.228788
 30
0.0
 40
0
 41
0
  0
VERTEX
  8
0
 10
0.246094
 20
0.228624
 30
0.0
 40
0
 41
0
  0
VERTEX
  8
0
 10
0.246474
 20
0.228082
 30
0.0
 40
0
 41
0
  0
VERTEX
  8
0
 10
0.246636
 20
0.228082
 30
0.0
 40
0
 41
0
  0
VERTEX
  8
0
 10
0.247125
 20
0.228028
 30
0.0
 40
0
 41
0
  0
VERTEX
  8
0
 10
0.250108
 20
0.223958
 30
0.0
 40
0
 41
0
  0
VERTEX
  8
0
 10
0.250489
 20
0.222819
 30
0.0
 40
0
 41
0
  0
VERTEX
  8
0
 10
0.256076
 20
0.204915
 30
0.0
 40
0
 41
0
  0
VERTEX
  8
0
 10
0.240018
 20
0.186794
 30
0.0
 40
0
 41
0
  0
VERTEX
  8
0
 10
0.239854
 20
0.186632
 30
0.0
 40
0
 41
0
  0
VERTEX
  8
0
 10
0.238986
 20
0.185221
 30
0.0
 40
0
 41
0
  0
VERTEX
  8
0
 10
0.238986
 20
0.184733
 30
0.0
 40
0
 41
0
  0
VERTEX
  8
0
 10
0.238986
 20
0.184299
 30
0.0
 40
0
 41
0
  0
VERTEX
  8
0
 10
0.240289
 20
0.182889
 30
0.0
 40
0
 41
0
  0
VERTEX
  8
0
 10
0.240722
 20
0.182889
 30
0.0
 40
0
 41
0
  0
VERTEX
  8
0
 10
0.241157
 20
0.182889
 30
0.0
 40
0
 41
0
  0
VERTEX
  8
0
 10
0.242512
 20
0.184082
 30
0.0
 40
0
 41
0
  0
VERTEX
  8
0
 10
0.242622
 20
0.184244
 30
0.0
 40
0
 41
0
  0
VERTEX
  8
0
 10
0.256728
 20
0.202963
 30
0.0
 40
0
 41
0
  0
SEQEND
 8
0
  0
POLYLINE
  8
0
 62
     0
 66
     1
 10
0
 20
0
 30
0.0
 70
     1
 40
0
 41
0
  0
VERTEX
  8
0
 10
0.298122
 20
0.208822
 30
0.0
 40
0
 41
0
  0
VERTEX
  8
0
 10
0.298178
 20
0.209093
 30
0.0
 40
0
 41
0
  0
VERTEX
  8
0
 10
0.298394
 20
0.210069
 30
0.0
 40
0
 41
0
  0
VERTEX
  8
0
 10
0.298394
 20
0.210394
 30
0.0
 40
0
 41
0
  0
VERTEX
  8
0
 10
0.298394
 20
0.210829
 30
0.0
 40
0
 41
0
  0
VERTEX
  8
0
 10
0.297092
 20
0.212131
 30
0.0
 40
0
 41
0
  0
VERTEX
  8
0
 10
0.296658
 20
0.212131
 30
0.0
 40
0
 41
0
  0
VERTEX
  8
0
 10
0.296658
 20
0.212131
 30
0.0
 40
0
 41
0
  0
VERTEX
  8
0
 10
0.29476
 20
0.211046
 30
0.0
 40
0
 41
0
  0
VERTEX
  8
0
 10
0.29465
 20
0.210775
 30
0.0
 40
0
 41
0
  0
VERTEX
  8
0
 10
0.294596
 20
0.210721
 30
0.0
 40
0
 41
0
  0
VERTEX
  8
0
 10
0.293892
 20
0.207519
 30
0.0
 40
0
 41
0
  0
VERTEX
  8
0
 10
0.293837
 20
0.207194
 30
0.0
 40
0
 41
0
  0
VERTEX
  8
0
 10
0.293728
 20
0.206814
 30
0.0
 40
0
 41
0
  0
VERTEX
  8
0
 10
0.292697
 20
0.202365
 30
0.0
 40
0
 41
0
  0
VERTEX
  8
0
 10
0.292643
 20
0.201932
 30
0.0
 40
0
 41
0
  0
VERTEX
  8
0
 10
0.290039
 20
0.189996
 30
0.0
 40
0
 41
0
  0
VERTEX
  8
0
 10
0.289985
 20
0.189779
 30
0.0
 40
0
 41
0
  0
VERTEX
  8
0
 10
0.285047
 20
0.184407
 30
0.0
 40
0
 41
0
  0
VERTEX
  8
0
 10
0.283421
 20
0.184407
 30
0.0
 40
0
 41
0
  0
VERTEX
  8
0
 10
0.282497
 20
0.184407
 30
0.0
 40
0
 41
0
  0
VERTEX
  8
0
 10
0.279893
 20
0.188476
 30
0.0
 40
0
 41
0
  0
VERTEX
  8
0
 10
0.279893
 20
0.189833
 30
0.0
 40
0
 41
0
  0
VERTEX
  8
0
 10
0.279893
 20
0.193087
 30
0.0
 40
0
 41
0
  0
VERTEX
  8
0
 10
0.282335
 20
0.201335
 30
0.0
 40
0
 41
0
  0
VERTEX
  8
0
 10
0.282824
 20
0.202746
 30
0.0
 40
0
 41
0
  0
VERTEX
  8
0
 10
0.28304
 20
0.20345
 30
0.0
 40
0
 41
0
  0
VERTEX
  8
0
 10
0.284017
 20
0.206489
 30
0.0
 40
0
 41
0
  0
VERTEX
  8
0
 10
0.284017
 20
0.207465
 30
0.0
 40
0
 41
0
  0
VERTEX
  8
0
 10
0.284017
 20
0.208822
 30
0.0
 40
0
 41
0
  0
VERTEX
  8
0
 10
0.280436
 20
0.21289
 30
0.0
 40
0
 41
0
  0
VERTEX
  8
0
 10
0.279243
 20
0.21289
 30
0.0
 40
0
 41
0
  0
VERTEX
  8
0
 10
0.277724
 20
0.21289
 30
0.0
 40
0
 41
0
  0
VERTEX
  8
0
 10
0.273275
 20
0.208008
 30
0.0
 40
0
 41
0
  0
VERTEX
  8
0
 10
0.271593
 20
0.204101
 30
0.0
 40
0
 41
0
  0
VERTEX
  8
0
 10
0.271593
 20
0.202746
 30
0.0
 40
0
 41
0
  0
VERTEX
  8
0
 10
0.271593
 20
0.202582
 30
0.0
 40
0
 41
0
  0
VERTEX
  8
0
 10
0.272026
 20
0.201986
 30
0.0
 40
0
 41
0
  0
VERTEX
  8
0
 10
0.27219
 20
0.201986
 30
0.0
 40
0
 41
0
  0
VERTEX
  8
0
 10
0.272407
 20
0.201986
 30
0.0
 40
0
 41
0
  0
VERTEX
  8
0
 10
0.273004
 20
0.203017
 30
0.0
 40
0
 41
0
  0
VERTEX
  8
0
 10
0.273113
 20
0.203233
 30
0.0
 40
0
 41
0
  0
VERTEX
  8
0
 10
0.273492
 20
0.204807
 30
0.0
 40
0
 41
0
  0
VERTEX
  8
0
 10
0.277669
 20
0.211426
 30
0.0
 40
0
 41
0
  0
VERTEX
  8
0
 10
0.279081
 20
0.211426
 30
0.0
 40
0
 41
0
  0
VERTEX
  8
0
 10
0.279406
 20
0.211426
 30
0.0
 40
0
 41
0
  0
VERTEX
  8
0
 10
0.280544
 20
0.209907
 30
0.0
 40
0
 41
0
  0
VERTEX
  8
0
 10
0.280544
 20
0.209364
 30
0.0
 40
0
 41
0
  0
VERTEX
  8
0
 10
0.280544
 20
0.208225
 30
0.0
 40
0
 41
0
  0
VERTEX
  8
0
 10
0.279568
 20
0.205024
 30
0.0
 40
0
 41
0
  0
VERTEX
  8
0
 10
0.279514
 20
0.204699
 30
0.0
 40
0
 41
0
  0
VERTEX
  8
0
 10
0.278917
 20
0.202963
 30
0.0
 40
0
 41
0
  0
VERTEX
  8
0
 10
0.27615
 20
0.193901
 30
0.0
 40
0
 41
0
  0
VERTEX
  8
0
 10
0.27615
 20
0.190864
 30
0.0
 40
0
 41
0
  0
VERTEX
  8
0
 10
0.27615
 20
0.188911
 30
0.0
 40
0
 41
0
  0
VERTEX
  8
0
 10
0.281467
 20
0.182997
 30
0.0
 40
0
 41
0
  0
VERTEX
  8
0
 10
0.283257
 20
0.182997
 30
0.0
 40
0
 41
0
  0
VERTEX
  8
0
 10
0.284722
 20
0.182997
 30
0.0
 40
0
 41
0
  0
VERTEX
  8
0
 10
0.288683
 20
0.185547
 30
0.0
 40
0
 41
0
  0
VERTEX
  8
0
 10
0.289117
 20
0.185981
 30
0.0
 40
0
 41
0
  0
VERTEX
  8
0
 10
0.2889
 20
0.185167
 30
0.0
 40
0
 41
0
  0
VERTEX
  8
0
 10
0.285915
 20
0.17665
 30
0.0
 40
0
 41
0
  0
VERTEX
  8
0
 10
0.285374
 20
0.175726
 30
0.0
 40
0
 41
0
  0
VERTEX
  8
0
 10
0.284939
 20
0.175185
 30
0.0
 40
0
 41
0
  0
VERTEX
  8
0
 10
0.280436
 20
0.171604
 30
0.0
 40
0
 41
0
  0
VERTEX
  8
0
 10
0.278971
 20
0.171604
 30
0.0
 40
0
 41
0
  0
VERTEX
  8
0
 10
0.277832
 20
0.171604
 30
0.0
 40
0
 41
0
  0
VERTEX
  8
0
 10
0.27474
 20
0.173774
 30
0.0
 40
0
 41
0
  0
VERTEX
  8
0
 10
0.274522
 20
0.174425
 30
0.0
 40
0
 41
0
  0
VERTEX
  8
0
 10
0.275119
 20
0.174425
 30
0.0
 40
0
 41
0
  0
VERTEX
  8
0
 10
0.276747
 20
0.175076
 30
0.0
 40
0
 41
0
  0
VERTEX
  8
0
 10
0.276964
 20
0.175239
 30
0.0
 40
0
 41
0
  0
VERTEX
  8
0
 10
0.277126
 20
0.175401
 30
0.0
 40
0
 41
0
  0
VERTEX
  8
0
 10
0.278157
 20
0.1773
 30
0.0
 40
0
 41
0
  0
VERTEX
  8
0
 10
0.278157
 20
0.177897
 30
0.0
 40
0
 41
0
  0
VERTEX
  8
0
 10
0.278157
 20
0.178494
 30
0.0
 40
0
 41
0
  0
VERTEX
  8
0
 10
0.276531
 20
0.180176
 30
0.0
 40
0
 41
0
  0
VERTEX
  8
0
 10
0.276042
 20
0.180176
 30
0.0
 40
0
 41
0
  0
VERTEX
  8
0
 10
0.275228
 20
0.180176
 30
0.0
 40
0
 41
0
  0
VERTEX
  8
0
 10
0.272786
 20
0.177029
 30
0.0
 40
0
 41
0
  0
VERTEX
  8
0
 10
0.272786
 20
0.175944
 30
0.0
 40
0
 41
0
  0
VERTEX
  8
0
 10
0.272786
 20
0.174533
 30
0.0
 40
0
 41
0
  0
VERTEX
  8
0
 10
0.277399
 20
0.170139
 30
0.0
 40
0
 41
0
  0
VERTEX
  8
0
 10
0.278971
 20
0.170139
 30
0.0
 40
0
 41
0
  0
VERTEX
  8
0
 10
0.281033
 20
0.170139
 30
0.0
 40
0
 41
0
  0
VERTEX
  8
0
 10
0.287326
 20
0.1741
 30
0.0
 40
0
 41
0
  0
VERTEX
  8
0
 10
0.292156
 20
0.181749
 30
0.0
 40
0
 41
0
  0
VERTEX
  8
0
 10
0.292589
 20
0.183594
 30
0.0
 40
0
 41
0
  0
VERTEX
  8
0
 10
0.298122
 20
0.208822
 30
0.0
 40
0
 41
0
  0
SEQEND
 8
0
  0
POLYLINE
  8
0
 62
     0
 66
     1
 10
0
 20
0
 30
0.0
 70
     1
 40
0
 41
0
  0
VERTEX
  8
0
 10
0.340712
 20
0.774849
 30
0.0
 40
0
 41
0
  0
VERTEX
  8
0
 10
0.340712
 20
0.775282
 30
0.0
 40
0
 41
0
  0
VERTEX
  8
0
 10
0.339735
 20
0.776476
 30
0.0
 40
0
 41
0
  0
VERTEX
  8
0
 10
0.33941
 20
0.776476
 30
0.0
 40
0
 41
0
  0
VERTEX
  8
0
 10
0.338433
 20
0.776476
 30
0.0
 40
0
 41
0
  0
VERTEX
  8
0
 10
0.338053
 20
0.776476
 30
0.0
 40
0
 41
0
  0
VERTEX
  8
0
 10
0.337131
 20
0.77691
 30
0.0
 40
0
 41
0
  0
VERTEX
  8
0
 10
0.337076
 20
0.777018
 30
0.0
 40
0
 41
0
  0
VERTEX
  8
0
 10
0.336426
 20
0.778103
 30
0.0
 40
0
 41
0
  0
VERTEX
  8
0
 10
0.331164
 20
0.782281
 30
0.0
 40
0
 41
0
  0
VERTEX
  8
0
 10
0.329428
 20
0.782281
 30
0.0
 40
0
 41
0
  0
VERTEX
  8
0
 10
0.327474
 20
0.782281
 30
0.0
 40
0
 41
0
  0
VERTEX
  8
0
 10
0.321669
 20
0.778049
 30
0.0
 40
0
 41
0
  0
VERTEX
  8
0
 10
0.31836
 20
0.769965
 30
0.0
 40
0
 41
0
  0
VERTEX
  8
0
 10
0.31836
 20
0.767253
 30
0.0
 40
0
 41
0
  0
VERTEX
  8
0
 10
0.31836
 20
0.764594
 30
0.0
 40
0
 41
0
  0
VERTEX
  8
0
 10
0.321669
 20
0.756619
 30
0.0
 40
0
 41
0
  0
VERTEX
  8
0
 10
0.327474
 20
0.752388
 30
0.0
 40
0
 41
0
  0
VERTEX
  8
0
 10
0.329428
 20
0.752388
 30
0.0
 40
0
 41
0
  0
VERTEX
  8
0
 10
0.331272
 20
0.752388
 30
0.0
 40
0
 41
0
  0
VERTEX
  8
0
 10
0.336372
 20
0.756456
 30
0.0
 40
0
 41
0
  0
VERTEX
  8
0
 10
0.336806
 20
0.757161
 30
0.0
 40
0
 41
0
  0
VERTEX
  8
0
 10
0.336968
 20
0.756293
 30
0.0
 40
0
 41
0
  0
VERTEX
  8
0
 10
0.341038
 20
0.752388
 30
0.0
 40
0
 41
0
  0
VERTEX
  8
0
 10
0.342449
 20
0.752388
 30
0.0
 40
0
 41
0
  0
VERTEX
  8
0
 10
0.343588
 20
0.752388
 30
0.0
 40
0
 41
0
  0
VERTEX
  8
0
 10
0.347168
 20
0.756782
 30
0.0
 40
0
 41
0
  0
VERTEX
  8
0
 10
0.348199
 20
0.764268
 30
0.0
 40
0
 41
0
  0
VERTEX
  8
0
 10
0.348199
 20
0.76671
 30
0.0
 40
0
 41
0
  0
VERTEX
  8
0
 10
0.348199
 20
0.771376
 30
0.0
 40
0
 41
0
  0
VERTEX
  8
0
 10
0.342231
 20
0.785319
 30
0.0
 40
0
 41
0
  0
VERTEX
  8
0
 10
0.332682
 20
0.791829
 30
0.0
 40
0
 41
0
  0
VERTEX
  8
0
 10
0.329536
 20
0.791829
 30
0.0
 40
0
 41
0
  0
VERTEX
  8
0
 10
0.326226
 20
0.791829
 30
0.0
 40
0
 41
0
  0
VERTEX
  8
0
 10
0.316297
 20
0.784668
 30
0.0
 40
0
 41
0
  0
VERTEX
  8
0
 10
0.310872
 20
0.771647
 30
0.0
 40
0
 41
0
  0
VERTEX
  8
0
 10
0.310872
 20
0.767253
 30
0.0
 40
0
 41
0
  0
VERTEX
  8
0
 10
0.310872
 20
0.763021
 30
0.0
 40
0
 41
0
  0
VERTEX
  8
0
 10
0.316081
 20
0.750271
 30
0.0
 40
0
 41
0
  0
VERTEX
  8
0
 10
0.326335
 20
0.742839
 30
0.0
 40
0
 41
0
  0
VERTEX
  8
0
 10
0.329807
 20
0.742839
 30
0.0
 40
0
 41
0
  0
VERTEX
  8
0
 10
0.332303
 20
0.742839
 30
0.0
 40
0
 41
0
  0
VERTEX
  8
0
 10
0.338976
 20
0.744086
 30
0.0
 40
0
 41
0
  0
VERTEX
  8
0
 10
0.339899
 20
0.744303
 30
0.0
 40
0
 41
0
  0
VERTEX
  8
0
 10
0.340278
 20
0.744412
 30
0.0
 40
0
 41
0
  0
VERTEX
  8
0
 10
0.34809
 20
0.747233
 30
0.0
 40
0
 41
0
  0
VERTEX
  8
0
 10
0.34809
 20
0.748156
 30
0.0
 40
0
 41
0
  0
VERTEX
  8
0
 10
0.34809
 20
0.748372
 30
0.0
 40
0
 41
0
  0
VERTEX
  8
0
 10
0.347168
 20
0.748915
 30
0.0
 40
0
 41
0
  0
VERTEX
  8
0
 10
0.346897
 20
0.748915
 30
0.0
 40
0
 41
0
  0
VERTEX
  8
0
 10
0.346354
 20
0.748915
 30
0.0
 40
0
 41
0
  0
VERTEX
  8
0
 10
0.345975
 20
0.748915
 30
0.0
 40
0
 41
0
  0
VERTEX
  8
0
 10
0.345053
 20
0.748753
 30
0.0
 40
0
 41
0
  0
VERTEX
  8
0
 10
0.344997
 20
0.748699
 30
0.0
 40
0
 41
0
  0
VERTEX
  8
0
 10
0.343804
 20
0.748047
 30
0.0
 40
0
 41
0
  0
VERTEX
  8
0
 10
0.333279
 20
0.744303
 30
0.0
 40
0
 41
0
  0
VERTEX
  8
0
 10
0.329807
 20
0.744303
 30
0.0
 40
0
 41
0
  0
VERTEX
  8
0
 10
0.326606
 20
0.744303
 30
0.0
 40
0
 41
0
  0
VERTEX
  8
0
 10
0.317165
 20
0.751247
 30
0.0
 40
0
 41
0
  0
VERTEX
  8
0
 10
0.312283
 20
0.763292
 30
0.0
 40
0
 41
0
  0
VERTEX
  8
0
 10
0.312283
 20
0.767253
 30
0.0
 40
0
 41
0
  0
VERTEX
  8
0
 10
0.312283
 20
0.771376
 30
0.0
 40
0
 41
0
  0
VERTEX
  8
0
 10
0.317383
 20
0.783692
 30
0.0
 40
0
 41
0
  0
VERTEX
  8
0
 10
0.326497
 20
0.79031
 30
0.0
 40
0
 41
0
  0
VERTEX
  8
0
 10
0.329536
 20
0.79031
 30
0.0
 40
0
 41
0
  0
VERTEX
  8
0
 10
0.332357
 20
0.79031
 30
0.0
 40
0
 41
0
  0
VERTEX
  8
0
 10
0.340983
 20
0.784506
 30
0.0
 40
0
 41
0
  0
VERTEX
  8
0
 10
0.346789
 20
0.770833
 30
0.0
 40
0
 41
0
  0
VERTEX
  8
0
 10
0.346789
 20
0.766276
 30
0.0
 40
0
 41
0
  0
VERTEX
  8
0
 10
0.346789
 20
0.76416
 30
0.0
 40
0
 41
0
  0
VERTEX
  8
0
 10
0.346083
 20
0.757704
 30
0.0
 40
0
 41
0
  0
VERTEX
  8
0
 10
0.343479
 20
0.753851
 30
0.0
 40
0
 41
0
  0
VERTEX
  8
0
 10
0.342665
 20
0.753851
 30
0.0
 40
0
 41
0
  0
VERTEX
  8
0
 10
0.342176
 20
0.753851
 30
0.0
 40
0
 41
0
  0
VERTEX
  8
0
 10
0.340712
 20
0.758356
 30
0.0
 40
0
 41
0
  0
VERTEX
  8
0
 10
0.340712
 20
0.758356
 30
0.0
 40
0
 41
0
  0
VERTEX
  8
0
 10
0.340712
 20
0.774849
 30
0.0
 40
0
 41
0
  0
SEQEND
 8
0
  0
POLYLINE
  8
0
 62
     0
 66
     1
 10
0
 20
0
 30
0.0
 70
     1
 40
0
 41
0
  0
VERTEX
  8
0
 10
0.336806
 20
0.761501
 30
0.0
 40
0
 41
0
  0
VERTEX
  8
0
 10
0.336806
 20
0.760796
 30
0.0
 40
0
 41
0
  0
VERTEX
  8
0
 10
0.336208
 20
0.758951
 30
0.0
 40
0
 41
0
  0
VERTEX
  8
0
 10
0.336046
 20
0.758572
 30
0.0
 40
0
 41
0
  0
VERTEX
  8
0
 10
0.335394
 20
0.757542
 30
0.0
 40
0
 41
0
  0
VERTEX
  8
0
 10
0.331
 20
0.753851
 30
0.0
 40
0
 41
0
  0
VERTEX
  8
0
 10
0.32959
 20
0.753851
 30
0.0
 40
0
 41
0
  0
VERTEX
  8
0
 10
0.328287
 20
0.753851
 30
0.0
 40
0
 41
0
  0
VERTEX
  8
0
 10
0.324382
 20
0.757758
 30
0.0
 40
0
 41
0
  0
VERTEX
  8
0
 10
0.322211
 20
0.764919
 30
0.0
 40
0
 41
0
  0
VERTEX
  8
0
 10
0.322211
 20
0.767253
 30
0.0
 40
0
 41
0
  0
VERTEX
  8
0
 10
0.322211
 20
0.770671
 30
0.0
 40
0
 41
0
  0
VERTEX
  8
0
 10
0.327746
 20
0.780761
 30
0.0
 40
0
 41
0
  0
VERTEX
  8
0
 10
0.32959
 20
0.780761
 30
0.0
 40
0
 41
0
  0
VERTEX
  8
0
 10
0.331218
 20
0.780761
 30
0.0
 40
0
 41
0
  0
VERTEX
  8
0
 10
0.335558
 20
0.776801
 30
0.0
 40
0
 41
0
  0
VERTEX
  8
0
 10
0.3361
 20
0.775825
 30
0.0
 40
0
 41
0
  0
VERTEX
  8
0
 10
0.336262
 20
0.775553
 30
0.0
 40
0
 41
0
  0
VERTEX
  8
0
 10
0.336806
 20
0.773762
 30
0.0
 40
0
 41
0
  0
VERTEX
  8
0
 10
0.336806
 20
0.773167
 30
0.0
 40
0
 41
0
  0
VERTEX
  8
0
 10
0.336806
 20
0.761501
 30
0.0
 40
0
 41
0
  0
SEQEND
 8
0
  0
POLYLINE
  8
0
 62
     0
 66
     1
 10
0
 20
0
 30
0.0
 70
     1
 40
0
 41
0
  0
VERTEX
  8
0
 10
0.165093
 20
0.41721
 30
0.0
 40
0
 41
0
  0
VERTEX
  8
0
 10
0.165093
 20
0.417643
 30
0.0
 40
0
 41
0
  0
VERTEX
  8
0
 10
0.164117
 20
0.418837
 30
0.0
 40
0
 41
0
  0
VERTEX
  8
0
 10
0.163792
 20
0.418837
 30
0.0
 40
0
 41
0
  0
VERTEX
  8
0
 10
0.162815
 20
0.418837
 30
0.0
 40
0
 41
0
  0
VERTEX
  8
0
 10
0.162489
 20
0.418837
 30
0.0
 40
0
 41
0
  0
VERTEX
  8
0
 10
0.161567
 20
0.419271
 30
0.0
 40
0
 41
0
  0
VERTEX
  8
0
 10
0.161512
 20
0.419325
 30
0.0
 40
0
 41
0
  0
VERTEX
  8
0
 10
0.160861
 20
0.42041
 30
0.0
 40
0
 41
0
  0
VERTEX
  8
0
 10
0.155544
 20
0.424587
 30
0.0
 40
0
 41
0
  0
VERTEX
  8
0
 10
0.153808
 20
0.424587
 30
0.0
 40
0
 41
0
  0
VERTEX
  8
0
 10
0.151856
 20
0.424587
 30
0.0
 40
0
 41
0
  0
VERTEX
  8
0
 10
0.14605
 20
0.420356
 30
0.0
 40
0
 41
0
  0
VERTEX
  8
0
 10
0.14274
 20
0.412326
 30
0.0
 40
0
 41
0
  0
VERTEX
  8
0
 10
0.14274
 20
0.409614
 30
0.0
 40
0
 41
0
  0
VERTEX
  8
0
 10
0.14274
 20
0.406956
 30
0.0
 40
0
 41
0
  0
VERTEX
  8
0
 10
0.14605
 20
0.398981
 30
0.0
 40
0
 41
0
  0
VERTEX
  8
0
 10
0.151856
 20
0.394694
 30
0.0
 40
0
 41
0
  0
VERTEX
  8
0
 10
0.153808
 20
0.394694
 30
0.0
 40
0
 41
0
  0
VERTEX
  8
0
 10
0.155653
 20
0.394694
 30
0.0
 40
0
 41
0
  0
VERTEX
  8
0
 10
0.160807
 20
0.398817
 30
0.0
 40
0
 41
0
  0
VERTEX
  8
0
 10
0.161242
 20
0.399522
 30
0.0
 40
0
 41
0
  0
VERTEX
  8
0
 10
0.16135
 20
0.398654
 30
0.0
 40
0
 41
0
  0
VERTEX
  8
0
 10
0.165474
 20
0.394694
 30
0.0
 40
0
 41
0
  0
VERTEX
  8
0
 10
0.166883
 20
0.394694
 30
0.0
 40
0
 41
0
  0
VERTEX
  8
0
 10
0.168024
 20
0.394694
 30
0.0
 40
0
 41
0
  0
VERTEX
  8
0
 10
0.17155
 20
0.399143
 30
0.0
 40
0
 41
0
  0
VERTEX
  8
0
 10
0.172581
 20
0.406629
 30
0.0
 40
0
 41
0
  0
VERTEX
  8
0
 10
0.172581
 20
0.409071
 30
0.0
 40
0
 41
0
  0
VERTEX
  8
0
 10
0.172581
 20
0.413738
 30
0.0
 40
0
 41
0
  0
VERTEX
  8
0
 10
0.166613
 20
0.427626
 30
0.0
 40
0
 41
0
  0
VERTEX
  8
0
 10
0.157064
 20
0.434136
 30
0.0
 40
0
 41
0
  0
VERTEX
  8
0
 10
0.153917
 20
0.434136
 30
0.0
 40
0
 41
0
  0
VERTEX
  8
0
 10
0.150608
 20
0.434136
 30
0.0
 40
0
 41
0
  0
VERTEX
  8
0
 10
0.140679
 20
0.427029
 30
0.0
 40
0
 41
0
  0
VERTEX
  8
0
 10
0.135254
 20
0.414008
 30
0.0
 40
0
 41
0
  0
VERTEX
  8
0
 10
0.135254
 20
0.409614
 30
0.0
 40
0
 41
0
  0
VERTEX
  8
0
 10
0.135254
 20
0.405382
 30
0.0
 40
0
 41
0
  0
VERTEX
  8
0
 10
0.140517
 20
0.392578
 30
0.0
 40
0
 41
0
  0
VERTEX
  8
0
 10
0.150771
 20
0.385146
 30
0.0
 40
0
 41
0
  0
VERTEX
  8
0
 10
0.154189
 20
0.385146
 30
0.0
 40
0
 41
0
  0
VERTEX
  8
0
 10
0.156685
 20
0.385146
 30
0.0
 40
0
 41
0
  0
VERTEX
  8
0
 10
0.163411
 20
0.386393
 30
0.0
 40
0
 41
0
  0
VERTEX
  8
0
 10
0.164333
 20
0.386664
 30
0.0
 40
0
 41
0
  0
VERTEX
  8
0
 10
0.16466
 20
0.386774
 30
0.0
 40
0
 41
0
  0
VERTEX
  8
0
 10
0.172472
 20
0.389594
 30
0.0
 40
0
 41
0
  0
VERTEX
  8
0
 10
0.172472
 20
0.390517
 30
0.0
 40
0
 41
0
  0
VERTEX
  8
0
 10
0.172472
 20
0.390733
 30
0.0
 40
0
 41
0
  0
VERTEX
  8
0
 10
0.17155
 20
0.391276
 30
0.0
 40
0
 41
0
  0
VERTEX
  8
0
 10
0.171278
 20
0.391276
 30
0.0
 40
0
 41
0
  0
VERTEX
  8
0
 10
0.170736
 20
0.391276
 30
0.0
 40
0
 41
0
  0
VERTEX
  8
0
 10
0.17041
 20
0.391276
 30
0.0
 40
0
 41
0
  0
VERTEX
  8
0
 10
0.169488
 20
0.391114
 30
0.0
 40
0
 41
0
  0
VERTEX
  8
0
 10
0.169433
 20
0.39106
 30
0.0
 40
0
 41
0
  0
VERTEX
  8
0
 10
0.16824
 20
0.390354
 30
0.0
 40
0
 41
0
  0
VERTEX
  8
0
 10
0.157661
 20
0.386664
 30
0.0
 40
0
 41
0
  0
VERTEX
  8
0
 10
0.154189
 20
0.386664
 30
0.0
 40
0
 41
0
  0
VERTEX
  8
0
 10
0.151042
 20
0.386664
 30
0.0
 40
0
 41
0
  0
VERTEX
  8
0
 10
0.141601
 20
0.393554
 30
0.0
 40
0
 41
0
  0
VERTEX
  8
0
 10
0.136664
 20
0.405599
 30
0.0
 40
0
 41
0
  0
VERTEX
  8
0
 10
0.136664
 20
0.409614
 30
0.0
 40
0
 41
0
  0
VERTEX
  8
0
 10
0.136664
 20
0.413738
 30
0.0
 40
0
 41
0
  0
VERTEX
  8
0
 10
0.141818
 20
0.426053
 30
0.0
 40
0
 41
0
  0
VERTEX
  8
0
 10
0.150879
 20
0.432617
 30
0.0
 40
0
 41
0
  0
VERTEX
  8
0
 10
0.153917
 20
0.432617
 30
0.0
 40
0
 41
0
  0
VERTEX
  8
0
 10
0.156739
 20
0.432617
 30
0.0
 40
0
 41
0
  0
VERTEX
  8
0
 10
0.165365
 20
0.426812
 30
0.0
 40
0
 41
0
  0
VERTEX
  8
0
 10
0.171169
 20
0.413194
 30
0.0
 40
0
 41
0
  0
VERTEX
  8
0
 10
0.171169
 20
0.408638
 30
0.0
 40
0
 41
0
  0
VERTEX
  8
0
 10
0.171169
 20
0.406521
 30
0.0
 40
0
 41
0
  0
VERTEX
  8
0
 10
0.170518
 20
0.400065
 30
0.0
 40
0
 41
0
  0
VERTEX
  8
0
 10
0.167914
 20
0.396213
 30
0.0
 40
0
 41
0
  0
VERTEX
  8
0
 10
0.167046
 20
0.396213
 30
0.0
 40
0
 41
0
  0
VERTEX
  8
0
 10
0.166558
 20
0.396213
 30
0.0
 40
0
 41
0
  0
VERTEX
  8
0
 10
0.165093
 20
0.400717
 30
0.0
 40
0
 41
0
  0
VERTEX
  8
0
 10
0.165093
 20
0.400717
 30
0.0
 40
0
 41
0
  0
VERTEX
  8
0
 10
0.165093
 20
0.41721
 30
0.0
 40
0
 41
0
  0
SEQEND
 8
0
  0
POLYLINE
  8
0
 62
     0
 66
     1
 10
0
 20
0
 30
0.0
 70
     1
 40
0
 41
0
  0
VERTEX
  8
0
 10
0.161242
 20
0.403808
 30
0.0
 40
0
 41
0
  0
VERTEX
  8
0
 10
0.161242
 20
0.403103
 30
0.0
 40
0
 41
0
  0
VERTEX
  8
0
 10
0.16059
 20
0.401313
 30
0.0
 40
0
 41
0
  0
VERTEX
  8
0
 10
0.160428
 20
0.400933
 30
0.0
 40
0
 41
0
  0
VERTEX
  8
0
 10
0.159776
 20
0.399903
 30
0.0
 40
0
 41
0
  0
VERTEX
  8
0
 10
0.155436
 20
0.396213
 30
0.0
 40
0
 41
0
  0
VERTEX
  8
0
 10
0.154025
 20
0.396213
 30
0.0
 40
0
 41
0
  0
VERTEX
  8
0
 10
0.152126
 20
0.396213
 30
0.0
 40
0
 41
0
  0
VERTEX
  8
0
 10
0.146593
 20
0.406304
 30
0.0
 40
0
 41
0
  0
VERTEX
  8
0
 10
0.146593
 20
0.409614
 30
0.0
 40
0
 41
0
  0
VERTEX
  8
0
 10
0.146593
 20
0.413032
 30
0.0
 40
0
 41
0
  0
VERTEX
  8
0
 10
0.152126
 20
0.423122
 30
0.0
 40
0
 41
0
  0
VERTEX
  8
0
 10
0.154025
 20
0.423122
 30
0.0
 40
0
 41
0
  0
VERTEX
  8
0
 10
0.155653
 20
0.423122
 30
0.0
 40
0
 41
0
  0
VERTEX
  8
0
 10
0.159993
 20
0.419163
 30
0.0
 40
0
 41
0
  0
VERTEX
  8
0
 10
0.160536
 20
0.418186
 30
0.0
 40
0
 41
0
  0
VERTEX
  8
0
 10
0.160699
 20
0.41786
 30
0.0
 40
0
 41
0
  0
VERTEX
  8
0
 10
0.161242
 20
0.416069
 30
0.0
 40
0
 41
0
  0
VERTEX
  8
0
 10
0.161242
 20
0.415474
 30
0.0
 40
0
 41
0
  0
VERTEX
  8
0
 10
0.161242
 20
0.403808
 30
0.0
 40
0
 41
0
  0
SEQEND
 8
0
  0
POLYLINE
  8
0
 62
     0
 66
     1
 10
0
 20
0
 30
0.0
 40
0.183408
 41
0.183408
  0
VERTEX
  8
0
 10
1.08789
 20
0.733453
 30
0.0
 40
0.00254733
 41
0.00254733
  0
VERTEX
  8
0
 10
1.10211
 20
0.716743
 30
0.0
 40
0.00254733
 41
0.00254733
  0
VERTEX
  8
0
 10
1.16998
 20
0.627496
 30
0.0
 40
0.00254733
 41
0.00254733
  0
VERTEX
  8
0
 10
1.22418
 20
0.515842
 30
0.0
 40
0.00254733
 41
0.00254733
  0
VERTEX
  8
0
 10
1.23166
 20
0.487901
 30
0.0
 40
0.00254733
 41
0.00254733
  0
VERTEX
  8
0
 10
1.23909
 20
0.460015
 30
0.0
 40
0.00254733
 41
0.00254733
  0
VERTEX
  8
0
 10
1.25933
 20
0.292481
 30
0.0
 40
0.00254733
 41
0.00254733
  0
VERTEX
  8
0
 10
1.26595
 20
0.102485
 30
0.0
 40
0.00254733
 41
0.00254733
  0
VERTEX
  8
0
 10
1.2666
 20
0.0633681
 30
0.0
 40
0.00254733
 41
0.00254733
  0
SEQEND
 8
0
  0
POLYLINE
  8
0
 62
     0
 66
     1
 10
0
 20
0
 30
0.0
 40
0.188254
 41
0.188254
  0
VERTEX
  8
0
 10
1.00353
 20
0.159614
 30
0.0
 40
0.00261464
 41
0.00261464
  0
VERTEX
  8
0
 10
1.00673
 20
0.0633681
 30
0.0
 40
0.00261464
 41
0.00261464
  0
SEQEND
 8
0
  0
POLYLINE
  8
0
 62
     0
 66
     1
 10
0
 20
0
 30
0.0
 70
     1
 40
0
 41
0
  0
VERTEX
  8
0
 10
0.873699
 20
0.597276
 30
0.0
 40
0
 41
0
  0
VERTEX
  8
0
 10
0.874294
 20
0.595594
 30
0.0
 40
0
 41
0
  0
VERTEX
  8
0
 10
0.877279
 20
0.586046
 30
0.0
 40
0
 41
0
  0
VERTEX
  8
0
 10
0.879557
 20
0.57921
 30
0.0
 40
0
 41
0
  0
VERTEX
  8
0
 10
0.879829
 20
0.578776
 30
0.0
 40
0
 41
0
  0
VERTEX
  8
0
 10
0.880046
 20
0.57845
 30
0.0
 40
0
 41
0
  0
VERTEX
  8
0
 10
0.882161
 20
0.577365
 30
0.0
 40
0
 41
0
  0
VERTEX
  8
0
 10
0.882921
 20
0.577365
 30
0.0
 40
0
 41
0
  0
VERTEX
  8
0
 10
0.884169
 20
0.577365
 30
0.0
 40
0
 41
0
  0
VERTEX
  8
0
 10
0.884278
 20
0.577419
 30
0.0
 40
0
 41
0
  0
VERTEX
  8
0
 10
0.884819
 20
0.577854
 30
0.0
 40
0
 41
0
  0
VERTEX
  8
0
 10
0.884819
 20
0.577963
 30
0.0
 40
0
 41
0
  0
VERTEX
  8
0
 10
0.884819
 20
0.578125
 30
0.0
 40
0
 41
0
  0
VERTEX
  8
0
 10
0.884494
 20
0.57856
 30
0.0
 40
0
 41
0
  0
VERTEX
  8
0
 10
0.88444
 20
0.57856
 30
0.0
 40
0
 41
0
  0
VERTEX
  8
0
 10
0.884278
 20
0.578776
 30
0.0
 40
0
 41
0
  0
VERTEX
  8
0
 10
0.883247
 20
0.581326
 30
0.0
 40
0
 41
0
  0
VERTEX
  8
0
 10
0.883192
 20
0.581597
 30
0.0
 40
0
 41
0
  0
VERTEX
  8
0
 10
0.871311
 20
0.61914
 30
0.0
 40
0
 41
0
  0
VERTEX
  8
0
 10
0.870985
 20
0.620117
 30
0.0
 40
0
 41
0
  0
VERTEX
  8
0
 10
0.865886
 20
0.623861
 30
0.0
 40
0
 41
0
  0
VERTEX
  8
0
 10
0.864204
 20
0.623861
 30
0.0
 40
0
 41
0
  0
VERTEX
  8
0
 10
0.864204
 20
0.623861
 30
0.0
 40
0
 41
0
  0
VERTEX
  8
0
 10
0.863118
 20
0.623372
 30
0.0
 40
0
 41
0
  0
VERTEX
  8
0
 10
0.863118
 20
0.623156
 30
0.0
 40
0
 41
0
  0
VERTEX
  8
0
 10
0.863118
 20
0.622993
 30
0.0
 40
0
 41
0
  0
VERTEX
  8
0
 10
0.863499
 20
0.62245
 30
0.0
 40
0
 41
0
  0
VERTEX
  8
0
 10
0.863661
 20
0.62245
 30
0.0
 40
0
 41
0
  0
VERTEX
  8
0
 10
0.864094
 20
0.622396
 30
0.0
 40
0
 41
0
  0
VERTEX
  8
0
 10
0.867133
 20
0.618272
 30
0.0
 40
0
 41
0
  0
VERTEX
  8
0
 10
0.867512
 20
0.617133
 30
0.0
 40
0
 41
0
  0
VERTEX
  8
0
 10
0.873047
 20
0.599283
 30
0.0
 40
0
 41
0
  0
VERTEX
  8
0
 10
0.856987
 20
0.581164
 30
0.0
 40
0
 41
0
  0
VERTEX
  8
0
 10
0.856825
 20
0.581
 30
0.0
 40
0
 41
0
  0
VERTEX
  8
0
 10
0.856011
 20
0.57959
 30
0.0
 40
0
 41
0
  0
VERTEX
  8
0
 10
0.856011
 20
0.579101
 30
0.0
 40
0
 41
0
  0
VERTEX
  8
0
 10
0.856011
 20
0.578668
 30
0.0
 40
0
 41
0
  0
VERTEX
  8
0
 10
0.85726
 20
0.577257
 30
0.0
 40
0
 41
0
  0
VERTEX
  8
0
 10
0.857693
 20
0.577257
 30
0.0
 40
0
 41
0
  0
VERTEX
  8
0
 10
0.858182
 20
0.577257
 30
0.0
 40
0
 41
0
  0
VERTEX
  8
0
 10
0.859483
 20
0.57845
 30
0.0
 40
0
 41
0
  0
VERTEX
  8
0
 10
0.859646
 20
0.57856
 30
0.0
 40
0
 41
0
  0
VERTEX
  8
0
 10
0.873699
 20
0.597276
 30
0.0
 40
0
 41
0
  0
SEQEND
 8
0
  0
POLYLINE
  8
0
 62
     0
 66
     1
 10
0
 20
0
 30
0.0
 70
     1
 40
0
 41
0
  0
VERTEX
  8
0
 10
0.90625
 20
0.598036
 30
0.0
 40
0
 41
0
  0
VERTEX
  8
0
 10
0.906304
 20
0.598469
 30
0.0
 40
0
 41
0
  0
VERTEX
  8
0
 10
0.910536
 20
0.605794
 30
0.0
 40
0
 41
0
  0
VERTEX
  8
0
 10
0.912001
 20
0.605794
 30
0.0
 40
0
 41
0
  0
VERTEX
  8
0
 10
0.912706
 20
0.605794
 30
0.0
 40
0
 41
0
  0
VERTEX
  8
0
 10
0.914606
 20
0.605143
 30
0.0
 40
0
 41
0
  0
VERTEX
  8
0
 10
0.914931
 20
0.604926
 30
0.0
 40
0
 41
0
  0
VERTEX
  8
0
 10
0.914497
 20
0.604872
 30
0.0
 40
0
 41
0
  0
VERTEX
  8
0
 10
0.912218
 20
0.602268
 30
0.0
 40
0
 41
0
  0
VERTEX
  8
0
 10
0.912218
 20
0.601346
 30
0.0
 40
0
 41
0
  0
VERTEX
  8
0
 10
0.912218
 20
0.600803
 30
0.0
 40
0
 41
0
  0
VERTEX
  8
0
 10
0.913846
 20
0.599067
 30
0.0
 40
0
 41
0
  0
VERTEX
  8
0
 10
0.914387
 20
0.599067
 30
0.0
 40
0
 41
0
  0
VERTEX
  8
0
 10
0.915147
 20
0.599067
 30
0.0
 40
0
 41
0
  0
VERTEX
  8
0
 10
0.917481
 20
0.601942
 30
0.0
 40
0
 41
0
  0
VERTEX
  8
0
 10
0.917481
 20
0.602865
 30
0.0
 40
0
 41
0
  0
VERTEX
  8
0
 10
0.917481
 20
0.60395
 30
0.0
 40
0
 41
0
  0
VERTEX
  8
0
 10
0.913411
 20
0.607206
 30
0.0
 40
0
 41
0
  0
VERTEX
  8
0
 10
0.91211
 20
0.607206
 30
0.0
 40
0
 41
0
  0
VERTEX
  8
0
 10
0.910536
 20
0.607206
 30
0.0
 40
0
 41
0
  0
VERTEX
  8
0
 10
0.906142
 20
0.602647
 30
0.0
 40
0
 41
0
  0
VERTEX
  8
0
 10
0.905979
 20
0.602268
 30
0.0
 40
0
 41
0
  0
VERTEX
  8
0
 10
0.905599
 20
0.603353
 30
0.0
 40
0
 41
0
  0
VERTEX
  8
0
 10
0.90115
 20
0.607206
 30
0.0
 40
0
 41
0
  0
VERTEX
  8
0
 10
0.899685
 20
0.607206
 30
0.0
 40
0
 41
0
  0
VERTEX
  8
0
 10
0.897894
 20
0.607206
 30
0.0
 40
0
 41
0
  0
VERTEX
  8
0
 10
0.892686
 20
0.60281
 30
0.0
 40
0
 41
0
  0
VERTEX
  8
0
 10
0.8903
 20
0.598579
 30
0.0
 40
0
 41
0
  0
VERTEX
  8
0
 10
0.8903
 20
0.597114
 30
0.0
 40
0
 41
0
  0
VERTEX
  8
0
 10
0.8903
 20
0.596951
 30
0.0
 40
0
 41
0
  0
VERTEX
  8
0
 10
0.890788
 20
0.596354
 30
0.0
 40
0
 41
0
  0
VERTEX
  8
0
 10
0.891004
 20
0.596354
 30
0.0
 40
0
 41
0
  0
VERTEX
  8
0
 10
0.891168
 20
0.596354
 30
0.0
 40
0
 41
0
  0
VERTEX
  8
0
 10
0.89171
 20
0.597006
 30
0.0
 40
0
 41
0
  0
VERTEX
  8
0
 10
0.891764
 20
0.597114
 30
0.0
 40
0
 41
0
  0
VERTEX
  8
0
 10
0.892253
 20
0.598904
 30
0.0
 40
0
 41
0
  0
VERTEX
  8
0
 10
0.897786
 20
0.605794
 30
0.0
 40
0
 41
0
  0
VERTEX
  8
0
 10
0.899631
 20
0.605794
 30
0.0
 40
0
 41
0
  0
VERTEX
  8
0
 10
0.90039
 20
0.605794
 30
0.0
 40
0
 41
0
  0
VERTEX
  8
0
 10
0.902724
 20
0.602485
 30
0.0
 40
0
 41
0
  0
VERTEX
  8
0
 10
0.902724
 20
0.601346
 30
0.0
 40
0
 41
0
  0
VERTEX
  8
0
 10
0.902724
 20
0.597439
 30
0.0
 40
0
 41
0
  0
VERTEX
  8
0
 10
0.900119
 20
0.587944
 30
0.0
 40
0
 41
0
  0
VERTEX
  8
0
 10
0.899631
 20
0.585613
 30
0.0
 40
0
 41
0
  0
VERTEX
  8
0
 10
0.89936
 20
0.584636
 30
0.0
 40
0
 41
0
  0
VERTEX
  8
0
 10
0.895344
 20
0.578776
 30
0.0
 40
0
 41
0
  0
VERTEX
  8
0
 10
0.894043
 20
0.578776
 30
0.0
 40
0
 41
0
  0
VERTEX
  8
0
 10
0.893283
 20
0.578776
 30
0.0
 40
0
 41
0
  0
VERTEX
  8
0
 10
0.891439
 20
0.579428
 30
0.0
 40
0
 41
0
  0
VERTEX
  8
0
 10
0.891114
 20
0.57959
 30
0.0
 40
0
 41
0
  0
VERTEX
  8
0
 10
0.891439
 20
0.579699
 30
0.0
 40
0
 41
0
  0
VERTEX
  8
0
 10
0.893881
 20
0.582357
 30
0.0
 40
0
 41
0
  0
VERTEX
  8
0
 10
0.893881
 20
0.583225
 30
0.0
 40
0
 41
0
  0
VERTEX
  8
0
 10
0.893881
 20
0.583822
 30
0.0
 40
0
 41
0
  0
VERTEX
  8
0
 10
0.892253
 20
0.585504
 30
0.0
 40
0
 41
0
  0
VERTEX
  8
0
 10
0.891764
 20
0.585504
 30
0.0
 40
0
 41
0
  0
VERTEX
  8
0
 10
0.89095
 20
0.585504
 30
0.0
 40
0
 41
0
  0
VERTEX
  8
0
 10
0.888564
 20
0.582682
 30
0.0
 40
0
 41
0
  0
VERTEX
  8
0
 10
0.888564
 20
0.581706
 30
0.0
 40
0
 41
0
  0
VERTEX
  8
0
 10
0.888564
 20
0.580621
 30
0.0
 40
0
 41
0
  0
VERTEX
  8
0
 10
0.892578
 20
0.577365
 30
0.0
 40
0
 41
0
  0
VERTEX
  8
0
 10
0.893935
 20
0.577365
 30
0.0
 40
0
 41
0
  0
VERTEX
  8
0
 10
0.895454
 20
0.577365
 30
0.0
 40
0
 41
0
  0
VERTEX
  8
0
 10
0.900011
 20
0.582249
 30
0.0
 40
0
 41
0
  0
VERTEX
  8
0
 10
0.900065
 20
0.582303
 30
0.0
 40
0
 41
0
  0
VERTEX
  8
0
 10
0.900228
 20
0.581706
 30
0.0
 40
0
 41
0
  0
VERTEX
  8
0
 10
0.904785
 20
0.577365
 30
0.0
 40
0
 41
0
  0
VERTEX
  8
0
 10
0.906358
 20
0.577365
 30
0.0
 40
0
 41
0
  0
VERTEX
  8
0
 10
0.90804
 20
0.577365
 30
0.0
 40
0
 41
0
  0
VERTEX
  8
0
 10
0.913249
 20
0.581814
 30
0.0
 40
0
 41
0
  0
VERTEX
  8
0
 10
0.91569
 20
0.586046
 30
0.0
 40
0
 41
0
  0
VERTEX
  8
0
 10
0.91569
 20
0.587457
 30
0.0
 40
0
 41
0
  0
VERTEX
  8
0
 10
0.91569
 20
0.587674
 30
0.0
 40
0
 41
0
  0
VERTEX
  8
0
 10
0.915039
 20
0.588217
 30
0.0
 40
0
 41
0
  0
VERTEX
  8
0
 10
0.915039
 20
0.588217
 30
0.0
 40
0
 41
0
  0
VERTEX
  8
0
 10
0.914822
 20
0.588217
 30
0.0
 40
0
 41
0
  0
VERTEX
  8
0
 10
0.914225
 20
0.587565
 30
0.0
 40
0
 41
0
  0
VERTEX
  8
0
 10
0.914225
 20
0.587457
 30
0.0
 40
0
 41
0
  0
VERTEX
  8
0
 10
0.913738
 20
0.585721
 30
0.0
 40
0
 41
0
  0
VERTEX
  8
0
 10
0.906575
 20
0.578776
 30
0.0
 40
0
 41
0
  0
VERTEX
  8
0
 10
0.906575
 20
0.578776
 30
0.0
 40
0
 41
0
  0
VERTEX
  8
0
 10
0.905761
 20
0.578776
 30
0.0
 40
0
 41
0
  0
VERTEX
  8
0
 10
0.903375
 20
0.582032
 30
0.0
 40
0
 41
0
  0
VERTEX
  8
0
 10
0.903375
 20
0.583117
 30
0.0
 40
0
 41
0
  0
VERTEX
  8
0
 10
0.903375
 20
0.583117
 30
0.0
 40
0
 41
0
  0
VERTEX
  8
0
 10
0.904081
 20
0.588217
 30
0.0
 40
0
 41
0
  0
VERTEX
  8
0
 10
0.904243
 20
0.588921
 30
0.0
 40
0
 41
0
  0
VERTEX
  8
0
 10
0.90625
 20
0.598036
 30
0.0
 40
0
 41
0
  0
SEQEND
 8
0
  0
POLYLINE
  8
0
 62
     0
 66
     1
 10
0
 20
0
 30
0.0
 70
     1
 40
0
 41
0
  0
VERTEX
  8
0
 10
0.991536
 20
0.201226
 30
0.0
 40
0
 41
0
  0
VERTEX
  8
0
 10
0.992133
 20
0.19949
 30
0.0
 40
0
 41
0
  0
VERTEX
  8
0
 10
0.995117
 20
0.189942
 30
0.0
 40
0
 41
0
  0
VERTEX
  8
0
 10
0.997396
 20
0.183106
 30
0.0
 40
0
 41
0
  0
VERTEX
  8
0
 10
0.997667
 20
0.182726
 30
0.0
 40
0
 41
0
  0
VERTEX
  8
0
 10
0.997885
 20
0.1824
 30
0.0
 40
0
 41
0
  0
VERTEX
  8
0
 10
1
 20
0.181261
 30
0.0
 40
0
 41
0
  0
VERTEX
  8
0
 10
1.00076
 20
0.181261
 30
0.0
 40
0
 41
0
  0
VERTEX
  8
0
 10
1.00206
 20
0.181261
 30
0.0
 40
0
 41
0
  0
VERTEX
  8
0
 10
1.00217
 20
0.181315
 30
0.0
 40
0
 41
0
  0
VERTEX
  8
0
 10
1.00266
 20
0.181803
 30
0.0
 40
0
 41
0
  0
VERTEX
  8
0
 10
1.00266
 20
0.181913
 30
0.0
 40
0
 41
0
  0
VERTEX
  8
0
 10
1.00266
 20
0.181913
 30
0.0
 40
0
 41
0
  0
VERTEX
  8
0
 10
1.00233
 20
0.182454
 30
0.0
 40
0
 41
0
  0
VERTEX
  8
0
 10
1.00233
 20
0.182508
 30
0.0
 40
0
 41
0
  0
VERTEX
  8
0
 10
1.00217
 20
0.182726
 30
0.0
 40
0
 41
0
  0
VERTEX
  8
0
 10
1.00108
 20
0.185221
 30
0.0
 40
0
 41
0
  0
VERTEX
  8
0
 10
1.00103
 20
0.185493
 30
0.0
 40
0
 41
0
  0
VERTEX
  8
0
 10
0.98915
 20
0.223036
 30
0.0
 40
0
 41
0
  0
VERTEX
  8
0
 10
0.988824
 20
0.224013
 30
0.0
 40
0
 41
0
  0
VERTEX
  8
0
 10
0.983724
 20
0.22781
 30
0.0
 40
0
 41
0
  0
VERTEX
  8
0
 10
0.982042
 20
0.22781
 30
0.0
 40
0
 41
0
  0
VERTEX
  8
0
 10
0.982042
 20
0.22781
 30
0.0
 40
0
 41
0
  0
VERTEX
  8
0
 10
0.980957
 20
0.227322
 30
0.0
 40
0
 41
0
  0
VERTEX
  8
0
 10
0.980957
 20
0.227106
 30
0.0
 40
0
 41
0
  0
VERTEX
  8
0
 10
0.980957
 20
0.226942
 30
0.0
 40
0
 41
0
  0
VERTEX
  8
0
 10
0.981338
 20
0.226346
 30
0.0
 40
0
 41
0
  0
VERTEX
  8
0
 10
0.9815
 20
0.226346
 30
0.0
 40
0
 41
0
  0
VERTEX
  8
0
 10
0.981933
 20
0.226292
 30
0.0
 40
0
 41
0
  0
VERTEX
  8
0
 10
0.984972
 20
0.222222
 30
0.0
 40
0
 41
0
  0
VERTEX
  8
0
 10
0.985351
 20
0.221083
 30
0.0
 40
0
 41
0
  0
VERTEX
  8
0
 10
0.990886
 20
0.203179
 30
0.0
 40
0
 41
0
  0
VERTEX
  8
0
 10
0.974826
 20
0.185113
 30
0.0
 40
0
 41
0
  0
VERTEX
  8
0
 10
0.974664
 20
0.184896
 30
0.0
 40
0
 41
0
  0
VERTEX
  8
0
 10
0.97385
 20
0.183539
 30
0.0
 40
0
 41
0
  0
VERTEX
  8
0
 10
0.97385
 20
0.183051
 30
0.0
 40
0
 41
0
  0
VERTEX
  8
0
 10
0.97385
 20
0.182617
 30
0.0
 40
0
 41
0
  0
VERTEX
  8
0
 10
0.975151
 20
0.181153
 30
0.0
 40
0
 41
0
  0
VERTEX
  8
0
 10
0.975586
 20
0.181153
 30
0.0
 40
0
 41
0
  0
VERTEX
  8
0
 10
0.976019
 20
0.181153
 30
0.0
 40
0
 41
0
  0
VERTEX
  8
0
 10
0.977376
 20
0.1824
 30
0.0
 40
0
 41
0
  0
VERTEX
  8
0
 10
0.977485
 20
0.182508
 30
0.0
 40
0
 41
0
  0
VERTEX
  8
0
 10
0.991536
 20
0.201226
 30
0.0
 40
0
 41
0
  0
SEQEND
 8
0
  0
POLYLINE
  8
0
 62
     0
 66
     1
 10
0
 20
0
 30
0.0
 70
     1
 40
0
 41
0
  0
VERTEX
  8
0
 10
1.03299
 20
0.20714
 30
0.0
 40
0
 41
0
  0
VERTEX
  8
0
 10
1.03304
 20
0.207411
 30
0.0
 40
0
 41
0
  0
VERTEX
  8
0
 10
1.03326
 20
0.208387
 30
0.0
 40
0
 41
0
  0
VERTEX
  8
0
 10
1.03326
 20
0.208658
 30
0.0
 40
0
 41
0
  0
VERTEX
  8
0
 10
1.03326
 20
0.209147
 30
0.0
 40
0
 41
0
  0
VERTEX
  8
0
 10
1.03196
 20
0.210449
 30
0.0
 40
0
 41
0
  0
VERTEX
  8
0
 10
1.03152
 20
0.210449
 30
0.0
 40
0
 41
0
  0
VERTEX
  8
0
 10
1.03152
 20
0.210449
 30
0.0
 40
0
 41
0
  0
VERTEX
  8
0
 10
1.02962
 20
0.209364
 30
0.0
 40
0
 41
0
  0
VERTEX
  8
0
 10
1.02951
 20
0.209093
 30
0.0
 40
0
 41
0
  0
VERTEX
  8
0
 10
1.02946
 20
0.208985
 30
0.0
 40
0
 41
0
  0
VERTEX
  8
0
 10
1.0287
 20
0.205783
 30
0.0
 40
0
 41
0
  0
VERTEX
  8
0
 10
1.0287
 20
0.205458
 30
0.0
 40
0
 41
0
  0
VERTEX
  8
0
 10
1.02854
 20
0.205078
 30
0.0
 40
0
 41
0
  0
VERTEX
  8
0
 10
1.02756
 20
0.200629
 30
0.0
 40
0
 41
0
  0
VERTEX
  8
0
 10
1.02751
 20
0.200196
 30
0.0
 40
0
 41
0
  0
VERTEX
  8
0
 10
1.02485
 20
0.188314
 30
0.0
 40
0
 41
0
  0
VERTEX
  8
0
 10
1.02479
 20
0.188097
 30
0.0
 40
0
 41
0
  0
VERTEX
  8
0
 10
1.01991
 20
0.182726
 30
0.0
 40
0
 41
0
  0
VERTEX
  8
0
 10
1.01828
 20
0.182726
 30
0.0
 40
0
 41
0
  0
VERTEX
  8
0
 10
1.01736
 20
0.182726
 30
0.0
 40
0
 41
0
  0
VERTEX
  8
0
 10
1.0147
 20
0.186794
 30
0.0
 40
0
 41
0
  0
VERTEX
  8
0
 10
1.0147
 20
0.188097
 30
0.0
 40
0
 41
0
  0
VERTEX
  8
0
 10
1.0147
 20
0.191351
 30
0.0
 40
0
 41
0
  0
VERTEX
  8
0
 10
1.01714
 20
0.199599
 30
0.0
 40
0
 41
0
  0
VERTEX
  8
0
 10
1.01763
 20
0.20101
 30
0.0
 40
0
 41
0
  0
VERTEX
  8
0
 10
1.01785
 20
0.201714
 30
0.0
 40
0
 41
0
  0
VERTEX
  8
0
 10
1.01883
 20
0.204807
 30
0.0
 40
0
 41
0
  0
VERTEX
  8
0
 10
1.01883
 20
0.205783
 30
0.0
 40
0
 41
0
  0
VERTEX
  8
0
 10
1.01883
 20
0.20714
 30
0.0
 40
0
 41
0
  0
VERTEX
  8
0
 10
1.01525
 20
0.211154
 30
0.0
 40
0
 41
0
  0
VERTEX
  8
0
 10
1.01411
 20
0.211154
 30
0.0
 40
0
 41
0
  0
VERTEX
  8
0
 10
1.01259
 20
0.211154
 30
0.0
 40
0
 41
0
  0
VERTEX
  8
0
 10
1.00814
 20
0.206326
 30
0.0
 40
0
 41
0
  0
VERTEX
  8
0
 10
1.0064
 20
0.202365
 30
0.0
 40
0
 41
0
  0
VERTEX
  8
0
 10
1.0064
 20
0.20101
 30
0.0
 40
0
 41
0
  0
VERTEX
  8
0
 10
1.0064
 20
0.200846
 30
0.0
 40
0
 41
0
  0
VERTEX
  8
0
 10
1.00689
 20
0.200304
 30
0.0
 40
0
 41
0
  0
VERTEX
  8
0
 10
1.00705
 20
0.200304
 30
0.0
 40
0
 41
0
  0
VERTEX
  8
0
 10
1.00727
 20
0.200304
 30
0.0
 40
0
 41
0
  0
VERTEX
  8
0
 10
1.00787
 20
0.201335
 30
0.0
 40
0
 41
0
  0
VERTEX
  8
0
 10
1.00798
 20
0.201551
 30
0.0
 40
0
 41
0
  0
VERTEX
  8
0
 10
1.00836
 20
0.203125
 30
0.0
 40
0
 41
0
  0
VERTEX
  8
0
 10
1.01248
 20
0.20969
 30
0.0
 40
0
 41
0
  0
VERTEX
  8
0
 10
1.01389
 20
0.20969
 30
0.0
 40
0
 41
0
  0
VERTEX
  8
0
 10
1.01421
 20
0.20969
 30
0.0
 40
0
 41
0
  0
VERTEX
  8
0
 10
1.01535
 20
0.208171
 30
0.0
 40
0
 41
0
  0
VERTEX
  8
0
 10
1.01535
 20
0.207628
 30
0.0
 40
0
 41
0
  0
VERTEX
  8
0
 10
1.01535
 20
0.206489
 30
0.0
 40
0
 41
0
  0
VERTEX
  8
0
 10
1.01443
 20
0.203287
 30
0.0
 40
0
 41
0
  0
VERTEX
  8
0
 10
1.01438
 20
0.202963
 30
0.0
 40
0
 41
0
  0
VERTEX
  8
0
 10
1.01378
 20
0.201226
 30
0.0
 40
0
 41
0
  0
VERTEX
  8
0
 10
1.01096
 20
0.192165
 30
0.0
 40
0
 41
0
  0
VERTEX
  8
0
 10
1.01096
 20
0.189128
 30
0.0
 40
0
 41
0
  0
VERTEX
  8
0
 10
1.01096
 20
0.187175
 30
0.0
 40
0
 41
0
  0
VERTEX
  8
0
 10
1.01633
 20
0.181261
 30
0.0
 40
0
 41
0
  0
VERTEX
  8
0
 10
1.01812
 20
0.181261
 30
0.0
 40
0
 41
0
  0
VERTEX
  8
0
 10
1.01953
 20
0.181261
 30
0.0
 40
0
 41
0
  0
VERTEX
  8
0
 10
1.02349
 20
0.183811
 30
0.0
 40
0
 41
0
  0
VERTEX
  8
0
 10
1.02393
 20
0.184244
 30
0.0
 40
0
 41
0
  0
VERTEX
  8
0
 10
1.02371
 20
0.183431
 30
0.0
 40
0
 41
0
  0
VERTEX
  8
0
 10
1.02073
 20
0.174968
 30
0.0
 40
0
 41
0
  0
VERTEX
  8
0
 10
1.02018
 20
0.174046
 30
0.0
 40
0
 41
0
  0
VERTEX
  8
0
 10
1.0198
 20
0.173503
 30
0.0
 40
0
 41
0
  0
VERTEX
  8
0
 10
1.0153
 20
0.169868
 30
0.0
 40
0
 41
0
  0
VERTEX
  8
0
 10
1.01383
 20
0.169868
 30
0.0
 40
0
 41
0
  0
VERTEX
  8
0
 10
1.0127
 20
0.169868
 30
0.0
 40
0
 41
0
  0
VERTEX
  8
0
 10
1.00955
 20
0.172037
 30
0.0
 40
0
 41
0
  0
VERTEX
  8
0
 10
1.00933
 20
0.172689
 30
0.0
 40
0
 41
0
  0
VERTEX
  8
0
 10
1.00993
 20
0.172689
 30
0.0
 40
0
 41
0
  0
VERTEX
  8
0
 10
1.01161
 20
0.17334
 30
0.0
 40
0
 41
0
  0
VERTEX
  8
0
 10
1.01183
 20
0.173503
 30
0.0
 40
0
 41
0
  0
VERTEX
  8
0
 10
1.01194
 20
0.173665
 30
0.0
 40
0
 41
0
  0
VERTEX
  8
0
 10
1.01297
 20
0.175618
 30
0.0
 40
0
 41
0
  0
VERTEX
  8
0
 10
1.01297
 20
0.176215
 30
0.0
 40
0
 41
0
  0
VERTEX
  8
0
 10
1.01297
 20
0.176813
 30
0.0
 40
0
 41
0
  0
VERTEX
  8
0
 10
1.01139
 20
0.178494
 30
0.0
 40
0
 41
0
  0
VERTEX
  8
0
 10
1.01091
 20
0.178494
 30
0.0
 40
0
 41
0
  0
VERTEX
  8
0
 10
1.01004
 20
0.178494
 30
0.0
 40
0
 41
0
  0
VERTEX
  8
0
 10
1.0076
 20
0.175347
 30
0.0
 40
0
 41
0
  0
VERTEX
  8
0
 10
1.0076
 20
0.174262
 30
0.0
 40
0
 41
0
  0
VERTEX
  8
0
 10
1.0076
 20
0.172851
 30
0.0
 40
0
 41
0
  0
VERTEX
  8
0
 10
1.01226
 20
0.168457
 30
0.0
 40
0
 41
0
  0
VERTEX
  8
0
 10
1.01383
 20
0.168457
 30
0.0
 40
0
 41
0
  0
VERTEX
  8
0
 10
1.0159
 20
0.168457
 30
0.0
 40
0
 41
0
  0
VERTEX
  8
0
 10
1.02219
 20
0.172418
 30
0.0
 40
0
 41
0
  0
VERTEX
  8
0
 10
1.02696
 20
0.180067
 30
0.0
 40
0
 41
0
  0
VERTEX
  8
0
 10
1.0274
 20
0.181913
 30
0.0
 40
0
 41
0
  0
VERTEX
  8
0
 10
1.03299
 20
0.20714
 30
0.0
 40
0
 41
0
  0
SEQEND
 8
0
  0
POLYLINE
  8
0
 62
     0
 66
     1
 10
0
 20
0
 30
0.0
 70
     1
 40
0
 41
0
  0
VERTEX
  8
0
 10
1.07552
 20
0.773167
 30
0.0
 40
0
 41
0
  0
VERTEX
  8
0
 10
1.07552
 20
0.7736
 30
0.0
 40
0
 41
0
  0
VERTEX
  8
0
 10
1.07454
 20
0.774794
 30
0.0
 40
0
 41
0
  0
VERTEX
  8
0
 10
1.07422
 20
0.774794
 30
0.0
 40
0
 41
0
  0
VERTEX
  8
0
 10
1.07324
 20
0.774794
 30
0.0
 40
0
 41
0
  0
VERTEX
  8
0
 10
1.07292
 20
0.774794
 30
0.0
 40
0
 41
0
  0
VERTEX
  8
0
 10
1.07199
 20
0.775228
 30
0.0
 40
0
 41
0
  0
VERTEX
  8
0
 10
1.07194
 20
0.775282
 30
0.0
 40
0
 41
0
  0
VERTEX
  8
0
 10
1.07129
 20
0.776367
 30
0.0
 40
0
 41
0
  0
VERTEX
  8
0
 10
1.06603
 20
0.780544
 30
0.0
 40
0
 41
0
  0
VERTEX
  8
0
 10
1.06429
 20
0.780544
 30
0.0
 40
0
 41
0
  0
VERTEX
  8
0
 10
1.06234
 20
0.780544
 30
0.0
 40
0
 41
0
  0
VERTEX
  8
0
 10
1.05653
 20
0.776313
 30
0.0
 40
0
 41
0
  0
VERTEX
  8
0
 10
1.05317
 20
0.768283
 30
0.0
 40
0
 41
0
  0
VERTEX
  8
0
 10
1.05317
 20
0.765571
 30
0.0
 40
0
 41
0
  0
VERTEX
  8
0
 10
1.05317
 20
0.762912
 30
0.0
 40
0
 41
0
  0
VERTEX
  8
0
 10
1.05653
 20
0.754937
 30
0.0
 40
0
 41
0
  0
VERTEX
  8
0
 10
1.06234
 20
0.750651
 30
0.0
 40
0
 41
0
  0
VERTEX
  8
0
 10
1.06429
 20
0.750651
 30
0.0
 40
0
 41
0
  0
VERTEX
  8
0
 10
1.06613
 20
0.750651
 30
0.0
 40
0
 41
0
  0
VERTEX
  8
0
 10
1.07123
 20
0.754775
 30
0.0
 40
0
 41
0
  0
VERTEX
  8
0
 10
1.07167
 20
0.755479
 30
0.0
 40
0
 41
0
  0
VERTEX
  8
0
 10
1.07178
 20
0.754611
 30
0.0
 40
0
 41
0
  0
VERTEX
  8
0
 10
1.0759
 20
0.750651
 30
0.0
 40
0
 41
0
  0
VERTEX
  8
0
 10
1.07731
 20
0.750651
 30
0.0
 40
0
 41
0
  0
VERTEX
  8
0
 10
1.07845
 20
0.750651
 30
0.0
 40
0
 41
0
  0
VERTEX
  8
0
 10
1.08198
 20
0.7551
 30
0.0
 40
0
 41
0
  0
VERTEX
  8
0
 10
1.08301
 20
0.762588
 30
0.0
 40
0
 41
0
  0
VERTEX
  8
0
 10
1.08301
 20
0.765028
 30
0.0
 40
0
 41
0
  0
VERTEX
  8
0
 10
1.08301
 20
0.769694
 30
0.0
 40
0
 41
0
  0
VERTEX
  8
0
 10
1.07704
 20
0.783583
 30
0.0
 40
0
 41
0
  0
VERTEX
  8
0
 10
1.06749
 20
0.790093
 30
0.0
 40
0
 41
0
  0
VERTEX
  8
0
 10
1.06434
 20
0.790093
 30
0.0
 40
0
 41
0
  0
VERTEX
  8
0
 10
1.06103
 20
0.790093
 30
0.0
 40
0
 41
0
  0
VERTEX
  8
0
 10
1.05111
 20
0.782986
 30
0.0
 40
0
 41
0
  0
VERTEX
  8
0
 10
1.04568
 20
0.769965
 30
0.0
 40
0
 41
0
  0
VERTEX
  8
0
 10
1.04568
 20
0.765571
 30
0.0
 40
0
 41
0
  0
VERTEX
  8
0
 10
1.04568
 20
0.761339
 30
0.0
 40
0
 41
0
  0
VERTEX
  8
0
 10
1.05094
 20
0.748535
 30
0.0
 40
0
 41
0
  0
VERTEX
  8
0
 10
1.0612
 20
0.741103
 30
0.0
 40
0
 41
0
  0
VERTEX
  8
0
 10
1.06462
 20
0.741103
 30
0.0
 40
0
 41
0
  0
VERTEX
  8
0
 10
1.06711
 20
0.741103
 30
0.0
 40
0
 41
0
  0
VERTEX
  8
0
 10
1.07384
 20
0.74235
 30
0.0
 40
0
 41
0
  0
VERTEX
  8
0
 10
1.07476
 20
0.742622
 30
0.0
 40
0
 41
0
  0
VERTEX
  8
0
 10
1.07509
 20
0.742731
 30
0.0
 40
0
 41
0
  0
VERTEX
  8
0
 10
1.08295
 20
0.745551
 30
0.0
 40
0
 41
0
  0
VERTEX
  8
0
 10
1.08295
 20
0.746474
 30
0.0
 40
0
 41
0
  0
VERTEX
  8
0
 10
1.08295
 20
0.74669
 30
0.0
 40
0
 41
0
  0
VERTEX
  8
0
 10
1.08198
 20
0.747233
 30
0.0
 40
0
 41
0
  0
VERTEX
  8
0
 10
1.08171
 20
0.747233
 30
0.0
 40
0
 41
0
  0
VERTEX
  8
0
 10
1.08116
 20
0.747233
 30
0.0
 40
0
 41
0
  0
VERTEX
  8
0
 10
1.08084
 20
0.747233
 30
0.0
 40
0
 41
0
  0
VERTEX
  8
0
 10
1.07992
 20
0.747071
 30
0.0
 40
0
 41
0
  0
VERTEX
  8
0
 10
1.07986
 20
0.747017
 30
0.0
 40
0
 41
0
  0
VERTEX
  8
0
 10
1.07867
 20
0.746311
 30
0.0
 40
0
 41
0
  0
VERTEX
  8
0
 10
1.06809
 20
0.742622
 30
0.0
 40
0
 41
0
  0
VERTEX
  8
0
 10
1.06462
 20
0.742622
 30
0.0
 40
0
 41
0
  0
VERTEX
  8
0
 10
1.06147
 20
0.742622
 30
0.0
 40
0
 41
0
  0
VERTEX
  8
0
 10
1.05203
 20
0.749511
 30
0.0
 40
0
 41
0
  0
VERTEX
  8
0
 10
1.04709
 20
0.761556
 30
0.0
 40
0
 41
0
  0
VERTEX
  8
0
 10
1.04709
 20
0.765571
 30
0.0
 40
0
 41
0
  0
VERTEX
  8
0
 10
1.04709
 20
0.769694
 30
0.0
 40
0
 41
0
  0
VERTEX
  8
0
 10
1.05225
 20
0.78201
 30
0.0
 40
0
 41
0
  0
VERTEX
  8
0
 10
1.06131
 20
0.788574
 30
0.0
 40
0
 41
0
  0
VERTEX
  8
0
 10
1.06434
 20
0.788574
 30
0.0
 40
0
 41
0
  0
VERTEX
  8
0
 10
1.06722
 20
0.788574
 30
0.0
 40
0
 41
0
  0
VERTEX
  8
0
 10
1.07585
 20
0.782769
 30
0.0
 40
0
 41
0
  0
VERTEX
  8
0
 10
1.0816
 20
0.769151
 30
0.0
 40
0
 41
0
  0
VERTEX
  8
0
 10
1.0816
 20
0.764594
 30
0.0
 40
0
 41
0
  0
VERTEX
  8
0
 10
1.0816
 20
0.762478
 30
0.0
 40
0
 41
0
  0
VERTEX
  8
0
 10
1.08095
 20
0.756022
 30
0.0
 40
0
 41
0
  0
VERTEX
  8
0
 10
1.07834
 20
0.752171
 30
0.0
 40
0
 41
0
  0
VERTEX
  8
0
 10
1.07747
 20
0.752171
 30
0.0
 40
0
 41
0
  0
VERTEX
  8
0
 10
1.07699
 20
0.752171
 30
0.0
 40
0
 41
0
  0
VERTEX
  8
0
 10
1.07552
 20
0.756674
 30
0.0
 40
0
 41
0
  0
VERTEX
  8
0
 10
1.07552
 20
0.756674
 30
0.0
 40
0
 41
0
  0
VERTEX
  8
0
 10
1.07552
 20
0.773167
 30
0.0
 40
0
 41
0
  0
SEQEND
 8
0
  0
POLYLINE
  8
0
 62
     0
 66
     1
 10
0
 20
0
 30
0.0
 70
     1
 40
0
 41
0
  0
VERTEX
  8
0
 10
1.07167
 20
0.759765
 30
0.0
 40
0
 41
0
  0
VERTEX
  8
0
 10
1.07167
 20
0.75906
 30
0.0
 40
0
 41
0
  0
VERTEX
  8
0
 10
1.07102
 20
0.757269
 30
0.0
 40
0
 41
0
  0
VERTEX
  8
0
 10
1.07086
 20
0.75689
 30
0.0
 40
0
 41
0
  0
VERTEX
  8
0
 10
1.0702
 20
0.75586
 30
0.0
 40
0
 41
0
  0
VERTEX
  8
0
 10
1.06586
 20
0.752171
 30
0.0
 40
0
 41
0
  0
VERTEX
  8
0
 10
1.06445
 20
0.752171
 30
0.0
 40
0
 41
0
  0
VERTEX
  8
0
 10
1.06261
 20
0.752171
 30
0.0
 40
0
 41
0
  0
VERTEX
  8
0
 10
1.05707
 20
0.762261
 30
0.0
 40
0
 41
0
  0
VERTEX
  8
0
 10
1.05707
 20
0.765571
 30
0.0
 40
0
 41
0
  0
VERTEX
  8
0
 10
1.05707
 20
0.768989
 30
0.0
 40
0
 41
0
  0
VERTEX
  8
0
 10
1.06261
 20
0.779081
 30
0.0
 40
0
 41
0
  0
VERTEX
  8
0
 10
1.06445
 20
0.779081
 30
0.0
 40
0
 41
0
  0
VERTEX
  8
0
 10
1.06608
 20
0.779081
 30
0.0
 40
0
 41
0
  0
VERTEX
  8
0
 10
1.07042
 20
0.775119
 30
0.0
 40
0
 41
0
  0
VERTEX
  8
0
 10
1.07096
 20
0.774143
 30
0.0
 40
0
 41
0
  0
VERTEX
  8
0
 10
1.07113
 20
0.773817
 30
0.0
 40
0
 41
0
  0
VERTEX
  8
0
 10
1.07167
 20
0.772026
 30
0.0
 40
0
 41
0
  0
VERTEX
  8
0
 10
1.07167
 20
0.771431
 30
0.0
 40
0
 41
0
  0
VERTEX
  8
0
 10
1.07167
 20
0.759765
 30
0.0
 40
0
 41
0
  0
SEQEND
 8
0
  0
POLYLINE
  8
0
 62
     0
 66
     1
 10
0
 20
0
 30
0.0
 70
     1
 40
0
 41
0
  0
VERTEX
  8
0
 10
0.899957
 20
0.415474
 30
0.0
 40
0
 41
0
  0
VERTEX
  8
0
 10
0.899957
 20
0.415907
 30
0.0
 40
0
 41
0
  0
VERTEX
  8
0
 10
0.898926
 20
0.417101
 30
0.0
 40
0
 41
0
  0
VERTEX
  8
0
 10
0.8986
 20
0.417101
 30
0.0
 40
0
 41
0
  0
VERTEX
  8
0
 10
0.897624
 20
0.417101
 30
0.0
 40
0
 41
0
  0
VERTEX
  8
0
 10
0.897299
 20
0.417101
 30
0.0
 40
0
 41
0
  0
VERTEX
  8
0
 10
0.896376
 20
0.417535
 30
0.0
 40
0
 41
0
  0
VERTEX
  8
0
 10
0.896322
 20
0.417643
 30
0.0
 40
0
 41
0
  0
VERTEX
  8
0
 10
0.895671
 20
0.418728
 30
0.0
 40
0
 41
0
  0
VERTEX
  8
0
 10
0.890408
 20
0.422906
 30
0.0
 40
0
 41
0
  0
VERTEX
  8
0
 10
0.888672
 20
0.422906
 30
0.0
 40
0
 41
0
  0
VERTEX
  8
0
 10
0.886719
 20
0.422906
 30
0.0
 40
0
 41
0
  0
VERTEX
  8
0
 10
0.880914
 20
0.418674
 30
0.0
 40
0
 41
0
  0
VERTEX
  8
0
 10
0.87755
 20
0.41059
 30
0.0
 40
0
 41
0
  0
VERTEX
  8
0
 10
0.87755
 20
0.407878
 30
0.0
 40
0
 41
0
  0
VERTEX
  8
0
 10
0.87755
 20
0.405219
 30
0.0
 40
0
 41
0
  0
VERTEX
  8
0
 10
0.880914
 20
0.397244
 30
0.0
 40
0
 41
0
  0
VERTEX
  8
0
 10
0.886719
 20
0.392958
 30
0.0
 40
0
 41
0
  0
VERTEX
  8
0
 10
0.888672
 20
0.392958
 30
0.0
 40
0
 41
0
  0
VERTEX
  8
0
 10
0.890517
 20
0.392958
 30
0.0
 40
0
 41
0
  0
VERTEX
  8
0
 10
0.895617
 20
0.397081
 30
0.0
 40
0
 41
0
  0
VERTEX
  8
0
 10
0.89605
 20
0.397786
 30
0.0
 40
0
 41
0
  0
VERTEX
  8
0
 10
0.896212
 20
0.396918
 30
0.0
 40
0
 41
0
  0
VERTEX
  8
0
 10
0.900282
 20
0.392958
 30
0.0
 40
0
 41
0
  0
VERTEX
  8
0
 10
0.901693
 20
0.392958
 30
0.0
 40
0
 41
0
  0
VERTEX
  8
0
 10
0.902832
 20
0.392958
 30
0.0
 40
0
 41
0
  0
VERTEX
  8
0
 10
0.906413
 20
0.397407
 30
0.0
 40
0
 41
0
  0
VERTEX
  8
0
 10
0.907443
 20
0.404893
 30
0.0
 40
0
 41
0
  0
VERTEX
  8
0
 10
0.907443
 20
0.407335
 30
0.0
 40
0
 41
0
  0
VERTEX
  8
0
 10
0.907443
 20
0.412001
 30
0.0
 40
0
 41
0
  0
VERTEX
  8
0
 10
0.901476
 20
0.425944
 30
0.0
 40
0
 41
0
  0
VERTEX
  8
0
 10
0.891928
 20
0.432454
 30
0.0
 40
0
 41
0
  0
VERTEX
  8
0
 10
0.888781
 20
0.432454
 30
0.0
 40
0
 41
0
  0
VERTEX
  8
0
 10
0.885471
 20
0.432454
 30
0.0
 40
0
 41
0
  0
VERTEX
  8
0
 10
0.875543
 20
0.425293
 30
0.0
 40
0
 41
0
  0
VERTEX
  8
0
 10
0.870063
 20
0.412272
 30
0.0
 40
0
 41
0
  0
VERTEX
  8
0
 10
0.870063
 20
0.407878
 30
0.0
 40
0
 41
0
  0
VERTEX
  8
0
 10
0.870063
 20
0.403646
 30
0.0
 40
0
 41
0
  0
VERTEX
  8
0
 10
0.875325
 20
0.390896
 30
0.0
 40
0
 41
0
  0
VERTEX
  8
0
 10
0.885579
 20
0.383464
 30
0.0
 40
0
 41
0
  0
VERTEX
  8
0
 10
0.888997
 20
0.383464
 30
0.0
 40
0
 41
0
  0
VERTEX
  8
0
 10
0.891493
 20
0.383464
 30
0.0
 40
0
 41
0
  0
VERTEX
  8
0
 10
0.898221
 20
0.384657
 30
0.0
 40
0
 41
0
  0
VERTEX
  8
0
 10
0.899143
 20
0.384928
 30
0.0
 40
0
 41
0
  0
VERTEX
  8
0
 10
0.899522
 20
0.385038
 30
0.0
 40
0
 41
0
  0
VERTEX
  8
0
 10
0.907335
 20
0.387858
 30
0.0
 40
0
 41
0
  0
VERTEX
  8
0
 10
0.907335
 20
0.388781
 30
0.0
 40
0
 41
0
  0
VERTEX
  8
0
 10
0.907335
 20
0.388997
 30
0.0
 40
0
 41
0
  0
VERTEX
  8
0
 10
0.906358
 20
0.38954
 30
0.0
 40
0
 41
0
  0
VERTEX
  8
0
 10
0.906087
 20
0.38954
 30
0.0
 40
0
 41
0
  0
VERTEX
  8
0
 10
0.905599
 20
0.38954
 30
0.0
 40
0
 41
0
  0
VERTEX
  8
0
 10
0.905219
 20
0.38954
 30
0.0
 40
0
 41
0
  0
VERTEX
  8
0
 10
0.904297
 20
0.389378
 30
0.0
 40
0
 41
0
  0
VERTEX
  8
0
 10
0.904243
 20
0.389324
 30
0.0
 40
0
 41
0
  0
VERTEX
  8
0
 10
0.903049
 20
0.388672
 30
0.0
 40
0
 41
0
  0
VERTEX
  8
0
 10
0.892469
 20
0.384928
 30
0.0
 40
0
 41
0
  0
VERTEX
  8
0
 10
0.888997
 20
0.384928
 30
0.0
 40
0
 41
0
  0
VERTEX
  8
0
 10
0.885851
 20
0.384928
 30
0.0
 40
0
 41
0
  0
VERTEX
  8
0
 10
0.876411
 20
0.391872
 30
0.0
 40
0
 41
0
  0
VERTEX
  8
0
 10
0.871474
 20
0.403917
 30
0.0
 40
0
 41
0
  0
VERTEX
  8
0
 10
0.871474
 20
0.407878
 30
0.0
 40
0
 41
0
  0
VERTEX
  8
0
 10
0.871474
 20
0.412001
 30
0.0
 40
0
 41
0
  0
VERTEX
  8
0
 10
0.876628
 20
0.424317
 30
0.0
 40
0
 41
0
  0
VERTEX
  8
0
 10
0.885742
 20
0.430935
 30
0.0
 40
0
 41
0
  0
VERTEX
  8
0
 10
0.888781
 20
0.430935
 30
0.0
 40
0
 41
0
  0
VERTEX
  8
0
 10
0.891601
 20
0.430935
 30
0.0
 40
0
 41
0
  0
VERTEX
  8
0
 10
0.900228
 20
0.425131
 30
0.0
 40
0
 41
0
  0
VERTEX
  8
0
 10
0.906033
 20
0.411458
 30
0.0
 40
0
 41
0
  0
VERTEX
  8
0
 10
0.906033
 20
0.406901
 30
0.0
 40
0
 41
0
  0
VERTEX
  8
0
 10
0.906033
 20
0.404785
 30
0.0
 40
0
 41
0
  0
VERTEX
  8
0
 10
0.905328
 20
0.398329
 30
0.0
 40
0
 41
0
  0
VERTEX
  8
0
 10
0.902724
 20
0.394476
 30
0.0
 40
0
 41
0
  0
VERTEX
  8
0
 10
0.901856
 20
0.394476
 30
0.0
 40
0
 41
0
  0
VERTEX
  8
0
 10
0.901367
 20
0.394476
 30
0.0
 40
0
 41
0
  0
VERTEX
  8
0
 10
0.899957
 20
0.398981
 30
0.0
 40
0
 41
0
  0
VERTEX
  8
0
 10
0.899957
 20
0.398981
 30
0.0
 40
0
 41
0
  0
VERTEX
  8
0
 10
0.899957
 20
0.415474
 30
0.0
 40
0
 41
0
  0
SEQEND
 8
0
  0
POLYLINE
  8
0
 62
     0
 66
     1
 10
0
 20
0
 30
0.0
 70
     1
 40
0
 41
0
  0
VERTEX
  8
0
 10
0.89605
 20
0.402072
 30
0.0
 40
0
 41
0
  0
VERTEX
  8
0
 10
0.89605
 20
0.401367
 30
0.0
 40
0
 41
0
  0
VERTEX
  8
0
 10
0.895454
 20
0.399576
 30
0.0
 40
0
 41
0
  0
VERTEX
  8
0
 10
0.89529
 20
0.399197
 30
0.0
 40
0
 41
0
  0
VERTEX
  8
0
 10
0.89464
 20
0.398167
 30
0.0
 40
0
 41
0
  0
VERTEX
  8
0
 10
0.890246
 20
0.394476
 30
0.0
 40
0
 41
0
  0
VERTEX
  8
0
 10
0.888835
 20
0.394476
 30
0.0
 40
0
 41
0
  0
VERTEX
  8
0
 10
0.88699
 20
0.394476
 30
0.0
 40
0
 41
0
  0
VERTEX
  8
0
 10
0.881456
 20
0.404568
 30
0.0
 40
0
 41
0
  0
VERTEX
  8
0
 10
0.881456
 20
0.407878
 30
0.0
 40
0
 41
0
  0
VERTEX
  8
0
 10
0.881456
 20
0.411296
 30
0.0
 40
0
 41
0
  0
VERTEX
  8
0
 10
0.88699
 20
0.421386
 30
0.0
 40
0
 41
0
  0
VERTEX
  8
0
 10
0.888835
 20
0.421386
 30
0.0
 40
0
 41
0
  0
VERTEX
  8
0
 10
0.890462
 20
0.421386
 30
0.0
 40
0
 41
0
  0
VERTEX
  8
0
 10
0.894803
 20
0.417426
 30
0.0
 40
0
 41
0
  0
VERTEX
  8
0
 10
0.895344
 20
0.41645
 30
0.0
 40
0
 41
0
  0
VERTEX
  8
0
 10
0.895508
 20
0.416124
 30
0.0
 40
0
 41
0
  0
VERTEX
  8
0
 10
0.89605
 20
0.414387
 30
0.0
 40
0
 41
0
  0
VERTEX
  8
0
 10
0.89605
 20
0.413792
 30
0.0
 40
0
 41
0
  0
VERTEX
  8
0
 10
0.89605
 20
0.402072
 30
0.0
 40
0
 41
0
  0
SEQEND
 8
0
  0
POLYLINE
  8
0
 62
     0
 66
     1
 10
0
 20
0
 30
0.0
 40
0.173484
 41
0.173484
  0
VERTEX
  8
0
 10
1.06407
 20
0.803982
 30
0.0
 40
0.0024095
 41
0.0024095
  0
VERTEX
  8
0
 10
1.06386
 20
0.817111
 30
0.0
 40
0.0024095
 41
0.0024095
  0
VERTEX
  8
0
 10
1.06321
 20
0.856446
 30
0.0
 40
0.0024095
 41
0.0024095
  0
VERTEX
  8
0
 10
1.06282
 20
0.883356
 30
0.0
 40
0.0024095
 41
0.0024095
  0
VERTEX
  8
0
 10
1.06266
 20
0.893229
 30
0.0
 40
0.0024095
 41
0.0024095
  0
VERTEX
  8
0
 10
1.06266
 20
0.89464
 30
0.0
 40
0.0024095
 41
0.0024095
  0
VERTEX
  8
0
 10
1.06266
 20
0.89464
 30
0.0
 40
0.0024095
 41
0.0024095
  0
SEQEND
 8
0
  0
POLYLINE
  8
0
 62
     0
 66
     1
 10
0
 20
0
 30
0.0
 40
0.188254
 41
0.188254
  0
VERTEX
  8
0
 10
0.884819
 20
0.457844
 30
0.0
 40
0.00261464
 41
0.00261464
  0
VERTEX
  8
0
 10
0.884603
 20
0.470975
 30
0.0
 40
0.00261464
 41
0.00261464
  0
VERTEX
  8
0
 10
0.883951
 20
0.510254
 30
0.0
 40
0.00261464
 41
0.00261464
  0
VERTEX
  8
0
 10
0.883518
 20
0.537164
 30
0.0
 40
0.00261464
 41
0.00261464
  0
VERTEX
  8
0
 10
0.883356
 20
0.547037
 30
0.0
 40
0.00261464
 41
0.00261464
  0
VERTEX
  8
0
 10
0.883356
 20
0.548449
 30
0.0
 40
0.00261464
 41
0.00261464
  0
VERTEX
  8
0
 10
0.883356
 20
0.548449
 30
0.0
 40
0.00261464
 41
0.00261464
  0
SEQEND
 8
0
  0
POLYLINE
  8
0
 62
     0
 66
     1
 10
0
 20
0
 30
0.0
 40
0.188254
 41
0.188254
  0
VERTEX
  8
0
 10
1.0402
 20
0.738986
 30
0.0
 40
0.00261464
 41
0.00261464
  0
VERTEX
  8
0
 10
1.03423
 20
0.736111
 30
0.0
 40
0.00261464
 41
0.00261464
  0
VERTEX
  8
0
 10
0.975424
 20
0.701768
 30
0.0
 40
0.00261464
 41
0.00261464
  0
VERTEX
  8
0
 10
0.969781
 20
0.696994
 30
0.0
 40
0.00261464
 41
0.00261464
  0
VERTEX
  8
0
 10
0.964139
 20
0.692275
 30
0.0
 40
0.00261464
 41
0.00261464
  0
VERTEX
  8
0
 10
0.909993
 20
0.632053
 30
0.0
 40
0.00261464
 41
0.00261464
  0
VERTEX
  8
0
 10
0.904676
 20
0.625435
 30
0.0
 40
0.00261464
 41
0.00261464
  0
SEQEND
 8
0
  0
POLYLINE
  8
0
 62
     0
 66
     1
 10
0
 20
0
 30
0.0
 40
0.188254
 41
0.188254
  0
VERTEX
  8
0
 10
0.879178
 20
0.373264
 30
0.0
 40
0.00261464
 41
0.00261464
  0
VERTEX
  8
0
 10
0.873699
 20
0.36735
 30
0.0
 40
0.00261464
 41
0.00261464
  0
VERTEX
  8
0
 10
0.823406
 20
0.307781
 30
0.0
 40
0.00261464
 41
0.00261464
  0
VERTEX
  8
0
 10
0.81939
 20
0.301758
 30
0.0
 40
0.00261464
 41
0.00261464
  0
VERTEX
  8
0
 10
0.815321
 20
0.295736
 30
0.0
 40
0.00261464
 41
0.00261464
  0
VERTEX
  8
0
 10
0.784614
 20
0.235081
 30
0.0
 40
0.00261464
 41
0.00261464
  0
VERTEX
  8
0
 10
0.781956
 20
0.22895
 30
0.0
 40
0.00261464
 41
0.00261464
  0
SEQEND
 8
0
  0
POLYLINE
  8
0
 62
     0
 66
     1
 10
0
 20
0
 30
0.0
 40
0.188254
 41
0.188254
  0
VERTEX
  8
0
 10
0.906304
 20
0.373264
 30
0.0
 40
0.00261464
 41
0.00261464
  0
VERTEX
  8
0
 10
0.911458
 20
0.368164
 30
0.0
 40
0.00261464
 41
0.00261464
  0
VERTEX
  8
0
 10
0.95969
 20
0.314182
 30
0.0
 40
0.00261464
 41
0.00261464
  0
VERTEX
  8
0
 10
0.963704
 20
0.30816
 30
0.0
 40
0.00261464
 41
0.00261464
  0
VERTEX
  8
0
 10
0.967665
 20
0.302192
 30
0.0
 40
0.00261464
 41
0.00261464
  0
VERTEX
  8
0
 10
0.999132
 20
0.23584
 30
0.0
 40
0.00261464
 41
0.00261464
  0
VERTEX
  8
0
 10
1.00195
 20
0.22895
 30
0.0
 40
0.00261464
 41
0.00261464
  0
SEQEND
 8
0
  0
POLYLINE
  8
0
 62
     0
 66
     1
 10
0
 20
0
 30
0.0
 70
     1
 40
0
 41
0
  0
VERTEX
  8
0
 10
0.777453
 20
0.197971
 30
0.0
 40
0
 41
0
  0
VERTEX
  8
0
 10
0.777507
 20
0.198406
 30
0.0
 40
0
 41
0
  0
VERTEX
  8
0
 10
0.781629
 20
0.205946
 30
0.0
 40
0
 41
0
  0
VERTEX
  8
0
 10
0.78304
 20
0.205946
 30
0.0
 40
0
 41
0
  0
VERTEX
  8
0
 10
0.783746
 20
0.205946
 30
0.0
 40
0
 41
0
  0
VERTEX
  8
0
 10
0.785536
 20
0.20535
 30
0.0
 40
0
 41
0
  0
VERTEX
  8
0
 10
0.785861
 20
0.205132
 30
0.0
 40
0
 41
0
  0
VERTEX
  8
0
 10
0.785428
 20
0.205024
 30
0.0
 40
0
 41
0
  0
VERTEX
  8
0
 10
0.783203
 20
0.202311
 30
0.0
 40
0
 41
0
  0
VERTEX
  8
0
 10
0.783203
 20
0.201389
 30
0.0
 40
0
 41
0
  0
VERTEX
  8
0
 10
0.783203
 20
0.200846
 30
0.0
 40
0
 41
0
  0
VERTEX
  8
0
 10
0.784776
 20
0.199056
 30
0.0
 40
0
 41
0
  0
VERTEX
  8
0
 10
0.785319
 20
0.199056
 30
0.0
 40
0
 41
0
  0
VERTEX
  8
0
 10
0.786025
 20
0.199056
 30
0.0
 40
0
 41
0
  0
VERTEX
  8
0
 10
0.788303
 20
0.201986
 30
0.0
 40
0
 41
0
  0
VERTEX
  8
0
 10
0.788303
 20
0.202963
 30
0.0
 40
0
 41
0
  0
VERTEX
  8
0
 10
0.788303
 20
0.204101
 30
0.0
 40
0
 41
0
  0
VERTEX
  8
0
 10
0.784397
 20
0.207465
 30
0.0
 40
0
 41
0
  0
VERTEX
  8
0
 10
0.783094
 20
0.207465
 30
0.0
 40
0
 41
0
  0
VERTEX
  8
0
 10
0.781575
 20
0.207465
 30
0.0
 40
0
 41
0
  0
VERTEX
  8
0
 10
0.777344
 20
0.202746
 30
0.0
 40
0
 41
0
  0
VERTEX
  8
0
 10
0.777181
 20
0.202365
 30
0.0
 40
0
 41
0
  0
VERTEX
  8
0
 10
0.776801
 20
0.203504
 30
0.0
 40
0
 41
0
  0
VERTEX
  8
0
 10
0.772515
 20
0.207465
 30
0.0
 40
0
 41
0
  0
VERTEX
  8
0
 10
0.771104
 20
0.207465
 30
0.0
 40
0
 41
0
  0
VERTEX
  8
0
 10
0.769368
 20
0.207465
 30
0.0
 40
0
 41
0
  0
VERTEX
  8
0
 10
0.764324
 20
0.202908
 30
0.0
 40
0
 41
0
  0
VERTEX
  8
0
 10
0.76199
 20
0.198514
 30
0.0
 40
0
 41
0
  0
VERTEX
  8
0
 10
0.76199
 20
0.196994
 30
0.0
 40
0
 41
0
  0
VERTEX
  8
0
 10
0.76199
 20
0.196832
 30
0.0
 40
0
 41
0
  0
VERTEX
  8
0
 10
0.762478
 20
0.196235
 30
0.0
 40
0
 41
0
  0
VERTEX
  8
0
 10
0.762696
 20
0.196235
 30
0.0
 40
0
 41
0
  0
VERTEX
  8
0
 10
0.762858
 20
0.196235
 30
0.0
 40
0
 41
0
  0
VERTEX
  8
0
 10
0.763346
 20
0.196886
 30
0.0
 40
0
 41
0
  0
VERTEX
  8
0
 10
0.7634
 20
0.196994
 30
0.0
 40
0
 41
0
  0
VERTEX
  8
0
 10
0.763889
 20
0.198839
 30
0.0
 40
0
 41
0
  0
VERTEX
  8
0
 10
0.769206
 20
0.205946
 30
0.0
 40
0
 41
0
  0
VERTEX
  8
0
 10
0.770996
 20
0.205946
 30
0.0
 40
0
 41
0
  0
VERTEX
  8
0
 10
0.771701
 20
0.205946
 30
0.0
 40
0
 41
0
  0
VERTEX
  8
0
 10
0.773981
 20
0.202528
 30
0.0
 40
0
 41
0
  0
VERTEX
  8
0
 10
0.773981
 20
0.201389
 30
0.0
 40
0
 41
0
  0
VERTEX
  8
0
 10
0.773981
 20
0.197374
 30
0.0
 40
0
 41
0
  0
VERTEX
  8
0
 10
0.771485
 20
0.187608
 30
0.0
 40
0
 41
0
  0
VERTEX
  8
0
 10
0.770996
 20
0.185167
 30
0.0
 40
0
 41
0
  0
VERTEX
  8
0
 10
0.770779
 20
0.184136
 30
0.0
 40
0
 41
0
  0
VERTEX
  8
0
 10
0.766872
 20
0.178114
 30
0.0
 40
0
 41
0
  0
VERTEX
  8
0
 10
0.765571
 20
0.178114
 30
0.0
 40
0
 41
0
  0
VERTEX
  8
0
 10
0.764865
 20
0.178114
 30
0.0
 40
0
 41
0
  0
VERTEX
  8
0
 10
0.763021
 20
0.178765
 30
0.0
 40
0
 41
0
  0
VERTEX
  8
0
 10
0.76275
 20
0.178982
 30
0.0
 40
0
 41
0
  0
VERTEX
  8
0
 10
0.763075
 20
0.17909
 30
0.0
 40
0
 41
0
  0
VERTEX
  8
0
 10
0.765408
 20
0.181803
 30
0.0
 40
0
 41
0
  0
VERTEX
  8
0
 10
0.765408
 20
0.182671
 30
0.0
 40
0
 41
0
  0
VERTEX
  8
0
 10
0.765408
 20
0.183268
 30
0.0
 40
0
 41
0
  0
VERTEX
  8
0
 10
0.763889
 20
0.185058
 30
0.0
 40
0
 41
0
  0
VERTEX
  8
0
 10
0.7634
 20
0.185058
 30
0.0
 40
0
 41
0
  0
VERTEX
  8
0
 10
0.762588
 20
0.185058
 30
0.0
 40
0
 41
0
  0
VERTEX
  8
0
 10
0.760308
 20
0.182129
 30
0.0
 40
0
 41
0
  0
VERTEX
  8
0
 10
0.760308
 20
0.181099
 30
0.0
 40
0
 41
0
  0
VERTEX
  8
0
 10
0.760308
 20
0.180013
 30
0.0
 40
0
 41
0
  0
VERTEX
  8
0
 10
0.764214
 20
0.176594
 30
0.0
 40
0
 41
0
  0
VERTEX
  8
0
 10
0.765517
 20
0.176594
 30
0.0
 40
0
 41
0
  0
VERTEX
  8
0
 10
0.766982
 20
0.176594
 30
0.0
 40
0
 41
0
  0
VERTEX
  8
0
 10
0.771376
 20
0.181694
 30
0.0
 40
0
 41
0
  0
VERTEX
  8
0
 10
0.771431
 20
0.181749
 30
0.0
 40
0
 41
0
  0
VERTEX
  8
0
 10
0.771593
 20
0.181153
 30
0.0
 40
0
 41
0
  0
VERTEX
  8
0
 10
0.775988
 20
0.176594
 30
0.0
 40
0
 41
0
  0
VERTEX
  8
0
 10
0.777507
 20
0.176594
 30
0.0
 40
0
 41
0
  0
VERTEX
  8
0
 10
0.779189
 20
0.176594
 30
0.0
 40
0
 41
0
  0
VERTEX
  8
0
 10
0.784233
 20
0.181207
 30
0.0
 40
0
 41
0
  0
VERTEX
  8
0
 10
0.786567
 20
0.185601
 30
0.0
 40
0
 41
0
  0
VERTEX
  8
0
 10
0.786567
 20
0.187067
 30
0.0
 40
0
 41
0
  0
VERTEX
  8
0
 10
0.786567
 20
0.187283
 30
0.0
 40
0
 41
0
  0
VERTEX
  8
0
 10
0.786079
 20
0.187825
 30
0.0
 40
0
 41
0
  0
VERTEX
  8
0
 10
0.785915
 20
0.187825
 30
0.0
 40
0
 41
0
  0
VERTEX
  8
0
 10
0.785699
 20
0.187825
 30
0.0
 40
0
 41
0
  0
VERTEX
  8
0
 10
0.785157
 20
0.187175
 30
0.0
 40
0
 41
0
  0
VERTEX
  8
0
 10
0.785157
 20
0.187067
 30
0.0
 40
0
 41
0
  0
VERTEX
  8
0
 10
0.784668
 20
0.185221
 30
0.0
 40
0
 41
0
  0
VERTEX
  8
0
 10
0.777724
 20
0.178114
 30
0.0
 40
0
 41
0
  0
VERTEX
  8
0
 10
0.777724
 20
0.178114
 30
0.0
 40
0
 41
0
  0
VERTEX
  8
0
 10
0.77691
 20
0.178114
 30
0.0
 40
0
 41
0
  0
VERTEX
  8
0
 10
0.774631
 20
0.181478
 30
0.0
 40
0
 41
0
  0
VERTEX
  8
0
 10
0.774631
 20
0.182562
 30
0.0
 40
0
 41
0
  0
VERTEX
  8
0
 10
0.774631
 20
0.182562
 30
0.0
 40
0
 41
0
  0
VERTEX
  8
0
 10
0.775336
 20
0.187879
 30
0.0
 40
0
 41
0
  0
VERTEX
  8
0
 10
0.775499
 20
0.188585
 30
0.0
 40
0
 41
0
  0
VERTEX
  8
0
 10
0.777453
 20
0.197971
 30
0.0
 40
0
 41
0
  0
SEQEND
 8
0
  0
POLYLINE
  8
0
 62
     1
 66
     1
 10
0
 20
0
 30
0.0
 70
     1
 40
0
 41
0
  0
VERTEX
  8
0
 10
1.00071
 20
0.0465494
 30
0.0
 40
0
 41
0
  0
VERTEX
  8
0
 10
1.00076
 20
0.0469835
 30
0.0
 40
0
 41
0
  0
VERTEX
  8
0
 10
1.00488
 20
0.0545247
 30
0.0
 40
0
 41
0
  0
VERTEX
  8
0
 10
1.00629
 20
0.0545247
 30
0.0
 40
0
 41
0
  0
VERTEX
  8
0
 10
1.007
 20
0.0545247
 30
0.0
 40
0
 41
0
  0
VERTEX
  8
0
 10
1.00879
 20
0.0539279
 30
0.0
 40
0
 41
0
  0
VERTEX
  8
0
 10
1.00912
 20
0.053711
 30
0.0
 40
0
 41
0
  0
VERTEX
  8
0
 10
1.00868
 20
0.0536025
 30
0.0
 40
0
 41
0
  0
VERTEX
  8
0
 10
1.00646
 20
0.0508897
 30
0.0
 40
0
 41
0
  0
VERTEX
  8
0
 10
1.00646
 20
0.0499675
 30
0.0
 40
0
 41
0
  0
VERTEX
  8
0
 10
1.00646
 20
0.0494249
 30
0.0
 40
0
 41
0
  0
VERTEX
  8
0
 10
1.00803
 20
0.0476346
 30
0.0
 40
0
 41
0
  0
VERTEX
  8
0
 10
1.00857
 20
0.0476346
 30
0.0
 40
0
 41
0
  0
VERTEX
  8
0
 10
1.00933
 20
0.0476346
 30
0.0
 40
0
 41
0
  0
VERTEX
  8
0
 10
1.01161
 20
0.0505643
 30
0.0
 40
0
 41
0
  0
VERTEX
  8
0
 10
1.01161
 20
0.0515408
 30
0.0
 40
0
 41
0
  0
VERTEX
  8
0
 10
1.01161
 20
0.0526801
 30
0.0
 40
0
 41
0
  0
VERTEX
  8
0
 10
1.00765
 20
0.0560439
 30
0.0
 40
0
 41
0
  0
VERTEX
  8
0
 10
1.00635
 20
0.0560439
 30
0.0
 40
0
 41
0
  0
VERTEX
  8
0
 10
1.00483
 20
0.0560439
 30
0.0
 40
0
 41
0
  0
VERTEX
  8
0
 10
1.0006
 20
0.0513238
 30
0.0
 40
0
 41
0
  0
VERTEX
  8
0
 10
1.00043
 20
0.050944
 30
0.0
 40
0
 41
0
  0
VERTEX
  8
0
 10
1.00005
 20
0.0520833
 30
0.0
 40
0
 41
0
  0
VERTEX
  8
0
 10
0.995768
 20
0.0560439
 30
0.0
 40
0
 41
0
  0
VERTEX
  8
0
 10
0.994358
 20
0.0560439
 30
0.0
 40
0
 41
0
  0
VERTEX
  8
0
 10
0.992622
 20
0.0560439
 30
0.0
 40
0
 41
0
  0
VERTEX
  8
0
 10
0.987576
 20
0.0514865
 30
0.0
 40
0
 41
0
  0
VERTEX
  8
0
 10
0.985243
 20
0.0470921
 30
0.0
 40
0
 41
0
  0
VERTEX
  8
0
 10
0.985243
 20
0.0455729
 30
0.0
 40
0
 41
0
  0
VERTEX
  8
0
 10
0.985243
 20
0.0454101
 30
0.0
 40
0
 41
0
  0
VERTEX
  8
0
 10
0.985732
 20
0.0448133
 30
0.0
 40
0
 41
0
  0
VERTEX
  8
0
 10
0.985949
 20
0.0448133
 30
0.0
 40
0
 41
0
  0
VERTEX
  8
0
 10
0.986111
 20
0.0448133
 30
0.0
 40
0
 41
0
  0
VERTEX
  8
0
 10
0.9866
 20
0.0454644
 30
0.0
 40
0
 41
0
  0
VERTEX
  8
0
 10
0.986654
 20
0.0455729
 30
0.0
 40
0
 41
0
  0
VERTEX
  8
0
 10
0.987142
 20
0.0474175
 30
0.0
 40
0
 41
0
  0
VERTEX
  8
0
 10
0.992458
 20
0.0545247
 30
0.0
 40
0
 41
0
  0
VERTEX
  8
0
 10
0.994249
 20
0.0545247
 30
0.0
 40
0
 41
0
  0
VERTEX
  8
0
 10
0.995008
 20
0.0545247
 30
0.0
 40
0
 41
0
  0
VERTEX
  8
0
 10
0.997288
 20
0.0511068
 30
0.0
 40
0
 41
0
  0
VERTEX
  8
0
 10
0.997288
 20
0.0499675
 30
0.0
 40
0
 41
0
  0
VERTEX
  8
0
 10
0.997288
 20
0.0459526
 30
0.0
 40
0
 41
0
  0
VERTEX
  8
0
 10
0.994738
 20
0.0361871
 30
0.0
 40
0
 41
0
  0
VERTEX
  8
0
 10
0.994249
 20
0.0337457
 30
0.0
 40
0
 41
0
  0
VERTEX
  8
0
 10
0.994032
 20
0.0327149
 30
0.0
 40
0
 41
0
  0
VERTEX
  8
0
 10
0.990126
 20
0.0266928
 30
0.0
 40
0
 41
0
  0
VERTEX
  8
0
 10
0.988878
 20
0.0266928
 30
0.0
 40
0
 41
0
  0
VERTEX
  8
0
 10
0.988172
 20
0.0266928
 30
0.0
 40
0
 41
0
  0
VERTEX
  8
0
 10
0.986328
 20
0.0273438
 30
0.0
 40
0
 41
0
  0
VERTEX
  8
0
 10
0.986057
 20
0.0275608
 30
0.0
 40
0
 41
0
  0
VERTEX
  8
0
 10
0.986382
 20
0.0276693
 30
0.0
 40
0
 41
0
  0
VERTEX
  8
0
 10
0.988661
 20
0.0303819
 30
0.0
 40
0
 41
0
  0
VERTEX
  8
0
 10
0.988661
 20
0.03125
 30
0.0
 40
0
 41
0
  0
VERTEX
  8
0
 10
0.988661
 20
0.0318468
 30
0.0
 40
0
 41
0
  0
VERTEX
  8
0
 10
0.987142
 20
0.0336372
 30
0.0
 40
0
 41
0
  0
VERTEX
  8
0
 10
0.986654
 20
0.0336372
 30
0.0
 40
0
 41
0
  0
VERTEX
  8
0
 10
0.98584
 20
0.0336372
 30
0.0
 40
0
 41
0
  0
VERTEX
  8
0
 10
0.983561
 20
0.0307075
 30
0.0
 40
0
 41
0
  0
VERTEX
  8
0
 10
0.983561
 20
0.0296767
 30
0.0
 40
0
 41
0
  0
VERTEX
  8
0
 10
0.983561
 20
0.0285915
 30
0.0
 40
0
 41
0
  0
VERTEX
  8
0
 10
0.987468
 20
0.0251736
 30
0.0
 40
0
 41
0
  0
VERTEX
  8
0
 10
0.988769
 20
0.0251736
 30
0.0
 40
0
 41
0
  0
VERTEX
  8
0
 10
0.990235
 20
0.0251736
 30
0.0
 40
0
 41
0
  0
VERTEX
  8
0
 10
0.994629
 20
0.0302735
 30
0.0
 40
0
 41
0
  0
VERTEX
  8
0
 10
0.994683
 20
0.0303276
 30
0.0
 40
0
 41
0
  0
VERTEX
  8
0
 10
0.994846
 20
0.029731
 30
0.0
 40
0
 41
0
  0
VERTEX
  8
0
 10
0.999295
 20
0.0251736
 30
0.0
 40
0
 41
0
  0
VERTEX
  8
0
 10
1.00081
 20
0.0251736
 30
0.0
 40
0
 41
0
  0
VERTEX
  8
0
 10
1.00244
 20
0.0251736
 30
0.0
 40
0
 41
0
  0
VERTEX
  8
0
 10
1.00749
 20
0.0297851
 30
0.0
 40
0
 41
0
  0
VERTEX
  8
0
 10
1.00982
 20
0.0341797
 30
0.0
 40
0
 41
0
  0
VERTEX
  8
0
 10
1.00982
 20
0.0356446
 30
0.0
 40
0
 41
0
  0
VERTEX
  8
0
 10
1.00982
 20
0.0358615
 30
0.0
 40
0
 41
0
  0
VERTEX
  8
0
 10
1.00933
 20
0.036404
 30
0.0
 40
0
 41
0
  0
VERTEX
  8
0
 10
1.00922
 20
0.036404
 30
0.0
 40
0
 41
0
  0
VERTEX
  8
0
 10
1.00901
 20
0.036404
 30
0.0
 40
0
 41
0
  0
VERTEX
  8
0
 10
1.00841
 20
0.0357531
 30
0.0
 40
0
 41
0
  0
VERTEX
  8
0
 10
1.00841
 20
0.0356446
 30
0.0
 40
0
 41
0
  0
VERTEX
  8
0
 10
1.00792
 20
0.0337999
 30
0.0
 40
0
 41
0
  0
VERTEX
  8
0
 10
1.00271
 20
0.0266928
 30
0.0
 40
0
 41
0
  0
VERTEX
  8
0
 10
1.00098
 20
0.0266928
 30
0.0
 40
0
 41
0
  0
VERTEX
  8
0
 10
1.00016
 20
0.0266928
 30
0.0
 40
0
 41
0
  0
VERTEX
  8
0
 10
0.997885
 20
0.0300564
 30
0.0
 40
0
 41
0
  0
VERTEX
  8
0
 10
0.997885
 20
0.0311415
 30
0.0
 40
0
 41
0
  0
VERTEX
  8
0
 10
0.997885
 20
0.0311415
 30
0.0
 40
0
 41
0
  0
VERTEX
  8
0
 10
0.998589
 20
0.0364583
 30
0.0
 40
0
 41
0
  0
VERTEX
  8
0
 10
0.998753
 20
0.0371636
 30
0.0
 40
0
 41
0
  0
VERTEX
  8
0
 10
1.00071
 20
0.0465494
 30
0.0
 40
0
 41
0
  0
SEQEND
 8
0
  0
POLYLINE
  8
0
 62
     1
 66
     1
 10
0
 20
0
 30
0.0
 70
     1
 40
0
 41
0
  0
VERTEX
  8
0
 10
1.02729
 20
0.0460613
 30
0.0
 40
0
 41
0
  0
VERTEX
  8
0
 10
1.02729
 20
0.0463867
 30
0.0
 40
0
 41
0
  0
VERTEX
  8
0
 10
1.02642
 20
0.047309
 30
0.0
 40
0
 41
0
  0
VERTEX
  8
0
 10
1.02615
 20
0.047309
 30
0.0
 40
0
 41
0
  0
VERTEX
  8
0
 10
1.0255
 20
0.0466037
 30
0.0
 40
0
 41
0
  0
VERTEX
  8
0
 10
1.02018
 20
0.0443251
 30
0.0
 40
0
 41
0
  0
VERTEX
  8
0
 10
1.01845
 20
0.0443251
 30
0.0
 40
0
 41
0
  0
VERTEX
  8
0
 10
1.01845
 20
0.0426432
 30
0.0
 40
0
 41
0
  0
VERTEX
  8
0
 10
1.01986
 20
0.0426432
 30
0.0
 40
0
 41
0
  0
VERTEX
  8
0
 10
1.02355
 20
0.0436199
 30
0.0
 40
0
 41
0
  0
VERTEX
  8
0
 10
1.02409
 20
0.0438911
 30
0.0
 40
0
 41
0
  0
VERTEX
  8
0
 10
1.02409
 20
0.019694
 30
0.0
 40
0
 41
0
  0
VERTEX
  8
0
 10
1.02409
 20
0.0191515
 30
0.0
 40
0
 41
0
  0
VERTEX
  8
0
 10
1.02116
 20
0.0174154
 30
0.0
 40
0
 41
0
  0
VERTEX
  8
0
 10
1.02018
 20
0.0174154
 30
0.0
 40
0
 41
0
  0
VERTEX
  8
0
 10
1.01872
 20
0.0174154
 30
0.0
 40
0
 41
0
  0
VERTEX
  8
0
 10
1.01872
 20
0.0157335
 30
0.0
 40
0
 41
0
  0
VERTEX
  8
0
 10
1.02045
 20
0.0157335
 30
0.0
 40
0
 41
0
  0
VERTEX
  8
0
 10
1.02436
 20
0.0159506
 30
0.0
 40
0
 41
0
  0
VERTEX
  8
0
 10
1.02566
 20
0.0159506
 30
0.0
 40
0
 41
0
  0
VERTEX
  8
0
 10
1.0274
 20
0.0159506
 30
0.0
 40
0
 41
0
  0
VERTEX
  8
0
 10
1.03141
 20
0.0157335
 30
0.0
 40
0
 41
0
  0
VERTEX
  8
0
 10
1.03277
 20
0.0157335
 30
0.0
 40
0
 41
0
  0
VERTEX
  8
0
 10
1.03277
 20
0.0174154
 30
0.0
 40
0
 41
0
  0
VERTEX
  8
0
 10
1.03125
 20
0.0174154
 30
0.0
 40
0
 41
0
  0
VERTEX
  8
0
 10
1.03022
 20
0.0174154
 30
0.0
 40
0
 41
0
  0
VERTEX
  8
0
 10
1.02729
 20
0.0191515
 30
0.0
 40
0
 41
0
  0
VERTEX
  8
0
 10
1.02729
 20
0.019694
 30
0.0
 40
0
 41
0
  0
VERTEX
  8
0
 10
1.02729
 20
0.0460613
 30
0.0
 40
0
 41
0
  0
SEQEND
 8
0
  0
POLYLINE
  8
0
 62
     1
 66
     1
 10
0
 20
0
 30
0.0
 70
     1
 40
0
 41
0
  0
VERTEX
  8
0
 10
1.2576
 20
0.0446506
 30
0.0
 40
0
 41
0
  0
VERTEX
  8
0
 10
1.25765
 20
0.0450846
 30
0.0
 40
0
 41
0
  0
VERTEX
  8
0
 10
1.26177
 20
0.0526801
 30
0.0
 40
0
 41
0
  0
VERTEX
  8
0
 10
1.26318
 20
0.0526801
 30
0.0
 40
0
 41
0
  0
VERTEX
  8
0
 10
1.26389
 20
0.0526801
 30
0.0
 40
0
 41
0
  0
VERTEX
  8
0
 10
1.26568
 20
0.052029
 30
0.0
 40
0
 41
0
  0
VERTEX
  8
0
 10
1.266
 20
0.0518121
 30
0.0
 40
0
 41
0
  0
VERTEX
  8
0
 10
1.26557
 20
0.0517036
 30
0.0
 40
0
 41
0
  0
VERTEX
  8
0
 10
1.26335
 20
0.0489908
 30
0.0
 40
0
 41
0
  0
VERTEX
  8
0
 10
1.26335
 20
0.0480686
 30
0.0
 40
0
 41
0
  0
VERTEX
  8
0
 10
1.26335
 20
0.0475261
 30
0.0
 40
0
 41
0
  0
VERTEX
  8
0
 10
1.26497
 20
0.0457357
 30
0.0
 40
0
 41
0
  0
VERTEX
  8
0
 10
1.26552
 20
0.0457357
 30
0.0
 40
0
 41
0
  0
VERTEX
  8
0
 10
1.26622
 20
0.0457357
 30
0.0
 40
0
 41
0
  0
VERTEX
  8
0
 10
1.2685
 20
0.0487196
 30
0.0
 40
0
 41
0
  0
VERTEX
  8
0
 10
1.2685
 20
0.0496963
 30
0.0
 40
0
 41
0
  0
VERTEX
  8
0
 10
1.2685
 20
0.0508356
 30
0.0
 40
0
 41
0
  0
VERTEX
  8
0
 10
1.26459
 20
0.054145
 30
0.0
 40
0
 41
0
  0
VERTEX
  8
0
 10
1.26329
 20
0.054145
 30
0.0
 40
0
 41
0
  0
VERTEX
  8
0
 10
1.26177
 20
0.054145
 30
0.0
 40
0
 41
0
  0
VERTEX
  8
0
 10
1.25754
 20
0.0494249
 30
0.0
 40
0
 41
0
  0
VERTEX
  8
0
 10
1.25738
 20
0.0490451
 30
0.0
 40
0
 41
0
  0
VERTEX
  8
0
 10
1.257
 20
0.0501844
 30
0.0
 40
0
 41
0
  0
VERTEX
  8
0
 10
1.25266
 20
0.054145
 30
0.0
 40
0
 41
0
  0
VERTEX
  8
0
 10
1.25125
 20
0.054145
 30
0.0
 40
0
 41
0
  0
VERTEX
  8
0
 10
1.24951
 20
0.054145
 30
0.0
 40
0
 41
0
  0
VERTEX
  8
0
 10
1.24447
 20
0.0495876
 30
0.0
 40
0
 41
0
  0
VERTEX
  8
0
 10
1.24213
 20
0.0451932
 30
0.0
 40
0
 41
0
  0
VERTEX
  8
0
 10
1.24213
 20
0.0437283
 30
0.0
 40
0
 41
0
  0
VERTEX
  8
0
 10
1.24213
 20
0.0435656
 30
0.0
 40
0
 41
0
  0
VERTEX
  8
0
 10
1.24262
 20
0.0429688
 30
0.0
 40
0
 41
0
  0
VERTEX
  8
0
 10
1.24284
 20
0.0429688
 30
0.0
 40
0
 41
0
  0
VERTEX
  8
0
 10
1.243
 20
0.0429688
 30
0.0
 40
0
 41
0
  0
VERTEX
  8
0
 10
1.24349
 20
0.0436199
 30
0.0
 40
0
 41
0
  0
VERTEX
  8
0
 10
1.24354
 20
0.0437283
 30
0.0
 40
0
 41
0
  0
VERTEX
  8
0
 10
1.24403
 20
0.0455729
 30
0.0
 40
0
 41
0
  0
VERTEX
  8
0
 10
1.2494
 20
0.0526801
 30
0.0
 40
0
 41
0
  0
VERTEX
  8
0
 10
1.25119
 20
0.0526801
 30
0.0
 40
0
 41
0
  0
VERTEX
  8
0
 10
1.2519
 20
0.0526801
 30
0.0
 40
0
 41
0
  0
VERTEX
  8
0
 10
1.25418
 20
0.0492622
 30
0.0
 40
0
 41
0
  0
VERTEX
  8
0
 10
1.25418
 20
0.0480686
 30
0.0
 40
0
 41
0
  0
VERTEX
  8
0
 10
1.25418
 20
0.0440539
 30
0.0
 40
0
 41
0
  0
VERTEX
  8
0
 10
1.25168
 20
0.0342882
 30
0.0
 40
0
 41
0
  0
VERTEX
  8
0
 10
1.25119
 20
0.0318468
 30
0.0
 40
0
 41
0
  0
VERTEX
  8
0
 10
1.25092
 20
0.030816
 30
0.0
 40
0
 41
0
  0
VERTEX
  8
0
 10
1.24702
 20
0.0247939
 30
0.0
 40
0
 41
0
  0
VERTEX
  8
0
 10
1.24577
 20
0.0247939
 30
0.0
 40
0
 41
0
  0
VERTEX
  8
0
 10
1.24506
 20
0.0247939
 30
0.0
 40
0
 41
0
  0
VERTEX
  8
0
 10
1.24322
 20
0.0254449
 30
0.0
 40
0
 41
0
  0
VERTEX
  8
0
 10
1.24295
 20
0.0256619
 30
0.0
 40
0
 41
0
  0
VERTEX
  8
0
 10
1.24327
 20
0.0257704
 30
0.0
 40
0
 41
0
  0
VERTEX
  8
0
 10
1.24561
 20
0.0285374
 30
0.0
 40
0
 41
0
  0
VERTEX
  8
0
 10
1.24561
 20
0.0294054
 30
0.0
 40
0
 41
0
  0
VERTEX
  8
0
 10
1.24561
 20
0.0300022
 30
0.0
 40
0
 41
0
  0
VERTEX
  8
0
 10
1.24403
 20
0.0317383
 30
0.0
 40
0
 41
0
  0
VERTEX
  8
0
 10
1.24354
 20
0.0317383
 30
0.0
 40
0
 41
0
  0
VERTEX
  8
0
 10
1.24273
 20
0.0317383
 30
0.0
 40
0
 41
0
  0
VERTEX
  8
0
 10
1.24045
 20
0.0288086
 30
0.0
 40
0
 41
0
  0
VERTEX
  8
0
 10
1.24045
 20
0.0277778
 30
0.0
 40
0
 41
0
  0
VERTEX
  8
0
 10
1.24045
 20
0.0266928
 30
0.0
 40
0
 41
0
  0
VERTEX
  8
0
 10
1.24436
 20
0.023329
 30
0.0
 40
0
 41
0
  0
VERTEX
  8
0
 10
1.24566
 20
0.023329
 30
0.0
 40
0
 41
0
  0
VERTEX
  8
0
 10
1.24712
 20
0.023329
 30
0.0
 40
0
 41
0
  0
VERTEX
  8
0
 10
1.25157
 20
0.0283746
 30
0.0
 40
0
 41
0
  0
VERTEX
  8
0
 10
1.25163
 20
0.0284289
 30
0.0
 40
0
 41
0
  0
VERTEX
  8
0
 10
1.25179
 20
0.0278321
 30
0.0
 40
0
 41
0
  0
VERTEX
  8
0
 10
1.25618
 20
0.023329
 30
0.0
 40
0
 41
0
  0
VERTEX
  8
0
 10
1.2577
 20
0.023329
 30
0.0
 40
0
 41
0
  0
VERTEX
  8
0
 10
1.25933
 20
0.023329
 30
0.0
 40
0
 41
0
  0
VERTEX
  8
0
 10
1.26438
 20
0.0279406
 30
0.0
 40
0
 41
0
  0
VERTEX
  8
0
 10
1.26671
 20
0.0323351
 30
0.0
 40
0
 41
0
  0
VERTEX
  8
0
 10
1.26671
 20
0.0337999
 30
0.0
 40
0
 41
0
  0
VERTEX
  8
0
 10
1.26671
 20
0.0340169
 30
0.0
 40
0
 41
0
  0
VERTEX
  8
0
 10
1.26622
 20
0.0345053
 30
0.0
 40
0
 41
0
  0
VERTEX
  8
0
 10
1.26611
 20
0.0345053
 30
0.0
 40
0
 41
0
  0
VERTEX
  8
0
 10
1.2659
 20
0.0345053
 30
0.0
 40
0
 41
0
  0
VERTEX
  8
0
 10
1.26535
 20
0.0339085
 30
0.0
 40
0
 41
0
  0
VERTEX
  8
0
 10
1.2653
 20
0.0337999
 30
0.0
 40
0
 41
0
  0
VERTEX
  8
0
 10
1.26481
 20
0.0319553
 30
0.0
 40
0
 41
0
  0
VERTEX
  8
0
 10
1.2596
 20
0.0247939
 30
0.0
 40
0
 41
0
  0
VERTEX
  8
0
 10
1.25787
 20
0.0247939
 30
0.0
 40
0
 41
0
  0
VERTEX
  8
0
 10
1.25705
 20
0.0247939
 30
0.0
 40
0
 41
0
  0
VERTEX
  8
0
 10
1.25478
 20
0.0282118
 30
0.0
 40
0
 41
0
  0
VERTEX
  8
0
 10
1.25478
 20
0.0292969
 30
0.0
 40
0
 41
0
  0
VERTEX
  8
0
 10
1.25478
 20
0.0292969
 30
0.0
 40
0
 41
0
  0
VERTEX
  8
0
 10
1.25553
 20
0.0345594
 30
0.0
 40
0
 41
0
  0
VERTEX
  8
0
 10
1.2557
 20
0.0352647
 30
0.0
 40
0
 41
0
  0
VERTEX
  8
0
 10
1.2576
 20
0.0446506
 30
0.0
 40
0
 41
0
  0
SEQEND
 8
0
  0
POLYLINE
  8
0
 62
     1
 66
     1
 10
0
 20
0
 30
0.0
 70
     1
 40
0
 41
0
  0
VERTEX
  8
0
 10
1.29091
 20
0.0225151
 30
0.0
 40
0
 41
0
  0
VERTEX
  8
0
 10
1.28961
 20
0.0225151
 30
0.0
 40
0
 41
0
  0
VERTEX
  8
0
 10
1.28955
 20
0.0222439
 30
0.0
 40
0
 41
0
  0
VERTEX
  8
0
 10
1.28863
 20
0.0183376
 30
0.0
 40
0
 41
0
  0
VERTEX
  8
0
 10
1.28852
 20
0.0182292
 30
0.0
 40
0
 41
0
  0
VERTEX
  8
0
 10
1.28841
 20
0.0181749
 30
0.0
 40
0
 41
0
  0
VERTEX
  8
0
 10
1.28554
 20
0.0179036
 30
0.0
 40
0
 41
0
  0
VERTEX
  8
0
 10
1.28461
 20
0.0179036
 30
0.0
 40
0
 41
0
  0
VERTEX
  8
0
 10
1.2774
 20
0.0179036
 30
0.0
 40
0
 41
0
  0
VERTEX
  8
0
 10
1.27843
 20
0.0190429
 30
0.0
 40
0
 41
0
  0
VERTEX
  8
0
 10
1.28467
 20
0.0253907
 30
0.0
 40
0
 41
0
  0
VERTEX
  8
0
 10
1.28527
 20
0.0259332
 30
0.0
 40
0
 41
0
  0
VERTEX
  8
0
 10
1.28597
 20
0.0266385
 30
0.0
 40
0
 41
0
  0
VERTEX
  8
0
 10
1.29091
 20
0.0337999
 30
0.0
 40
0
 41
0
  0
VERTEX
  8
0
 10
1.29091
 20
0.0361871
 30
0.0
 40
0
 41
0
  0
VERTEX
  8
0
 10
1.29091
 20
0.03852
 30
0.0
 40
0
 41
0
  0
VERTEX
  8
0
 10
1.28396
 20
0.0454644
 30
0.0
 40
0
 41
0
  0
VERTEX
  8
0
 10
1.28168
 20
0.0454644
 30
0.0
 40
0
 41
0
  0
VERTEX
  8
0
 10
1.27962
 20
0.0454644
 30
0.0
 40
0
 41
0
  0
VERTEX
  8
0
 10
1.27349
 20
0.0390625
 30
0.0
 40
0
 41
0
  0
VERTEX
  8
0
 10
1.27349
 20
0.0368924
 30
0.0
 40
0
 41
0
  0
VERTEX
  8
0
 10
1.27349
 20
0.0362414
 30
0.0
 40
0
 41
0
  0
VERTEX
  8
0
 10
1.27507
 20
0.0342339
 30
0.0
 40
0
 41
0
  0
VERTEX
  8
0
 10
1.27561
 20
0.0342339
 30
0.0
 40
0
 41
0
  0
VERTEX
  8
0
 10
1.2761
 20
0.0342339
 30
0.0
 40
0
 41
0
  0
VERTEX
  8
0
 10
1.27767
 20
0.0361871
 30
0.0
 40
0
 41
0
  0
VERTEX
  8
0
 10
1.27767
 20
0.0367839
 30
0.0
 40
0
 41
0
  0
VERTEX
  8
0
 10
1.27767
 20
0.0374349
 30
0.0
 40
0
 41
0
  0
VERTEX
  8
0
 10
1.27588
 20
0.0393881
 30
0.0
 40
0
 41
0
  0
VERTEX
  8
0
 10
1.27534
 20
0.0393881
 30
0.0
 40
0
 41
0
  0
VERTEX
  8
0
 10
1.27561
 20
0.0402561
 30
0.0
 40
0
 41
0
  0
VERTEX
  8
0
 10
1.27968
 20
0.0437283
 30
0.0
 40
0
 41
0
  0
VERTEX
  8
0
 10
1.28109
 20
0.0437283
 30
0.0
 40
0
 41
0
  0
VERTEX
  8
0
 10
1.28255
 20
0.0437283
 30
0.0
 40
0
 41
0
  0
VERTEX
  8
0
 10
1.28711
 20
0.038086
 30
0.0
 40
0
 41
0
  0
VERTEX
  8
0
 10
1.28711
 20
0.0361871
 30
0.0
 40
0
 41
0
  0
VERTEX
  8
0
 10
1.28711
 20
0.0339085
 30
0.0
 40
0
 41
0
  0
VERTEX
  8
0
 10
1.28364
 20
0.0275065
 30
0.0
 40
0
 41
0
  0
VERTEX
  8
0
 10
1.28337
 20
0.0270725
 30
0.0
 40
0
 41
0
  0
VERTEX
  8
0
 10
1.27393
 20
0.0156793
 30
0.0
 40
0
 41
0
  0
VERTEX
  8
0
 10
1.27382
 20
0.0155707
 30
0.0
 40
0
 41
0
  0
VERTEX
  8
0
 10
1.27349
 20
0.0142686
 30
0.0
 40
0
 41
0
  0
VERTEX
  8
0
 10
1.27349
 20
0.0138346
 30
0.0
 40
0
 41
0
  0
VERTEX
  8
0
 10
1.28977
 20
0.0138346
 30
0.0
 40
0
 41
0
  0
VERTEX
  8
0
 10
1.29091
 20
0.0225151
 30
0.0
 40
0
 41
0
  0
SEQEND
 8
0
  0
POLYLINE
  8
0
 62
     0
 66
     1
 10
0
 20
0
 30
0.0
 40
0.188254
 41
0.188254
  0
VERTEX
  8
0
 10
1.72547
 20
0.290201
 30
0.0
 40
0.00261464
 41
0.00261464
  0
VERTEX
  8
0
 10
1.72868
 20
0.193956
 30
0.0
 40
0.00261464
 41
0.00261464
  0
SEQEND
 8
0
  0
POLYLINE
  8
0
 62
     0
 66
     1
 10
0
 20
0
 30
0.0
 70
     1
 40
0
 41
0
  0
VERTEX
  8
0
 10
1.71349
 20
0.331814
 30
0.0
 40
0
 41
0
  0
VERTEX
  8
0
 10
1.71408
 20
0.330078
 30
0.0
 40
0
 41
0
  0
VERTEX
  8
0
 10
1.71707
 20
0.320529
 30
0.0
 40
0
 41
0
  0
VERTEX
  8
0
 10
1.71935
 20
0.313693
 30
0.0
 40
0
 41
0
  0
VERTEX
  8
0
 10
1.71963
 20
0.31326
 30
0.0
 40
0
 41
0
  0
VERTEX
  8
0
 10
1.71983
 20
0.312935
 30
0.0
 40
0
 41
0
  0
VERTEX
  8
0
 10
1.72194
 20
0.311849
 30
0.0
 40
0
 41
0
  0
VERTEX
  8
0
 10
1.72271
 20
0.311849
 30
0.0
 40
0
 41
0
  0
VERTEX
  8
0
 10
1.72396
 20
0.311849
 30
0.0
 40
0
 41
0
  0
VERTEX
  8
0
 10
1.72407
 20
0.311903
 30
0.0
 40
0
 41
0
  0
VERTEX
  8
0
 10
1.72461
 20
0.312338
 30
0.0
 40
0
 41
0
  0
VERTEX
  8
0
 10
1.72461
 20
0.312446
 30
0.0
 40
0
 41
0
  0
VERTEX
  8
0
 10
1.72461
 20
0.312608
 30
0.0
 40
0
 41
0
  0
VERTEX
  8
0
 10
1.72428
 20
0.313043
 30
0.0
 40
0
 41
0
  0
VERTEX
  8
0
 10
1.72428
 20
0.313097
 30
0.0
 40
0
 41
0
  0
VERTEX
  8
0
 10
1.72413
 20
0.313314
 30
0.0
 40
0
 41
0
  0
VERTEX
  8
0
 10
1.72304
 20
0.31581
 30
0.0
 40
0
 41
0
  0
VERTEX
  8
0
 10
1.72299
 20
0.316081
 30
0.0
 40
0
 41
0
  0
VERTEX
  8
0
 10
1.7111
 20
0.353624
 30
0.0
 40
0
 41
0
  0
VERTEX
  8
0
 10
1.71078
 20
0.354601
 30
0.0
 40
0
 41
0
  0
VERTEX
  8
0
 10
1.70568
 20
0.358399
 30
0.0
 40
0
 41
0
  0
VERTEX
  8
0
 10
1.704
 20
0.358399
 30
0.0
 40
0
 41
0
  0
VERTEX
  8
0
 10
1.704
 20
0.358399
 30
0.0
 40
0
 41
0
  0
VERTEX
  8
0
 10
1.7029
 20
0.357856
 30
0.0
 40
0
 41
0
  0
VERTEX
  8
0
 10
1.7029
 20
0.357639
 30
0.0
 40
0
 41
0
  0
VERTEX
  8
0
 10
1.7029
 20
0.357476
 30
0.0
 40
0
 41
0
  0
VERTEX
  8
0
 10
1.70329
 20
0.356933
 30
0.0
 40
0
 41
0
  0
VERTEX
  8
0
 10
1.70344
 20
0.356933
 30
0.0
 40
0
 41
0
  0
VERTEX
  8
0
 10
1.70389
 20
0.356879
 30
0.0
 40
0
 41
0
  0
VERTEX
  8
0
 10
1.70692
 20
0.35281
 30
0.0
 40
0
 41
0
  0
VERTEX
  8
0
 10
1.70731
 20
0.351671
 30
0.0
 40
0
 41
0
  0
VERTEX
  8
0
 10
1.71283
 20
0.333768
 30
0.0
 40
0
 41
0
  0
VERTEX
  8
0
 10
1.69678
 20
0.315647
 30
0.0
 40
0
 41
0
  0
VERTEX
  8
0
 10
1.69661
 20
0.315483
 30
0.0
 40
0
 41
0
  0
VERTEX
  8
0
 10
1.69581
 20
0.314074
 30
0.0
 40
0
 41
0
  0
VERTEX
  8
0
 10
1.69581
 20
0.313585
 30
0.0
 40
0
 41
0
  0
VERTEX
  8
0
 10
1.69581
 20
0.313151
 30
0.0
 40
0
 41
0
  0
VERTEX
  8
0
 10
1.6971
 20
0.31174
 30
0.0
 40
0
 41
0
  0
VERTEX
  8
0
 10
1.69754
 20
0.31174
 30
0.0
 40
0
 41
0
  0
VERTEX
  8
0
 10
1.69797
 20
0.31174
 30
0.0
 40
0
 41
0
  0
VERTEX
  8
0
 10
1.69928
 20
0.312935
 30
0.0
 40
0
 41
0
  0
VERTEX
  8
0
 10
1.69943
 20
0.313097
 30
0.0
 40
0
 41
0
  0
VERTEX
  8
0
 10
1.71349
 20
0.331814
 30
0.0
 40
0
 41
0
  0
SEQEND
 8
0
  0
POLYLINE
  8
0
 62
     0
 66
     1
 10
0
 20
0
 30
0.0
 70
     1
 40
0
 41
0
  0
VERTEX
  8
0
 10
1.75493
 20
0.337674
 30
0.0
 40
0
 41
0
  0
VERTEX
  8
0
 10
1.75499
 20
0.337944
 30
0.0
 40
0
 41
0
  0
VERTEX
  8
0
 10
1.75521
 20
0.338921
 30
0.0
 40
0
 41
0
  0
VERTEX
  8
0
 10
1.75521
 20
0.339247
 30
0.0
 40
0
 41
0
  0
VERTEX
  8
0
 10
1.75521
 20
0.339681
 30
0.0
 40
0
 41
0
  0
VERTEX
  8
0
 10
1.7539
 20
0.340983
 30
0.0
 40
0
 41
0
  0
VERTEX
  8
0
 10
1.75347
 20
0.340983
 30
0.0
 40
0
 41
0
  0
VERTEX
  8
0
 10
1.75347
 20
0.340983
 30
0.0
 40
0
 41
0
  0
VERTEX
  8
0
 10
1.75157
 20
0.339953
 30
0.0
 40
0
 41
0
  0
VERTEX
  8
0
 10
1.75146
 20
0.339681
 30
0.0
 40
0
 41
0
  0
VERTEX
  8
0
 10
1.75142
 20
0.339572
 30
0.0
 40
0
 41
0
  0
VERTEX
  8
0
 10
1.75065
 20
0.336372
 30
0.0
 40
0
 41
0
  0
VERTEX
  8
0
 10
1.75065
 20
0.336046
 30
0.0
 40
0
 41
0
  0
VERTEX
  8
0
 10
1.75049
 20
0.335667
 30
0.0
 40
0
 41
0
  0
VERTEX
  8
0
 10
1.74951
 20
0.331218
 30
0.0
 40
0
 41
0
  0
VERTEX
  8
0
 10
1.74946
 20
0.330783
 30
0.0
 40
0
 41
0
  0
VERTEX
  8
0
 10
1.74681
 20
0.318847
 30
0.0
 40
0
 41
0
  0
VERTEX
  8
0
 10
1.74675
 20
0.318631
 30
0.0
 40
0
 41
0
  0
VERTEX
  8
0
 10
1.74186
 20
0.31326
 30
0.0
 40
0
 41
0
  0
VERTEX
  8
0
 10
1.74024
 20
0.31326
 30
0.0
 40
0
 41
0
  0
VERTEX
  8
0
 10
1.73931
 20
0.31326
 30
0.0
 40
0
 41
0
  0
VERTEX
  8
0
 10
1.73665
 20
0.317329
 30
0.0
 40
0
 41
0
  0
VERTEX
  8
0
 10
1.73665
 20
0.318685
 30
0.0
 40
0
 41
0
  0
VERTEX
  8
0
 10
1.73665
 20
0.32194
 30
0.0
 40
0
 41
0
  0
VERTEX
  8
0
 10
1.7391
 20
0.330186
 30
0.0
 40
0
 41
0
  0
VERTEX
  8
0
 10
1.73958
 20
0.331597
 30
0.0
 40
0
 41
0
  0
VERTEX
  8
0
 10
1.73981
 20
0.332303
 30
0.0
 40
0
 41
0
  0
VERTEX
  8
0
 10
1.74078
 20
0.335394
 30
0.0
 40
0
 41
0
  0
VERTEX
  8
0
 10
1.74078
 20
0.336372
 30
0.0
 40
0
 41
0
  0
VERTEX
  8
0
 10
1.74078
 20
0.337728
 30
0.0
 40
0
 41
0
  0
VERTEX
  8
0
 10
1.73719
 20
0.341743
 30
0.0
 40
0
 41
0
  0
VERTEX
  8
0
 10
1.736
 20
0.341743
 30
0.0
 40
0
 41
0
  0
VERTEX
  8
0
 10
1.73449
 20
0.341743
 30
0.0
 40
0
 41
0
  0
VERTEX
  8
0
 10
1.73008
 20
0.33686
 30
0.0
 40
0
 41
0
  0
VERTEX
  8
0
 10
1.72835
 20
0.332954
 30
0.0
 40
0
 41
0
  0
VERTEX
  8
0
 10
1.72835
 20
0.331597
 30
0.0
 40
0
 41
0
  0
VERTEX
  8
0
 10
1.72835
 20
0.331435
 30
0.0
 40
0
 41
0
  0
VERTEX
  8
0
 10
1.72885
 20
0.330892
 30
0.0
 40
0
 41
0
  0
VERTEX
  8
0
 10
1.729
 20
0.330892
 30
0.0
 40
0
 41
0
  0
VERTEX
  8
0
 10
1.72922
 20
0.330892
 30
0.0
 40
0
 41
0
  0
VERTEX
  8
0
 10
1.72982
 20
0.331868
 30
0.0
 40
0
 41
0
  0
VERTEX
  8
0
 10
1.72993
 20
0.332086
 30
0.0
 40
0
 41
0
  0
VERTEX
  8
0
 10
1.73031
 20
0.333658
 30
0.0
 40
0
 41
0
  0
VERTEX
  8
0
 10
1.73443
 20
0.340278
 30
0.0
 40
0
 41
0
  0
VERTEX
  8
0
 10
1.73583
 20
0.340278
 30
0.0
 40
0
 41
0
  0
VERTEX
  8
0
 10
1.73617
 20
0.340278
 30
0.0
 40
0
 41
0
  0
VERTEX
  8
0
 10
1.73731
 20
0.338758
 30
0.0
 40
0
 41
0
  0
VERTEX
  8
0
 10
1.73731
 20
0.338217
 30
0.0
 40
0
 41
0
  0
VERTEX
  8
0
 10
1.73731
 20
0.337076
 30
0.0
 40
0
 41
0
  0
VERTEX
  8
0
 10
1.73633
 20
0.333876
 30
0.0
 40
0
 41
0
  0
VERTEX
  8
0
 10
1.73628
 20
0.33355
 30
0.0
 40
0
 41
0
  0
VERTEX
  8
0
 10
1.73568
 20
0.331814
 30
0.0
 40
0
 41
0
  0
VERTEX
  8
0
 10
1.73292
 20
0.322754
 30
0.0
 40
0
 41
0
  0
VERTEX
  8
0
 10
1.73292
 20
0.319715
 30
0.0
 40
0
 41
0
  0
VERTEX
  8
0
 10
1.73292
 20
0.317763
 30
0.0
 40
0
 41
0
  0
VERTEX
  8
0
 10
1.73822
 20
0.311849
 30
0.0
 40
0
 41
0
  0
VERTEX
  8
0
 10
1.74001
 20
0.311849
 30
0.0
 40
0
 41
0
  0
VERTEX
  8
0
 10
1.74149
 20
0.311849
 30
0.0
 40
0
 41
0
  0
VERTEX
  8
0
 10
1.74544
 20
0.314399
 30
0.0
 40
0
 41
0
  0
VERTEX
  8
0
 10
1.74588
 20
0.314833
 30
0.0
 40
0
 41
0
  0
VERTEX
  8
0
 10
1.74567
 20
0.314019
 30
0.0
 40
0
 41
0
  0
VERTEX
  8
0
 10
1.74268
 20
0.305501
 30
0.0
 40
0
 41
0
  0
VERTEX
  8
0
 10
1.74214
 20
0.304579
 30
0.0
 40
0
 41
0
  0
VERTEX
  8
0
 10
1.74175
 20
0.304036
 30
0.0
 40
0
 41
0
  0
VERTEX
  8
0
 10
1.73719
 20
0.300456
 30
0.0
 40
0
 41
0
  0
VERTEX
  8
0
 10
1.73574
 20
0.300456
 30
0.0
 40
0
 41
0
  0
VERTEX
  8
0
 10
1.7346
 20
0.300456
 30
0.0
 40
0
 41
0
  0
VERTEX
  8
0
 10
1.7315
 20
0.302626
 30
0.0
 40
0
 41
0
  0
VERTEX
  8
0
 10
1.73128
 20
0.303276
 30
0.0
 40
0
 41
0
  0
VERTEX
  8
0
 10
1.73188
 20
0.303276
 30
0.0
 40
0
 41
0
  0
VERTEX
  8
0
 10
1.73351
 20
0.303928
 30
0.0
 40
0
 41
0
  0
VERTEX
  8
0
 10
1.73372
 20
0.30409
 30
0.0
 40
0
 41
0
  0
VERTEX
  8
0
 10
1.73389
 20
0.304254
 30
0.0
 40
0
 41
0
  0
VERTEX
  8
0
 10
1.73492
 20
0.306153
 30
0.0
 40
0
 41
0
  0
VERTEX
  8
0
 10
1.73492
 20
0.306749
 30
0.0
 40
0
 41
0
  0
VERTEX
  8
0
 10
1.73492
 20
0.307346
 30
0.0
 40
0
 41
0
  0
VERTEX
  8
0
 10
1.73335
 20
0.309028
 30
0.0
 40
0
 41
0
  0
VERTEX
  8
0
 10
1.73286
 20
0.309028
 30
0.0
 40
0
 41
0
  0
VERTEX
  8
0
 10
1.73199
 20
0.309028
 30
0.0
 40
0
 41
0
  0
VERTEX
  8
0
 10
1.72954
 20
0.305881
 30
0.0
 40
0
 41
0
  0
VERTEX
  8
0
 10
1.72954
 20
0.304796
 30
0.0
 40
0
 41
0
  0
VERTEX
  8
0
 10
1.72954
 20
0.303386
 30
0.0
 40
0
 41
0
  0
VERTEX
  8
0
 10
1.73415
 20
0.29899
 30
0.0
 40
0
 41
0
  0
VERTEX
  8
0
 10
1.73574
 20
0.29899
 30
0.0
 40
0
 41
0
  0
VERTEX
  8
0
 10
1.73779
 20
0.29899
 30
0.0
 40
0
 41
0
  0
VERTEX
  8
0
 10
1.74414
 20
0.302951
 30
0.0
 40
0
 41
0
  0
VERTEX
  8
0
 10
1.74892
 20
0.310601
 30
0.0
 40
0
 41
0
  0
VERTEX
  8
0
 10
1.74935
 20
0.312446
 30
0.0
 40
0
 41
0
  0
VERTEX
  8
0
 10
1.75493
 20
0.337674
 30
0.0
 40
0
 41
0
  0
SEQEND
 8
0
  0
POLYLINE
  8
0
 62
     0
 66
     1
 10
0
 20
0
 30
0.0
 70
     1
 40
0
 41
0
  0
VERTEX
  8
0
 10
1.6219
 20
0.546061
 30
0.0
 40
0
 41
0
  0
VERTEX
  8
0
 10
1.6219
 20
0.546496
 30
0.0
 40
0
 41
0
  0
VERTEX
  8
0
 10
1.62088
 20
0.547689
 30
0.0
 40
0
 41
0
  0
VERTEX
  8
0
 10
1.62056
 20
0.547689
 30
0.0
 40
0
 41
0
  0
VERTEX
  8
0
 10
1.61957
 20
0.547689
 30
0.0
 40
0
 41
0
  0
VERTEX
  8
0
 10
1.61925
 20
0.547689
 30
0.0
 40
0
 41
0
  0
VERTEX
  8
0
 10
1.61833
 20
0.548122
 30
0.0
 40
0
 41
0
  0
VERTEX
  8
0
 10
1.61828
 20
0.548232
 30
0.0
 40
0
 41
0
  0
VERTEX
  8
0
 10
1.61763
 20
0.549317
 30
0.0
 40
0
 41
0
  0
VERTEX
  8
0
 10
1.61236
 20
0.55344
 30
0.0
 40
0
 41
0
  0
VERTEX
  8
0
 10
1.61062
 20
0.55344
 30
0.0
 40
0
 41
0
  0
VERTEX
  8
0
 10
1.60867
 20
0.55344
 30
0.0
 40
0
 41
0
  0
VERTEX
  8
0
 10
1.60286
 20
0.549208
 30
0.0
 40
0
 41
0
  0
VERTEX
  8
0
 10
1.5995
 20
0.541178
 30
0.0
 40
0
 41
0
  0
VERTEX
  8
0
 10
1.5995
 20
0.538465
 30
0.0
 40
0
 41
0
  0
VERTEX
  8
0
 10
1.5995
 20
0.535807
 30
0.0
 40
0
 41
0
  0
VERTEX
  8
0
 10
1.60286
 20
0.527832
 30
0.0
 40
0
 41
0
  0
VERTEX
  8
0
 10
1.60867
 20
0.523546
 30
0.0
 40
0
 41
0
  0
VERTEX
  8
0
 10
1.61062
 20
0.523546
 30
0.0
 40
0
 41
0
  0
VERTEX
  8
0
 10
1.61247
 20
0.523546
 30
0.0
 40
0
 41
0
  0
VERTEX
  8
0
 10
1.61757
 20
0.527669
 30
0.0
 40
0
 41
0
  0
VERTEX
  8
0
 10
1.618
 20
0.528375
 30
0.0
 40
0
 41
0
  0
VERTEX
  8
0
 10
1.61811
 20
0.527507
 30
0.0
 40
0
 41
0
  0
VERTEX
  8
0
 10
1.62224
 20
0.523546
 30
0.0
 40
0
 41
0
  0
VERTEX
  8
0
 10
1.62364
 20
0.523546
 30
0.0
 40
0
 41
0
  0
VERTEX
  8
0
 10
1.62478
 20
0.523546
 30
0.0
 40
0
 41
0
  0
VERTEX
  8
0
 10
1.62836
 20
0.527994
 30
0.0
 40
0
 41
0
  0
VERTEX
  8
0
 10
1.62939
 20
0.535482
 30
0.0
 40
0
 41
0
  0
VERTEX
  8
0
 10
1.62939
 20
0.537924
 30
0.0
 40
0
 41
0
  0
VERTEX
  8
0
 10
1.62939
 20
0.542589
 30
0.0
 40
0
 41
0
  0
VERTEX
  8
0
 10
1.62343
 20
0.556478
 30
0.0
 40
0
 41
0
  0
VERTEX
  8
0
 10
1.61382
 20
0.562989
 30
0.0
 40
0
 41
0
  0
VERTEX
  8
0
 10
1.61068
 20
0.562989
 30
0.0
 40
0
 41
0
  0
VERTEX
  8
0
 10
1.60736
 20
0.562989
 30
0.0
 40
0
 41
0
  0
VERTEX
  8
0
 10
1.59744
 20
0.555881
 30
0.0
 40
0
 41
0
  0
VERTEX
  8
0
 10
1.59201
 20
0.54286
 30
0.0
 40
0
 41
0
  0
VERTEX
  8
0
 10
1.59201
 20
0.538465
 30
0.0
 40
0
 41
0
  0
VERTEX
  8
0
 10
1.59201
 20
0.534233
 30
0.0
 40
0
 41
0
  0
VERTEX
  8
0
 10
1.59728
 20
0.521431
 30
0.0
 40
0
 41
0
  0
VERTEX
  8
0
 10
1.60753
 20
0.513997
 30
0.0
 40
0
 41
0
  0
VERTEX
  8
0
 10
1.61094
 20
0.513997
 30
0.0
 40
0
 41
0
  0
VERTEX
  8
0
 10
1.61344
 20
0.513997
 30
0.0
 40
0
 41
0
  0
VERTEX
  8
0
 10
1.62017
 20
0.515246
 30
0.0
 40
0
 41
0
  0
VERTEX
  8
0
 10
1.6211
 20
0.515517
 30
0.0
 40
0
 41
0
  0
VERTEX
  8
0
 10
1.62147
 20
0.515625
 30
0.0
 40
0
 41
0
  0
VERTEX
  8
0
 10
1.62929
 20
0.518446
 30
0.0
 40
0
 41
0
  0
VERTEX
  8
0
 10
1.62929
 20
0.519368
 30
0.0
 40
0
 41
0
  0
VERTEX
  8
0
 10
1.62929
 20
0.519586
 30
0.0
 40
0
 41
0
  0
VERTEX
  8
0
 10
1.62831
 20
0.520128
 30
0.0
 40
0
 41
0
  0
VERTEX
  8
0
 10
1.62804
 20
0.520128
 30
0.0
 40
0
 41
0
  0
VERTEX
  8
0
 10
1.6275
 20
0.520128
 30
0.0
 40
0
 41
0
  0
VERTEX
  8
0
 10
1.62717
 20
0.520128
 30
0.0
 40
0
 41
0
  0
VERTEX
  8
0
 10
1.62625
 20
0.519965
 30
0.0
 40
0
 41
0
  0
VERTEX
  8
0
 10
1.62619
 20
0.519911
 30
0.0
 40
0
 41
0
  0
VERTEX
  8
0
 10
1.625
 20
0.51926
 30
0.0
 40
0
 41
0
  0
VERTEX
  8
0
 10
1.61442
 20
0.515517
 30
0.0
 40
0
 41
0
  0
VERTEX
  8
0
 10
1.61094
 20
0.515517
 30
0.0
 40
0
 41
0
  0
VERTEX
  8
0
 10
1.60781
 20
0.515517
 30
0.0
 40
0
 41
0
  0
VERTEX
  8
0
 10
1.59836
 20
0.522407
 30
0.0
 40
0
 41
0
  0
VERTEX
  8
0
 10
1.59343
 20
0.534451
 30
0.0
 40
0
 41
0
  0
VERTEX
  8
0
 10
1.59343
 20
0.538465
 30
0.0
 40
0
 41
0
  0
VERTEX
  8
0
 10
1.59343
 20
0.542589
 30
0.0
 40
0
 41
0
  0
VERTEX
  8
0
 10
1.59858
 20
0.554904
 30
0.0
 40
0
 41
0
  0
VERTEX
  8
0
 10
1.60764
 20
0.561524
 30
0.0
 40
0
 41
0
  0
VERTEX
  8
0
 10
1.61068
 20
0.561524
 30
0.0
 40
0
 41
0
  0
VERTEX
  8
0
 10
1.61356
 20
0.561524
 30
0.0
 40
0
 41
0
  0
VERTEX
  8
0
 10
1.62218
 20
0.555718
 30
0.0
 40
0
 41
0
  0
VERTEX
  8
0
 10
1.62799
 20
0.542046
 30
0.0
 40
0
 41
0
  0
VERTEX
  8
0
 10
1.62799
 20
0.537489
 30
0.0
 40
0
 41
0
  0
VERTEX
  8
0
 10
1.62799
 20
0.535374
 30
0.0
 40
0
 41
0
  0
VERTEX
  8
0
 10
1.62728
 20
0.528917
 30
0.0
 40
0
 41
0
  0
VERTEX
  8
0
 10
1.62468
 20
0.525065
 30
0.0
 40
0
 41
0
  0
VERTEX
  8
0
 10
1.62381
 20
0.525065
 30
0.0
 40
0
 41
0
  0
VERTEX
  8
0
 10
1.62332
 20
0.525065
 30
0.0
 40
0
 41
0
  0
VERTEX
  8
0
 10
1.6219
 20
0.529568
 30
0.0
 40
0
 41
0
  0
VERTEX
  8
0
 10
1.6219
 20
0.529568
 30
0.0
 40
0
 41
0
  0
VERTEX
  8
0
 10
1.6219
 20
0.546061
 30
0.0
 40
0
 41
0
  0
SEQEND
 8
0
  0
POLYLINE
  8
0
 62
     0
 66
     1
 10
0
 20
0
 30
0.0
 70
     1
 40
0
 41
0
  0
VERTEX
  8
0
 10
1.618
 20
0.532661
 30
0.0
 40
0
 41
0
  0
VERTEX
  8
0
 10
1.618
 20
0.531956
 30
0.0
 40
0
 41
0
  0
VERTEX
  8
0
 10
1.6174
 20
0.530165
 30
0.0
 40
0
 41
0
  0
VERTEX
  8
0
 10
1.61724
 20
0.529785
 30
0.0
 40
0
 41
0
  0
VERTEX
  8
0
 10
1.6166
 20
0.528754
 30
0.0
 40
0
 41
0
  0
VERTEX
  8
0
 10
1.61219
 20
0.525065
 30
0.0
 40
0
 41
0
  0
VERTEX
  8
0
 10
1.61079
 20
0.525065
 30
0.0
 40
0
 41
0
  0
VERTEX
  8
0
 10
1.60894
 20
0.525065
 30
0.0
 40
0
 41
0
  0
VERTEX
  8
0
 10
1.6034
 20
0.535157
 30
0.0
 40
0
 41
0
  0
VERTEX
  8
0
 10
1.6034
 20
0.538465
 30
0.0
 40
0
 41
0
  0
VERTEX
  8
0
 10
1.6034
 20
0.541883
 30
0.0
 40
0
 41
0
  0
VERTEX
  8
0
 10
1.60894
 20
0.551975
 30
0.0
 40
0
 41
0
  0
VERTEX
  8
0
 10
1.61079
 20
0.551975
 30
0.0
 40
0
 41
0
  0
VERTEX
  8
0
 10
1.61242
 20
0.551975
 30
0.0
 40
0
 41
0
  0
VERTEX
  8
0
 10
1.61675
 20
0.548014
 30
0.0
 40
0
 41
0
  0
VERTEX
  8
0
 10
1.61729
 20
0.547037
 30
0.0
 40
0
 41
0
  0
VERTEX
  8
0
 10
1.61746
 20
0.546713
 30
0.0
 40
0
 41
0
  0
VERTEX
  8
0
 10
1.618
 20
0.544922
 30
0.0
 40
0
 41
0
  0
VERTEX
  8
0
 10
1.618
 20
0.544325
 30
0.0
 40
0
 41
0
  0
VERTEX
  8
0
 10
1.618
 20
0.532661
 30
0.0
 40
0
 41
0
  0
SEQEND
 8
0
  0
POLYLINE
  8
0
 62
     0
 66
     1
 10
0
 20
0
 30
0.0
 40
0.188254
 41
0.188254
  0
VERTEX
  8
0
 10
1.60112
 20
0.503851
 30
0.0
 40
0.00261464
 41
0.00261464
  0
VERTEX
  8
0
 10
1.59565
 20
0.497939
 30
0.0
 40
0.00261464
 41
0.00261464
  0
VERTEX
  8
0
 10
1.54536
 20
0.438368
 30
0.0
 40
0.00261464
 41
0.00261464
  0
VERTEX
  8
0
 10
1.54135
 20
0.432346
 30
0.0
 40
0.00261464
 41
0.00261464
  0
VERTEX
  8
0
 10
1.53728
 20
0.426324
 30
0.0
 40
0.00261464
 41
0.00261464
  0
VERTEX
  8
0
 10
1.50651
 20
0.365614
 30
0.0
 40
0.00261464
 41
0.00261464
  0
VERTEX
  8
0
 10
1.50385
 20
0.359483
 30
0.0
 40
0.00261464
 41
0.00261464
  0
SEQEND
 8
0
  0
POLYLINE
  8
0
 62
     0
 66
     1
 10
0
 20
0
 30
0.0
 40
0.188254
 41
0.188254
  0
VERTEX
  8
0
 10
1.62825
 20
0.503851
 30
0.0
 40
0.00261464
 41
0.00261464
  0
VERTEX
  8
0
 10
1.6334
 20
0.498753
 30
0.0
 40
0.00261464
 41
0.00261464
  0
VERTEX
  8
0
 10
1.68158
 20
0.444769
 30
0.0
 40
0.00261464
 41
0.00261464
  0
VERTEX
  8
0
 10
1.6856
 20
0.438747
 30
0.0
 40
0.00261464
 41
0.00261464
  0
VERTEX
  8
0
 10
1.68956
 20
0.432726
 30
0.0
 40
0.00261464
 41
0.00261464
  0
VERTEX
  8
0
 10
1.72108
 20
0.366428
 30
0.0
 40
0.00261464
 41
0.00261464
  0
VERTEX
  8
0
 10
1.7239
 20
0.359483
 30
0.0
 40
0.00261464
 41
0.00261464
  0
SEQEND
 8
0
  0
POLYLINE
  8
0
 62
     1
 66
     1
 10
0
 20
0
 30
0.0
 70
     1
 40
0
 41
0
  0
VERTEX
  8
0
 10
1.72265
 20
0.177137
 30
0.0
 40
0
 41
0
  0
VERTEX
  8
0
 10
1.72271
 20
0.177572
 30
0.0
 40
0
 41
0
  0
VERTEX
  8
0
 10
1.72683
 20
0.185113
 30
0.0
 40
0
 41
0
  0
VERTEX
  8
0
 10
1.72825
 20
0.185113
 30
0.0
 40
0
 41
0
  0
VERTEX
  8
0
 10
1.72894
 20
0.185113
 30
0.0
 40
0
 41
0
  0
VERTEX
  8
0
 10
1.73074
 20
0.184462
 30
0.0
 40
0
 41
0
  0
VERTEX
  8
0
 10
1.73107
 20
0.184244
 30
0.0
 40
0
 41
0
  0
VERTEX
  8
0
 10
1.73063
 20
0.184136
 30
0.0
 40
0
 41
0
  0
VERTEX
  8
0
 10
1.7284
 20
0.181424
 30
0.0
 40
0
 41
0
  0
VERTEX
  8
0
 10
1.7284
 20
0.180501
 30
0.0
 40
0
 41
0
  0
VERTEX
  8
0
 10
1.7284
 20
0.179958
 30
0.0
 40
0
 41
0
  0
VERTEX
  8
0
 10
1.72999
 20
0.178168
 30
0.0
 40
0
 41
0
  0
VERTEX
  8
0
 10
1.73053
 20
0.178168
 30
0.0
 40
0
 41
0
  0
VERTEX
  8
0
 10
1.73122
 20
0.178168
 30
0.0
 40
0
 41
0
  0
VERTEX
  8
0
 10
1.73351
 20
0.181153
 30
0.0
 40
0
 41
0
  0
VERTEX
  8
0
 10
1.73351
 20
0.182129
 30
0.0
 40
0
 41
0
  0
VERTEX
  8
0
 10
1.73351
 20
0.183268
 30
0.0
 40
0
 41
0
  0
VERTEX
  8
0
 10
1.7296
 20
0.186632
 30
0.0
 40
0
 41
0
  0
VERTEX
  8
0
 10
1.72831
 20
0.186632
 30
0.0
 40
0
 41
0
  0
VERTEX
  8
0
 10
1.72678
 20
0.186632
 30
0.0
 40
0
 41
0
  0
VERTEX
  8
0
 10
1.72254
 20
0.181858
 30
0.0
 40
0
 41
0
  0
VERTEX
  8
0
 10
1.72239
 20
0.181478
 30
0.0
 40
0
 41
0
  0
VERTEX
  8
0
 10
1.722
 20
0.182617
 30
0.0
 40
0
 41
0
  0
VERTEX
  8
0
 10
1.71772
 20
0.186632
 30
0.0
 40
0
 41
0
  0
VERTEX
  8
0
 10
1.71631
 20
0.186632
 30
0.0
 40
0
 41
0
  0
VERTEX
  8
0
 10
1.71457
 20
0.186632
 30
0.0
 40
0
 41
0
  0
VERTEX
  8
0
 10
1.70953
 20
0.182075
 30
0.0
 40
0
 41
0
  0
VERTEX
  8
0
 10
1.70719
 20
0.177681
 30
0.0
 40
0
 41
0
  0
VERTEX
  8
0
 10
1.70719
 20
0.176161
 30
0.0
 40
0
 41
0
  0
VERTEX
  8
0
 10
1.70719
 20
0.175999
 30
0.0
 40
0
 41
0
  0
VERTEX
  8
0
 10
1.70768
 20
0.175401
 30
0.0
 40
0
 41
0
  0
VERTEX
  8
0
 10
1.7079
 20
0.175401
 30
0.0
 40
0
 41
0
  0
VERTEX
  8
0
 10
1.70806
 20
0.175401
 30
0.0
 40
0
 41
0
  0
VERTEX
  8
0
 10
1.70856
 20
0.176053
 30
0.0
 40
0
 41
0
  0
VERTEX
  8
0
 10
1.70861
 20
0.176161
 30
0.0
 40
0
 41
0
  0
VERTEX
  8
0
 10
1.7091
 20
0.178006
 30
0.0
 40
0
 41
0
  0
VERTEX
  8
0
 10
1.71442
 20
0.185113
 30
0.0
 40
0
 41
0
  0
VERTEX
  8
0
 10
1.71619
 20
0.185113
 30
0.0
 40
0
 41
0
  0
VERTEX
  8
0
 10
1.7169
 20
0.185113
 30
0.0
 40
0
 41
0
  0
VERTEX
  8
0
 10
1.71918
 20
0.181694
 30
0.0
 40
0
 41
0
  0
VERTEX
  8
0
 10
1.71918
 20
0.180501
 30
0.0
 40
0
 41
0
  0
VERTEX
  8
0
 10
1.71918
 20
0.176486
 30
0.0
 40
0
 41
0
  0
VERTEX
  8
0
 10
1.71669
 20
0.166721
 30
0.0
 40
0
 41
0
  0
VERTEX
  8
0
 10
1.71619
 20
0.164279
 30
0.0
 40
0
 41
0
  0
VERTEX
  8
0
 10
1.71599
 20
0.163249
 30
0.0
 40
0
 41
0
  0
VERTEX
  8
0
 10
1.71208
 20
0.157281
 30
0.0
 40
0
 41
0
  0
VERTEX
  8
0
 10
1.71083
 20
0.157281
 30
0.0
 40
0
 41
0
  0
VERTEX
  8
0
 10
1.71007
 20
0.157281
 30
0.0
 40
0
 41
0
  0
VERTEX
  8
0
 10
1.70822
 20
0.157932
 30
0.0
 40
0
 41
0
  0
VERTEX
  8
0
 10
1.70796
 20
0.158094
 30
0.0
 40
0
 41
0
  0
VERTEX
  8
0
 10
1.70828
 20
0.158203
 30
0.0
 40
0
 41
0
  0
VERTEX
  8
0
 10
1.71061
 20
0.160969
 30
0.0
 40
0
 41
0
  0
VERTEX
  8
0
 10
1.71061
 20
0.161837
 30
0.0
 40
0
 41
0
  0
VERTEX
  8
0
 10
1.71061
 20
0.162435
 30
0.0
 40
0
 41
0
  0
VERTEX
  8
0
 10
1.7091
 20
0.164171
 30
0.0
 40
0
 41
0
  0
VERTEX
  8
0
 10
1.70861
 20
0.164171
 30
0.0
 40
0
 41
0
  0
VERTEX
  8
0
 10
1.70779
 20
0.164171
 30
0.0
 40
0
 41
0
  0
VERTEX
  8
0
 10
1.70551
 20
0.161242
 30
0.0
 40
0
 41
0
  0
VERTEX
  8
0
 10
1.70551
 20
0.160265
 30
0.0
 40
0
 41
0
  0
VERTEX
  8
0
 10
1.70551
 20
0.159179
 30
0.0
 40
0
 41
0
  0
VERTEX
  8
0
 10
1.70942
 20
0.155761
 30
0.0
 40
0
 41
0
  0
VERTEX
  8
0
 10
1.71072
 20
0.155761
 30
0.0
 40
0
 41
0
  0
VERTEX
  8
0
 10
1.71218
 20
0.155761
 30
0.0
 40
0
 41
0
  0
VERTEX
  8
0
 10
1.71658
 20
0.160807
 30
0.0
 40
0
 41
0
  0
VERTEX
  8
0
 10
1.71664
 20
0.160861
 30
0.0
 40
0
 41
0
  0
VERTEX
  8
0
 10
1.71679
 20
0.160265
 30
0.0
 40
0
 41
0
  0
VERTEX
  8
0
 10
1.72125
 20
0.155761
 30
0.0
 40
0
 41
0
  0
VERTEX
  8
0
 10
1.72276
 20
0.155761
 30
0.0
 40
0
 41
0
  0
VERTEX
  8
0
 10
1.72439
 20
0.155761
 30
0.0
 40
0
 41
0
  0
VERTEX
  8
0
 10
1.72944
 20
0.160374
 30
0.0
 40
0
 41
0
  0
VERTEX
  8
0
 10
1.73178
 20
0.164768
 30
0.0
 40
0
 41
0
  0
VERTEX
  8
0
 10
1.73178
 20
0.166233
 30
0.0
 40
0
 41
0
  0
VERTEX
  8
0
 10
1.73178
 20
0.16645
 30
0.0
 40
0
 41
0
  0
VERTEX
  8
0
 10
1.73128
 20
0.166992
 30
0.0
 40
0
 41
0
  0
VERTEX
  8
0
 10
1.73112
 20
0.166992
 30
0.0
 40
0
 41
0
  0
VERTEX
  8
0
 10
1.7309
 20
0.166992
 30
0.0
 40
0
 41
0
  0
VERTEX
  8
0
 10
1.73036
 20
0.166342
 30
0.0
 40
0
 41
0
  0
VERTEX
  8
0
 10
1.73036
 20
0.166233
 30
0.0
 40
0
 41
0
  0
VERTEX
  8
0
 10
1.72988
 20
0.164388
 30
0.0
 40
0
 41
0
  0
VERTEX
  8
0
 10
1.72293
 20
0.157281
 30
0.0
 40
0
 41
0
  0
VERTEX
  8
0
 10
1.72293
 20
0.157281
 30
0.0
 40
0
 41
0
  0
VERTEX
  8
0
 10
1.72211
 20
0.157281
 30
0.0
 40
0
 41
0
  0
VERTEX
  8
0
 10
1.71983
 20
0.160644
 30
0.0
 40
0
 41
0
  0
VERTEX
  8
0
 10
1.71983
 20
0.161729
 30
0.0
 40
0
 41
0
  0
VERTEX
  8
0
 10
1.71983
 20
0.161729
 30
0.0
 40
0
 41
0
  0
VERTEX
  8
0
 10
1.72054
 20
0.166992
 30
0.0
 40
0
 41
0
  0
VERTEX
  8
0
 10
1.72071
 20
0.167697
 30
0.0
 40
0
 41
0
  0
VERTEX
  8
0
 10
1.72265
 20
0.177137
 30
0.0
 40
0
 41
0
  0
SEQEND
 8
0
  0
POLYLINE
  8
0
 62
     1
 66
     1
 10
0
 20
0
 30
0.0
 70
     1
 40
0
 41
0
  0
VERTEX
  8
0
 10
1.74924
 20
0.176594
 30
0.0
 40
0
 41
0
  0
VERTEX
  8
0
 10
1.74924
 20
0.176921
 30
0.0
 40
0
 41
0
  0
VERTEX
  8
0
 10
1.74832
 20
0.177897
 30
0.0
 40
0
 41
0
  0
VERTEX
  8
0
 10
1.74804
 20
0.177897
 30
0.0
 40
0
 41
0
  0
VERTEX
  8
0
 10
1.7474
 20
0.177192
 30
0.0
 40
0
 41
0
  0
VERTEX
  8
0
 10
1.74214
 20
0.174914
 30
0.0
 40
0
 41
0
  0
VERTEX
  8
0
 10
1.7404
 20
0.174914
 30
0.0
 40
0
 41
0
  0
VERTEX
  8
0
 10
1.7404
 20
0.173178
 30
0.0
 40
0
 41
0
  0
VERTEX
  8
0
 10
1.74181
 20
0.173178
 30
0.0
 40
0
 41
0
  0
VERTEX
  8
0
 10
1.7455
 20
0.174154
 30
0.0
 40
0
 41
0
  0
VERTEX
  8
0
 10
1.74604
 20
0.174479
 30
0.0
 40
0
 41
0
  0
VERTEX
  8
0
 10
1.74604
 20
0.150228
 30
0.0
 40
0
 41
0
  0
VERTEX
  8
0
 10
1.74604
 20
0.149685
 30
0.0
 40
0
 41
0
  0
VERTEX
  8
0
 10
1.74311
 20
0.148004
 30
0.0
 40
0
 41
0
  0
VERTEX
  8
0
 10
1.74214
 20
0.148004
 30
0.0
 40
0
 41
0
  0
VERTEX
  8
0
 10
1.74067
 20
0.148004
 30
0.0
 40
0
 41
0
  0
VERTEX
  8
0
 10
1.74067
 20
0.146322
 30
0.0
 40
0
 41
0
  0
VERTEX
  8
0
 10
1.7424
 20
0.146322
 30
0.0
 40
0
 41
0
  0
VERTEX
  8
0
 10
1.74631
 20
0.146539
 30
0.0
 40
0
 41
0
  0
VERTEX
  8
0
 10
1.74761
 20
0.146539
 30
0.0
 40
0
 41
0
  0
VERTEX
  8
0
 10
1.74935
 20
0.146539
 30
0.0
 40
0
 41
0
  0
VERTEX
  8
0
 10
1.75336
 20
0.146322
 30
0.0
 40
0
 41
0
  0
VERTEX
  8
0
 10
1.75472
 20
0.146322
 30
0.0
 40
0
 41
0
  0
VERTEX
  8
0
 10
1.75472
 20
0.148004
 30
0.0
 40
0
 41
0
  0
VERTEX
  8
0
 10
1.75319
 20
0.148004
 30
0.0
 40
0
 41
0
  0
VERTEX
  8
0
 10
1.75217
 20
0.148004
 30
0.0
 40
0
 41
0
  0
VERTEX
  8
0
 10
1.74924
 20
0.149685
 30
0.0
 40
0
 41
0
  0
VERTEX
  8
0
 10
1.74924
 20
0.150228
 30
0.0
 40
0
 41
0
  0
VERTEX
  8
0
 10
1.74924
 20
0.176594
 30
0.0
 40
0
 41
0
  0
SEQEND
 8
0
  0
POLYLINE
  8
0
 62
     1
 66
     1
 10
0
 20
0
 30
0.0
 70
     1
 40
0
 41
0
  0
VERTEX
  8
0
 10
1.49229
 20
0.326824
 30
0.0
 40
0
 41
0
  0
VERTEX
  8
0
 10
1.49235
 20
0.327257
 30
0.0
 40
0
 41
0
  0
VERTEX
  8
0
 10
1.49642
 20
0.334853
 30
0.0
 40
0
 41
0
  0
VERTEX
  8
0
 10
1.49783
 20
0.334853
 30
0.0
 40
0
 41
0
  0
VERTEX
  8
0
 10
1.49854
 20
0.334853
 30
0.0
 40
0
 41
0
  0
VERTEX
  8
0
 10
1.50038
 20
0.334201
 30
0.0
 40
0
 41
0
  0
VERTEX
  8
0
 10
1.50071
 20
0.333985
 30
0.0
 40
0
 41
0
  0
VERTEX
  8
0
 10
1.50028
 20
0.333876
 30
0.0
 40
0
 41
0
  0
VERTEX
  8
0
 10
1.49804
 20
0.331164
 30
0.0
 40
0
 41
0
  0
VERTEX
  8
0
 10
1.49804
 20
0.33024
 30
0.0
 40
0
 41
0
  0
VERTEX
  8
0
 10
1.49804
 20
0.329699
 30
0.0
 40
0
 41
0
  0
VERTEX
  8
0
 10
1.49963
 20
0.327908
 30
0.0
 40
0
 41
0
  0
VERTEX
  8
0
 10
1.50017
 20
0.327908
 30
0.0
 40
0
 41
0
  0
VERTEX
  8
0
 10
1.50088
 20
0.327908
 30
0.0
 40
0
 41
0
  0
VERTEX
  8
0
 10
1.50315
 20
0.330837
 30
0.0
 40
0
 41
0
  0
VERTEX
  8
0
 10
1.50315
 20
0.331814
 30
0.0
 40
0
 41
0
  0
VERTEX
  8
0
 10
1.50315
 20
0.332954
 30
0.0
 40
0
 41
0
  0
VERTEX
  8
0
 10
1.49924
 20
0.336317
 30
0.0
 40
0
 41
0
  0
VERTEX
  8
0
 10
1.49794
 20
0.336317
 30
0.0
 40
0
 41
0
  0
VERTEX
  8
0
 10
1.49642
 20
0.336317
 30
0.0
 40
0
 41
0
  0
VERTEX
  8
0
 10
1.49219
 20
0.331597
 30
0.0
 40
0
 41
0
  0
VERTEX
  8
0
 10
1.49203
 20
0.331218
 30
0.0
 40
0
 41
0
  0
VERTEX
  8
0
 10
1.49164
 20
0.332357
 30
0.0
 40
0
 41
0
  0
VERTEX
  8
0
 10
1.48731
 20
0.336317
 30
0.0
 40
0
 41
0
  0
VERTEX
  8
0
 10
1.48589
 20
0.336317
 30
0.0
 40
0
 41
0
  0
VERTEX
  8
0
 10
1.48415
 20
0.336317
 30
0.0
 40
0
 41
0
  0
VERTEX
  8
0
 10
1.47911
 20
0.33176
 30
0.0
 40
0
 41
0
  0
VERTEX
  8
0
 10
1.47678
 20
0.327365
 30
0.0
 40
0
 41
0
  0
VERTEX
  8
0
 10
1.47678
 20
0.325846
 30
0.0
 40
0
 41
0
  0
VERTEX
  8
0
 10
1.47678
 20
0.325683
 30
0.0
 40
0
 41
0
  0
VERTEX
  8
0
 10
1.47726
 20
0.325087
 30
0.0
 40
0
 41
0
  0
VERTEX
  8
0
 10
1.47749
 20
0.325087
 30
0.0
 40
0
 41
0
  0
VERTEX
  8
0
 10
1.47765
 20
0.325087
 30
0.0
 40
0
 41
0
  0
VERTEX
  8
0
 10
1.47819
 20
0.325738
 30
0.0
 40
0
 41
0
  0
VERTEX
  8
0
 10
1.47825
 20
0.325846
 30
0.0
 40
0
 41
0
  0
VERTEX
  8
0
 10
1.47868
 20
0.327692
 30
0.0
 40
0
 41
0
  0
VERTEX
  8
0
 10
1.48406
 20
0.334853
 30
0.0
 40
0
 41
0
  0
VERTEX
  8
0
 10
1.48583
 20
0.334853
 30
0.0
 40
0
 41
0
  0
VERTEX
  8
0
 10
1.48654
 20
0.334853
 30
0.0
 40
0
 41
0
  0
VERTEX
  8
0
 10
1.48882
 20
0.331435
 30
0.0
 40
0
 41
0
  0
VERTEX
  8
0
 10
1.48882
 20
0.33024
 30
0.0
 40
0
 41
0
  0
VERTEX
  8
0
 10
1.48882
 20
0.326226
 30
0.0
 40
0
 41
0
  0
VERTEX
  8
0
 10
1.48633
 20
0.316461
 30
0.0
 40
0
 41
0
  0
VERTEX
  8
0
 10
1.48583
 20
0.314019
 30
0.0
 40
0
 41
0
  0
VERTEX
  8
0
 10
1.48557
 20
0.312989
 30
0.0
 40
0
 41
0
  0
VERTEX
  8
0
 10
1.48167
 20
0.306967
 30
0.0
 40
0
 41
0
  0
VERTEX
  8
0
 10
1.48042
 20
0.306967
 30
0.0
 40
0
 41
0
  0
VERTEX
  8
0
 10
1.47971
 20
0.306967
 30
0.0
 40
0
 41
0
  0
VERTEX
  8
0
 10
1.47786
 20
0.307617
 30
0.0
 40
0
 41
0
  0
VERTEX
  8
0
 10
1.4776
 20
0.307835
 30
0.0
 40
0
 41
0
  0
VERTEX
  8
0
 10
1.47792
 20
0.307943
 30
0.0
 40
0
 41
0
  0
VERTEX
  8
0
 10
1.48025
 20
0.31071
 30
0.0
 40
0
 41
0
  0
VERTEX
  8
0
 10
1.48025
 20
0.311578
 30
0.0
 40
0
 41
0
  0
VERTEX
  8
0
 10
1.48025
 20
0.312175
 30
0.0
 40
0
 41
0
  0
VERTEX
  8
0
 10
1.47874
 20
0.313911
 30
0.0
 40
0
 41
0
  0
VERTEX
  8
0
 10
1.47825
 20
0.313911
 30
0.0
 40
0
 41
0
  0
VERTEX
  8
0
 10
1.47743
 20
0.313911
 30
0.0
 40
0
 41
0
  0
VERTEX
  8
0
 10
1.4751
 20
0.310981
 30
0.0
 40
0
 41
0
  0
VERTEX
  8
0
 10
1.4751
 20
0.30995
 30
0.0
 40
0
 41
0
  0
VERTEX
  8
0
 10
1.4751
 20
0.308865
 30
0.0
 40
0
 41
0
  0
VERTEX
  8
0
 10
1.479
 20
0.305447
 30
0.0
 40
0
 41
0
  0
VERTEX
  8
0
 10
1.48036
 20
0.305447
 30
0.0
 40
0
 41
0
  0
VERTEX
  8
0
 10
1.48182
 20
0.305447
 30
0.0
 40
0
 41
0
  0
VERTEX
  8
0
 10
1.48622
 20
0.310547
 30
0.0
 40
0
 41
0
  0
VERTEX
  8
0
 10
1.48628
 20
0.310601
 30
0.0
 40
0
 41
0
  0
VERTEX
  8
0
 10
1.48643
 20
0.310004
 30
0.0
 40
0
 41
0
  0
VERTEX
  8
0
 10
1.49083
 20
0.305447
 30
0.0
 40
0
 41
0
  0
VERTEX
  8
0
 10
1.49235
 20
0.305447
 30
0.0
 40
0
 41
0
  0
VERTEX
  8
0
 10
1.49403
 20
0.305447
 30
0.0
 40
0
 41
0
  0
VERTEX
  8
0
 10
1.49908
 20
0.310058
 30
0.0
 40
0
 41
0
  0
VERTEX
  8
0
 10
1.50142
 20
0.314453
 30
0.0
 40
0
 41
0
  0
VERTEX
  8
0
 10
1.50142
 20
0.315918
 30
0.0
 40
0
 41
0
  0
VERTEX
  8
0
 10
1.50142
 20
0.316135
 30
0.0
 40
0
 41
0
  0
VERTEX
  8
0
 10
1.50076
 20
0.316678
 30
0.0
 40
0
 41
0
  0
VERTEX
  8
0
 10
1.50076
 20
0.316678
 30
0.0
 40
0
 41
0
  0
VERTEX
  8
0
 10
1.50054
 20
0.316678
 30
0.0
 40
0
 41
0
  0
VERTEX
  8
0
 10
1.5
 20
0.316026
 30
0.0
 40
0
 41
0
  0
VERTEX
  8
0
 10
1.49994
 20
0.315918
 30
0.0
 40
0
 41
0
  0
VERTEX
  8
0
 10
1.49946
 20
0.314074
 30
0.0
 40
0
 41
0
  0
VERTEX
  8
0
 10
1.49425
 20
0.306967
 30
0.0
 40
0
 41
0
  0
VERTEX
  8
0
 10
1.49257
 20
0.306967
 30
0.0
 40
0
 41
0
  0
VERTEX
  8
0
 10
1.49175
 20
0.306967
 30
0.0
 40
0
 41
0
  0
VERTEX
  8
0
 10
1.48947
 20
0.310385
 30
0.0
 40
0
 41
0
  0
VERTEX
  8
0
 10
1.48947
 20
0.311469
 30
0.0
 40
0
 41
0
  0
VERTEX
  8
0
 10
1.48947
 20
0.312989
 30
0.0
 40
0
 41
0
  0
VERTEX
  8
0
 10
1.49018
 20
0.316732
 30
0.0
 40
0
 41
0
  0
VERTEX
  8
0
 10
1.49035
 20
0.317437
 30
0.0
 40
0
 41
0
  0
VERTEX
  8
0
 10
1.49229
 20
0.326824
 30
0.0
 40
0
 41
0
  0
SEQEND
 8
0
  0
POLYLINE
  8
0
 62
     1
 66
     1
 10
0
 20
0
 30
0.0
 70
     1
 40
0
 41
0
  0
VERTEX
  8
0
 10
1.52556
 20
0.304633
 30
0.0
 40
0
 41
0
  0
VERTEX
  8
0
 10
1.52425
 20
0.304633
 30
0.0
 40
0
 41
0
  0
VERTEX
  8
0
 10
1.52419
 20
0.304417
 30
0.0
 40
0
 41
0
  0
VERTEX
  8
0
 10
1.52328
 20
0.30051
 30
0.0
 40
0
 41
0
  0
VERTEX
  8
0
 10
1.52317
 20
0.300401
 30
0.0
 40
0
 41
0
  0
VERTEX
  8
0
 10
1.52306
 20
0.300347
 30
0.0
 40
0
 41
0
  0
VERTEX
  8
0
 10
1.52018
 20
0.300076
 30
0.0
 40
0
 41
0
  0
VERTEX
  8
0
 10
1.51926
 20
0.300076
 30
0.0
 40
0
 41
0
  0
VERTEX
  8
0
 10
1.51204
 20
0.300076
 30
0.0
 40
0
 41
0
  0
VERTEX
  8
0
 10
1.51307
 20
0.301161
 30
0.0
 40
0
 41
0
  0
VERTEX
  8
0
 10
1.51932
 20
0.307508
 30
0.0
 40
0
 41
0
  0
VERTEX
  8
0
 10
1.51992
 20
0.308051
 30
0.0
 40
0
 41
0
  0
VERTEX
  8
0
 10
1.52061
 20
0.308757
 30
0.0
 40
0
 41
0
  0
VERTEX
  8
0
 10
1.52556
 20
0.315918
 30
0.0
 40
0
 41
0
  0
VERTEX
  8
0
 10
1.52556
 20
0.318306
 30
0.0
 40
0
 41
0
  0
VERTEX
  8
0
 10
1.52556
 20
0.320637
 30
0.0
 40
0
 41
0
  0
VERTEX
  8
0
 10
1.51867
 20
0.327582
 30
0.0
 40
0
 41
0
  0
VERTEX
  8
0
 10
1.51639
 20
0.327582
 30
0.0
 40
0
 41
0
  0
VERTEX
  8
0
 10
1.51432
 20
0.327582
 30
0.0
 40
0
 41
0
  0
VERTEX
  8
0
 10
1.50814
 20
0.321235
 30
0.0
 40
0
 41
0
  0
VERTEX
  8
0
 10
1.50814
 20
0.319065
 30
0.0
 40
0
 41
0
  0
VERTEX
  8
0
 10
1.50814
 20
0.318414
 30
0.0
 40
0
 41
0
  0
VERTEX
  8
0
 10
1.50971
 20
0.316407
 30
0.0
 40
0
 41
0
  0
VERTEX
  8
0
 10
1.51025
 20
0.316407
 30
0.0
 40
0
 41
0
  0
VERTEX
  8
0
 10
1.51074
 20
0.316407
 30
0.0
 40
0
 41
0
  0
VERTEX
  8
0
 10
1.51232
 20
0.31836
 30
0.0
 40
0
 41
0
  0
VERTEX
  8
0
 10
1.51232
 20
0.318956
 30
0.0
 40
0
 41
0
  0
VERTEX
  8
0
 10
1.51232
 20
0.319607
 30
0.0
 40
0
 41
0
  0
VERTEX
  8
0
 10
1.51053
 20
0.321506
 30
0.0
 40
0
 41
0
  0
VERTEX
  8
0
 10
1.50999
 20
0.321506
 30
0.0
 40
0
 41
0
  0
VERTEX
  8
0
 10
1.51025
 20
0.322374
 30
0.0
 40
0
 41
0
  0
VERTEX
  8
0
 10
1.51432
 20
0.3259
 30
0.0
 40
0
 41
0
  0
VERTEX
  8
0
 10
1.51574
 20
0.3259
 30
0.0
 40
0
 41
0
  0
VERTEX
  8
0
 10
1.51719
 20
0.3259
 30
0.0
 40
0
 41
0
  0
VERTEX
  8
0
 10
1.52175
 20
0.320204
 30
0.0
 40
0
 41
0
  0
VERTEX
  8
0
 10
1.52175
 20
0.318306
 30
0.0
 40
0
 41
0
  0
VERTEX
  8
0
 10
1.52175
 20
0.316081
 30
0.0
 40
0
 41
0
  0
VERTEX
  8
0
 10
1.51833
 20
0.309679
 30
0.0
 40
0
 41
0
  0
VERTEX
  8
0
 10
1.51807
 20
0.309244
 30
0.0
 40
0
 41
0
  0
VERTEX
  8
0
 10
1.50857
 20
0.297797
 30
0.0
 40
0
 41
0
  0
VERTEX
  8
0
 10
1.50846
 20
0.297743
 30
0.0
 40
0
 41
0
  0
VERTEX
  8
0
 10
1.50814
 20
0.296442
 30
0.0
 40
0
 41
0
  0
VERTEX
  8
0
 10
1.50814
 20
0.296007
 30
0.0
 40
0
 41
0
  0
VERTEX
  8
0
 10
1.52442
 20
0.296007
 30
0.0
 40
0
 41
0
  0
VERTEX
  8
0
 10
1.52556
 20
0.304633
 30
0.0
 40
0
 41
0
  0
SEQEND
 8
0
  0
POLYLINE
  8
0
 62
     0
 66
     1
 10
0
 20
0
 30
0.0
 70
     1
 40
0.106027
 41
0.106027
  0
VERTEX
  8
0
 10
1.99501
 20
0.69005
 30
0.0
 40
0.0014726
 41
0.0014726
  0
VERTEX
  8
0
 10
2.35889
 20
0.69005
 30
0.0
 40
0.0014726
 41
0.0014726
  0
VERTEX
  8
0
 10
2.36546
 20
0.69005
 30
0.0
 40
0.0014726
 41
0.0014726
  0
VERTEX
  8
0
 10
2.38519
 20
0.679199
 30
0.0
 40
0.0014726
 41
0.0014726
  0
VERTEX
  8
0
 10
2.39606
 20
0.659506
 30
0.0
 40
0.0014726
 41
0.0014726
  0
VERTEX
  8
0
 10
2.39606
 20
0.652886
 30
0.0
 40
0.0014726
 41
0.0014726
  0
VERTEX
  8
0
 10
2.39606
 20
0.0999349
 30
0.0
 40
0.0014726
 41
0.0014726
  0
VERTEX
  8
0
 10
2.39606
 20
0.0933703
 30
0.0
 40
0.0014726
 41
0.0014726
  0
VERTEX
  8
0
 10
2.38519
 20
0.0736219
 30
0.0
 40
0.0014726
 41
0.0014726
  0
VERTEX
  8
0
 10
2.36546
 20
0.0627171
 30
0.0
 40
0.0014726
 41
0.0014726
  0
VERTEX
  8
0
 10
2.35889
 20
0.0627171
 30
0.0
 40
0.0014726
 41
0.0014726
  0
VERTEX
  8
0
 10
1.99501
 20
0.0627171
 30
0.0
 40
0.0014726
 41
0.0014726
  0
VERTEX
  8
0
 10
1.98839
 20
0.0627171
 30
0.0
 40
0.0014726
 41
0.0014726
  0
VERTEX
  8
0
 10
1.96864
 20
0.0736219
 30
0.0
 40
0.0014726
 41
0.0014726
  0
VERTEX
  8
0
 10
1.95779
 20
0.0933703
 30
0.0
 40
0.0014726
 41
0.0014726
  0
VERTEX
  8
0
 10
1.95779
 20
0.0999349
 30
0.0
 40
0.0014726
 41
0.0014726
  0
VERTEX
  8
0
 10
1.95779
 20
0.652886
 30
0.0
 40
0.0014726
 41
0.0014726
  0
VERTEX
  8
0
 10
1.95779
 20
0.659506
 30
0.0
 40
0.0014726
 41
0.0014726
  0
VERTEX
  8
0
 10
1.96864
 20
0.679199
 30
0.0
 40
0.0014726
 41
0.0014726
  0
VERTEX
  8
0
 10
1.98839
 20
0.69005
 30
0.0
 40
0.0014726
 41
0.0014726
  0
VERTEX
  8
0
 10
1.99501
 20
0.69005
 30
0.0
 40
0.0014726
 41
0.0014726
  0
SEQEND
 8
0
  0
POLYLINE
  8
0
 62
     0
 66
     1
 10
0
 20
0
 30
0.0
 70
     1
 40
0
 41
0
  0
VERTEX
  8
0
 10
2.26221
 20
0.360786
 30
0.0
 40
0
 41
0
  0
VERTEX
  8
0
 10
2.26275
 20
0.35905
 30
0.0
 40
0
 41
0
  0
VERTEX
  8
0
 10
2.26574
 20
0.349501
 30
0.0
 40
0
 41
0
  0
VERTEX
  8
0
 10
2.26801
 20
0.342665
 30
0.0
 40
0
 41
0
  0
VERTEX
  8
0
 10
2.26828
 20
0.342285
 30
0.0
 40
0
 41
0
  0
VERTEX
  8
0
 10
2.2685
 20
0.34196
 30
0.0
 40
0
 41
0
  0
VERTEX
  8
0
 10
2.27067
 20
0.340821
 30
0.0
 40
0
 41
0
  0
VERTEX
  8
0
 10
2.27143
 20
0.340821
 30
0.0
 40
0
 41
0
  0
VERTEX
  8
0
 10
2.27268
 20
0.340821
 30
0.0
 40
0
 41
0
  0
VERTEX
  8
0
 10
2.27279
 20
0.340875
 30
0.0
 40
0
 41
0
  0
VERTEX
  8
0
 10
2.27333
 20
0.341308
 30
0.0
 40
0
 41
0
  0
VERTEX
  8
0
 10
2.27333
 20
0.341417
 30
0.0
 40
0
 41
0
  0
VERTEX
  8
0
 10
2.27333
 20
0.341581
 30
0.0
 40
0
 41
0
  0
VERTEX
  8
0
 10
2.273
 20
0.342014
 30
0.0
 40
0
 41
0
  0
VERTEX
  8
0
 10
2.27294
 20
0.342068
 30
0.0
 40
0
 41
0
  0
VERTEX
  8
0
 10
2.27279
 20
0.342285
 30
0.0
 40
0
 41
0
  0
VERTEX
  8
0
 10
2.27175
 20
0.344781
 30
0.0
 40
0
 41
0
  0
VERTEX
  8
0
 10
2.27171
 20
0.345053
 30
0.0
 40
0
 41
0
  0
VERTEX
  8
0
 10
2.25982
 20
0.382596
 30
0.0
 40
0
 41
0
  0
VERTEX
  8
0
 10
2.2595
 20
0.383572
 30
0.0
 40
0
 41
0
  0
VERTEX
  8
0
 10
2.25439
 20
0.387369
 30
0.0
 40
0
 41
0
  0
VERTEX
  8
0
 10
2.25271
 20
0.387369
 30
0.0
 40
0
 41
0
  0
VERTEX
  8
0
 10
2.25239
 20
0.387369
 30
0.0
 40
0
 41
0
  0
VERTEX
  8
0
 10
2.25157
 20
0.386828
 30
0.0
 40
0
 41
0
  0
VERTEX
  8
0
 10
2.25157
 20
0.38661
 30
0.0
 40
0
 41
0
  0
VERTEX
  8
0
 10
2.25157
 20
0.386447
 30
0.0
 40
0
 41
0
  0
VERTEX
  8
0
 10
2.25201
 20
0.385906
 30
0.0
 40
0
 41
0
  0
VERTEX
  8
0
 10
2.25217
 20
0.385906
 30
0.0
 40
0
 41
0
  0
VERTEX
  8
0
 10
2.25261
 20
0.385851
 30
0.0
 40
0
 41
0
  0
VERTEX
  8
0
 10
2.25558
 20
0.381782
 30
0.0
 40
0
 41
0
  0
VERTEX
  8
0
 10
2.25597
 20
0.380643
 30
0.0
 40
0
 41
0
  0
VERTEX
  8
0
 10
2.26156
 20
0.362739
 30
0.0
 40
0
 41
0
  0
VERTEX
  8
0
 10
2.2455
 20
0.344672
 30
0.0
 40
0
 41
0
  0
VERTEX
  8
0
 10
2.24533
 20
0.344456
 30
0.0
 40
0
 41
0
  0
VERTEX
  8
0
 10
2.24447
 20
0.343044
 30
0.0
 40
0
 41
0
  0
VERTEX
  8
0
 10
2.24447
 20
0.342557
 30
0.0
 40
0
 41
0
  0
VERTEX
  8
0
 10
2.24447
 20
0.342122
 30
0.0
 40
0
 41
0
  0
VERTEX
  8
0
 10
2.24576
 20
0.340712
 30
0.0
 40
0
 41
0
  0
VERTEX
  8
0
 10
2.24621
 20
0.340712
 30
0.0
 40
0
 41
0
  0
VERTEX
  8
0
 10
2.24664
 20
0.340712
 30
0.0
 40
0
 41
0
  0
VERTEX
  8
0
 10
2.24799
 20
0.341906
 30
0.0
 40
0
 41
0
  0
VERTEX
  8
0
 10
2.2481
 20
0.342068
 30
0.0
 40
0
 41
0
  0
VERTEX
  8
0
 10
2.26221
 20
0.360786
 30
0.0
 40
0
 41
0
  0
SEQEND
 8
0
  0
POLYLINE
  8
0
 62
     0
 66
     1
 10
0
 20
0
 30
0.0
 70
     1
 40
0
 41
0
  0
VERTEX
  8
0
 10
2.3036
 20
0.366699
 30
0.0
 40
0
 41
0
  0
VERTEX
  8
0
 10
2.30365
 20
0.366971
 30
0.0
 40
0
 41
0
  0
VERTEX
  8
0
 10
2.30387
 20
0.367947
 30
0.0
 40
0
 41
0
  0
VERTEX
  8
0
 10
2.30387
 20
0.368218
 30
0.0
 40
0
 41
0
  0
VERTEX
  8
0
 10
2.30387
 20
0.368707
 30
0.0
 40
0
 41
0
  0
VERTEX
  8
0
 10
2.30257
 20
0.370008
 30
0.0
 40
0
 41
0
  0
VERTEX
  8
0
 10
2.30214
 20
0.370008
 30
0.0
 40
0
 41
0
  0
VERTEX
  8
0
 10
2.30214
 20
0.370008
 30
0.0
 40
0
 41
0
  0
VERTEX
  8
0
 10
2.30024
 20
0.368924
 30
0.0
 40
0
 41
0
  0
VERTEX
  8
0
 10
2.30012
 20
0.368653
 30
0.0
 40
0
 41
0
  0
VERTEX
  8
0
 10
2.30007
 20
0.368544
 30
0.0
 40
0
 41
0
  0
VERTEX
  8
0
 10
2.29937
 20
0.365343
 30
0.0
 40
0
 41
0
  0
VERTEX
  8
0
 10
2.29932
 20
0.365018
 30
0.0
 40
0
 41
0
  0
VERTEX
  8
0
 10
2.29921
 20
0.364638
 30
0.0
 40
0
 41
0
  0
VERTEX
  8
0
 10
2.29818
 20
0.360189
 30
0.0
 40
0
 41
0
  0
VERTEX
  8
0
 10
2.29812
 20
0.359754
 30
0.0
 40
0
 41
0
  0
VERTEX
  8
0
 10
2.29551
 20
0.347874
 30
0.0
 40
0
 41
0
  0
VERTEX
  8
0
 10
2.29546
 20
0.347657
 30
0.0
 40
0
 41
0
  0
VERTEX
  8
0
 10
2.29053
 20
0.342285
 30
0.0
 40
0
 41
0
  0
VERTEX
  8
0
 10
2.2889
 20
0.342285
 30
0.0
 40
0
 41
0
  0
VERTEX
  8
0
 10
2.28797
 20
0.342285
 30
0.0
 40
0
 41
0
  0
VERTEX
  8
0
 10
2.28537
 20
0.346354
 30
0.0
 40
0
 41
0
  0
VERTEX
  8
0
 10
2.28537
 20
0.347657
 30
0.0
 40
0
 41
0
  0
VERTEX
  8
0
 10
2.28537
 20
0.350911
 30
0.0
 40
0
 41
0
  0
VERTEX
  8
0
 10
2.28782
 20
0.359158
 30
0.0
 40
0
 41
0
  0
VERTEX
  8
0
 10
2.28831
 20
0.360568
 30
0.0
 40
0
 41
0
  0
VERTEX
  8
0
 10
2.28851
 20
0.361274
 30
0.0
 40
0
 41
0
  0
VERTEX
  8
0
 10
2.2895
 20
0.364367
 30
0.0
 40
0
 41
0
  0
VERTEX
  8
0
 10
2.2895
 20
0.365343
 30
0.0
 40
0
 41
0
  0
VERTEX
  8
0
 10
2.2895
 20
0.366699
 30
0.0
 40
0
 41
0
  0
VERTEX
  8
0
 10
2.28592
 20
0.370714
 30
0.0
 40
0
 41
0
  0
VERTEX
  8
0
 10
2.28472
 20
0.370714
 30
0.0
 40
0
 41
0
  0
VERTEX
  8
0
 10
2.28321
 20
0.370714
 30
0.0
 40
0
 41
0
  0
VERTEX
  8
0
 10
2.27875
 20
0.365886
 30
0.0
 40
0
 41
0
  0
VERTEX
  8
0
 10
2.27707
 20
0.361925
 30
0.0
 40
0
 41
0
  0
VERTEX
  8
0
 10
2.27707
 20
0.360568
 30
0.0
 40
0
 41
0
  0
VERTEX
  8
0
 10
2.27707
 20
0.360406
 30
0.0
 40
0
 41
0
  0
VERTEX
  8
0
 10
2.2775
 20
0.359864
 30
0.0
 40
0
 41
0
  0
VERTEX
  8
0
 10
2.27767
 20
0.359864
 30
0.0
 40
0
 41
0
  0
VERTEX
  8
0
 10
2.27789
 20
0.359864
 30
0.0
 40
0
 41
0
  0
VERTEX
  8
0
 10
2.27849
 20
0.360894
 30
0.0
 40
0
 41
0
  0
VERTEX
  8
0
 10
2.2786
 20
0.361111
 30
0.0
 40
0
 41
0
  0
VERTEX
  8
0
 10
2.27897
 20
0.362685
 30
0.0
 40
0
 41
0
  0
VERTEX
  8
0
 10
2.28315
 20
0.369249
 30
0.0
 40
0
 41
0
  0
VERTEX
  8
0
 10
2.28456
 20
0.369249
 30
0.0
 40
0
 41
0
  0
VERTEX
  8
0
 10
2.28489
 20
0.369249
 30
0.0
 40
0
 41
0
  0
VERTEX
  8
0
 10
2.28603
 20
0.367731
 30
0.0
 40
0
 41
0
  0
VERTEX
  8
0
 10
2.28603
 20
0.367188
 30
0.0
 40
0
 41
0
  0
VERTEX
  8
0
 10
2.28603
 20
0.366049
 30
0.0
 40
0
 41
0
  0
VERTEX
  8
0
 10
2.28504
 20
0.362847
 30
0.0
 40
0
 41
0
  0
VERTEX
  8
0
 10
2.285
 20
0.362522
 30
0.0
 40
0
 41
0
  0
VERTEX
  8
0
 10
2.2844
 20
0.360786
 30
0.0
 40
0
 41
0
  0
VERTEX
  8
0
 10
2.28162
 20
0.351725
 30
0.0
 40
0
 41
0
  0
VERTEX
  8
0
 10
2.28162
 20
0.348687
 30
0.0
 40
0
 41
0
  0
VERTEX
  8
0
 10
2.28162
 20
0.346733
 30
0.0
 40
0
 41
0
  0
VERTEX
  8
0
 10
2.28694
 20
0.340821
 30
0.0
 40
0
 41
0
  0
VERTEX
  8
0
 10
2.28874
 20
0.340821
 30
0.0
 40
0
 41
0
  0
VERTEX
  8
0
 10
2.29021
 20
0.340821
 30
0.0
 40
0
 41
0
  0
VERTEX
  8
0
 10
2.29417
 20
0.343371
 30
0.0
 40
0
 41
0
  0
VERTEX
  8
0
 10
2.2946
 20
0.343804
 30
0.0
 40
0
 41
0
  0
VERTEX
  8
0
 10
2.29438
 20
0.34299
 30
0.0
 40
0
 41
0
  0
VERTEX
  8
0
 10
2.29139
 20
0.334472
 30
0.0
 40
0
 41
0
  0
VERTEX
  8
0
 10
2.29085
 20
0.333604
 30
0.0
 40
0
 41
0
  0
VERTEX
  8
0
 10
2.29042
 20
0.333062
 30
0.0
 40
0
 41
0
  0
VERTEX
  8
0
 10
2.28592
 20
0.329428
 30
0.0
 40
0
 41
0
  0
VERTEX
  8
0
 10
2.28444
 20
0.329428
 30
0.0
 40
0
 41
0
  0
VERTEX
  8
0
 10
2.28331
 20
0.329428
 30
0.0
 40
0
 41
0
  0
VERTEX
  8
0
 10
2.28022
 20
0.331597
 30
0.0
 40
0
 41
0
  0
VERTEX
  8
0
 10
2.28
 20
0.332249
 30
0.0
 40
0
 41
0
  0
VERTEX
  8
0
 10
2.2806
 20
0.332249
 30
0.0
 40
0
 41
0
  0
VERTEX
  8
0
 10
2.28222
 20
0.3329
 30
0.0
 40
0
 41
0
  0
VERTEX
  8
0
 10
2.28244
 20
0.333062
 30
0.0
 40
0
 41
0
  0
VERTEX
  8
0
 10
2.28261
 20
0.333225
 30
0.0
 40
0
 41
0
  0
VERTEX
  8
0
 10
2.28364
 20
0.335178
 30
0.0
 40
0
 41
0
  0
VERTEX
  8
0
 10
2.28364
 20
0.335775
 30
0.0
 40
0
 41
0
  0
VERTEX
  8
0
 10
2.28364
 20
0.336372
 30
0.0
 40
0
 41
0
  0
VERTEX
  8
0
 10
2.28201
 20
0.338053
 30
0.0
 40
0
 41
0
  0
VERTEX
  8
0
 10
2.28153
 20
0.338053
 30
0.0
 40
0
 41
0
  0
VERTEX
  8
0
 10
2.28071
 20
0.338053
 30
0.0
 40
0
 41
0
  0
VERTEX
  8
0
 10
2.27826
 20
0.334853
 30
0.0
 40
0
 41
0
  0
VERTEX
  8
0
 10
2.27826
 20
0.333768
 30
0.0
 40
0
 41
0
  0
VERTEX
  8
0
 10
2.27826
 20
0.332357
 30
0.0
 40
0
 41
0
  0
VERTEX
  8
0
 10
2.28288
 20
0.328017
 30
0.0
 40
0
 41
0
  0
VERTEX
  8
0
 10
2.28444
 20
0.328017
 30
0.0
 40
0
 41
0
  0
VERTEX
  8
0
 10
2.28651
 20
0.328017
 30
0.0
 40
0
 41
0
  0
VERTEX
  8
0
 10
2.29281
 20
0.331976
 30
0.0
 40
0
 41
0
  0
VERTEX
  8
0
 10
2.29764
 20
0.339572
 30
0.0
 40
0
 41
0
  0
VERTEX
  8
0
 10
2.29807
 20
0.341417
 30
0.0
 40
0
 41
0
  0
VERTEX
  8
0
 10
2.3036
 20
0.366699
 30
0.0
 40
0
 41
0
  0
SEQEND
 8
0
  0
POLYLINE
  8
0
 62
     0
 66
     1
 10
0
 20
0
 30
0.0
 70
     1
 40
0
 41
0
  0
VERTEX
  8
0
 10
2.17057
 20
0.575032
 30
0.0
 40
0
 41
0
  0
VERTEX
  8
0
 10
2.17057
 20
0.575467
 30
0.0
 40
0
 41
0
  0
VERTEX
  8
0
 10
2.1696
 20
0.57666
 30
0.0
 40
0
 41
0
  0
VERTEX
  8
0
 10
2.16928
 20
0.57666
 30
0.0
 40
0
 41
0
  0
VERTEX
  8
0
 10
2.16829
 20
0.57666
 30
0.0
 40
0
 41
0
  0
VERTEX
  8
0
 10
2.16797
 20
0.57666
 30
0.0
 40
0
 41
0
  0
VERTEX
  8
0
 10
2.16704
 20
0.577094
 30
0.0
 40
0
 41
0
  0
VERTEX
  8
0
 10
2.16699
 20
0.577203
 30
0.0
 40
0
 41
0
  0
VERTEX
  8
0
 10
2.16635
 20
0.578287
 30
0.0
 40
0
 41
0
  0
VERTEX
  8
0
 10
2.16103
 20
0.582465
 30
0.0
 40
0
 41
0
  0
VERTEX
  8
0
 10
2.15929
 20
0.582465
 30
0.0
 40
0
 41
0
  0
VERTEX
  8
0
 10
2.15733
 20
0.582465
 30
0.0
 40
0
 41
0
  0
VERTEX
  8
0
 10
2.15153
 20
0.578233
 30
0.0
 40
0
 41
0
  0
VERTEX
  8
0
 10
2.14822
 20
0.57015
 30
0.0
 40
0
 41
0
  0
VERTEX
  8
0
 10
2.14822
 20
0.567437
 30
0.0
 40
0
 41
0
  0
VERTEX
  8
0
 10
2.14822
 20
0.564779
 30
0.0
 40
0
 41
0
  0
VERTEX
  8
0
 10
2.15153
 20
0.556803
 30
0.0
 40
0
 41
0
  0
VERTEX
  8
0
 10
2.15733
 20
0.552518
 30
0.0
 40
0
 41
0
  0
VERTEX
  8
0
 10
2.15929
 20
0.552518
 30
0.0
 40
0
 41
0
  0
VERTEX
  8
0
 10
2.16114
 20
0.552518
 30
0.0
 40
0
 41
0
  0
VERTEX
  8
0
 10
2.16629
 20
0.55664
 30
0.0
 40
0
 41
0
  0
VERTEX
  8
0
 10
2.16672
 20
0.557346
 30
0.0
 40
0
 41
0
  0
VERTEX
  8
0
 10
2.16683
 20
0.556478
 30
0.0
 40
0
 41
0
  0
VERTEX
  8
0
 10
2.17096
 20
0.552518
 30
0.0
 40
0
 41
0
  0
VERTEX
  8
0
 10
2.17236
 20
0.552518
 30
0.0
 40
0
 41
0
  0
VERTEX
  8
0
 10
2.1735
 20
0.552518
 30
0.0
 40
0
 41
0
  0
VERTEX
  8
0
 10
2.17703
 20
0.556967
 30
0.0
 40
0
 41
0
  0
VERTEX
  8
0
 10
2.17806
 20
0.564453
 30
0.0
 40
0
 41
0
  0
VERTEX
  8
0
 10
2.17806
 20
0.566894
 30
0.0
 40
0
 41
0
  0
VERTEX
  8
0
 10
2.17806
 20
0.57156
 30
0.0
 40
0
 41
0
  0
VERTEX
  8
0
 10
2.1721
 20
0.585449
 30
0.0
 40
0
 41
0
  0
VERTEX
  8
0
 10
2.16254
 20
0.59196
 30
0.0
 40
0
 41
0
  0
VERTEX
  8
0
 10
2.1594
 20
0.59196
 30
0.0
 40
0
 41
0
  0
VERTEX
  8
0
 10
2.15608
 20
0.59196
 30
0.0
 40
0
 41
0
  0
VERTEX
  8
0
 10
2.14615
 20
0.584853
 30
0.0
 40
0
 41
0
  0
VERTEX
  8
0
 10
2.14074
 20
0.571832
 30
0.0
 40
0
 41
0
  0
VERTEX
  8
0
 10
2.14074
 20
0.567437
 30
0.0
 40
0
 41
0
  0
VERTEX
  8
0
 10
2.14074
 20
0.563206
 30
0.0
 40
0
 41
0
  0
VERTEX
  8
0
 10
2.146
 20
0.550401
 30
0.0
 40
0
 41
0
  0
VERTEX
  8
0
 10
2.15625
 20
0.542969
 30
0.0
 40
0
 41
0
  0
VERTEX
  8
0
 10
2.15967
 20
0.542969
 30
0.0
 40
0
 41
0
  0
VERTEX
  8
0
 10
2.16217
 20
0.542969
 30
0.0
 40
0
 41
0
  0
VERTEX
  8
0
 10
2.16889
 20
0.544217
 30
0.0
 40
0
 41
0
  0
VERTEX
  8
0
 10
2.16982
 20
0.544487
 30
0.0
 40
0
 41
0
  0
VERTEX
  8
0
 10
2.17014
 20
0.544596
 30
0.0
 40
0
 41
0
  0
VERTEX
  8
0
 10
2.178
 20
0.547418
 30
0.0
 40
0
 41
0
  0
VERTEX
  8
0
 10
2.178
 20
0.54834
 30
0.0
 40
0
 41
0
  0
VERTEX
  8
0
 10
2.178
 20
0.548557
 30
0.0
 40
0
 41
0
  0
VERTEX
  8
0
 10
2.17703
 20
0.5491
 30
0.0
 40
0
 41
0
  0
VERTEX
  8
0
 10
2.17676
 20
0.5491
 30
0.0
 40
0
 41
0
  0
VERTEX
  8
0
 10
2.17622
 20
0.5491
 30
0.0
 40
0
 41
0
  0
VERTEX
  8
0
 10
2.17589
 20
0.5491
 30
0.0
 40
0
 41
0
  0
VERTEX
  8
0
 10
2.17497
 20
0.548936
 30
0.0
 40
0
 41
0
  0
VERTEX
  8
0
 10
2.17492
 20
0.548882
 30
0.0
 40
0
 41
0
  0
VERTEX
  8
0
 10
2.17372
 20
0.548232
 30
0.0
 40
0
 41
0
  0
VERTEX
  8
0
 10
2.16314
 20
0.544487
 30
0.0
 40
0
 41
0
  0
VERTEX
  8
0
 10
2.15967
 20
0.544487
 30
0.0
 40
0
 41
0
  0
VERTEX
  8
0
 10
2.15653
 20
0.544487
 30
0.0
 40
0
 41
0
  0
VERTEX
  8
0
 10
2.14708
 20
0.551432
 30
0.0
 40
0
 41
0
  0
VERTEX
  8
0
 10
2.14214
 20
0.563476
 30
0.0
 40
0
 41
0
  0
VERTEX
  8
0
 10
2.14214
 20
0.567437
 30
0.0
 40
0
 41
0
  0
VERTEX
  8
0
 10
2.14214
 20
0.57156
 30
0.0
 40
0
 41
0
  0
VERTEX
  8
0
 10
2.14729
 20
0.583876
 30
0.0
 40
0
 41
0
  0
VERTEX
  8
0
 10
2.15636
 20
0.590494
 30
0.0
 40
0
 41
0
  0
VERTEX
  8
0
 10
2.1594
 20
0.590494
 30
0.0
 40
0
 41
0
  0
VERTEX
  8
0
 10
2.16222
 20
0.590494
 30
0.0
 40
0
 41
0
  0
VERTEX
  8
0
 10
2.17085
 20
0.58469
 30
0.0
 40
0
 41
0
  0
VERTEX
  8
0
 10
2.17665
 20
0.571018
 30
0.0
 40
0
 41
0
  0
VERTEX
  8
0
 10
2.17665
 20
0.566461
 30
0.0
 40
0
 41
0
  0
VERTEX
  8
0
 10
2.17665
 20
0.564344
 30
0.0
 40
0
 41
0
  0
VERTEX
  8
0
 10
2.176
 20
0.557889
 30
0.0
 40
0
 41
0
  0
VERTEX
  8
0
 10
2.17339
 20
0.554036
 30
0.0
 40
0
 41
0
  0
VERTEX
  8
0
 10
2.17253
 20
0.554036
 30
0.0
 40
0
 41
0
  0
VERTEX
  8
0
 10
2.17204
 20
0.554036
 30
0.0
 40
0
 41
0
  0
VERTEX
  8
0
 10
2.17057
 20
0.558539
 30
0.0
 40
0
 41
0
  0
VERTEX
  8
0
 10
2.17057
 20
0.558539
 30
0.0
 40
0
 41
0
  0
VERTEX
  8
0
 10
2.17057
 20
0.575032
 30
0.0
 40
0
 41
0
  0
SEQEND
 8
0
  0
POLYLINE
  8
0
 62
     0
 66
     1
 10
0
 20
0
 30
0.0
 70
     1
 40
0
 41
0
  0
VERTEX
  8
0
 10
2.16672
 20
0.561632
 30
0.0
 40
0
 41
0
  0
VERTEX
  8
0
 10
2.16672
 20
0.560926
 30
0.0
 40
0
 41
0
  0
VERTEX
  8
0
 10
2.16607
 20
0.559136
 30
0.0
 40
0
 41
0
  0
VERTEX
  8
0
 10
2.1659
 20
0.558757
 30
0.0
 40
0
 41
0
  0
VERTEX
  8
0
 10
2.16525
 20
0.557726
 30
0.0
 40
0
 41
0
  0
VERTEX
  8
0
 10
2.16092
 20
0.554036
 30
0.0
 40
0
 41
0
  0
VERTEX
  8
0
 10
2.1595
 20
0.554036
 30
0.0
 40
0
 41
0
  0
VERTEX
  8
0
 10
2.15815
 20
0.554036
 30
0.0
 40
0
 41
0
  0
VERTEX
  8
0
 10
2.15424
 20
0.557943
 30
0.0
 40
0
 41
0
  0
VERTEX
  8
0
 10
2.15207
 20
0.565104
 30
0.0
 40
0
 41
0
  0
VERTEX
  8
0
 10
2.15207
 20
0.567437
 30
0.0
 40
0
 41
0
  0
VERTEX
  8
0
 10
2.15207
 20
0.570856
 30
0.0
 40
0
 41
0
  0
VERTEX
  8
0
 10
2.15761
 20
0.580946
 30
0.0
 40
0
 41
0
  0
VERTEX
  8
0
 10
2.1595
 20
0.580946
 30
0.0
 40
0
 41
0
  0
VERTEX
  8
0
 10
2.16114
 20
0.580946
 30
0.0
 40
0
 41
0
  0
VERTEX
  8
0
 10
2.16547
 20
0.576986
 30
0.0
 40
0
 41
0
  0
VERTEX
  8
0
 10
2.16601
 20
0.57601
 30
0.0
 40
0
 41
0
  0
VERTEX
  8
0
 10
2.16618
 20
0.575683
 30
0.0
 40
0
 41
0
  0
VERTEX
  8
0
 10
2.16672
 20
0.573947
 30
0.0
 40
0
 41
0
  0
VERTEX
  8
0
 10
2.16672
 20
0.573351
 30
0.0
 40
0
 41
0
  0
VERTEX
  8
0
 10
2.16672
 20
0.561632
 30
0.0
 40
0
 41
0
  0
SEQEND
 8
0
  0
POLYLINE
  8
0
 62
     0
 66
     1
 10
0
 20
0
 30
0.0
 40
0.188254
 41
0.188254
  0
VERTEX
  8
0
 10
2.14985
 20
0.532824
 30
0.0
 40
0.00261464
 41
0.00261464
  0
VERTEX
  8
0
 10
2.13683
 20
0.517524
 30
0.0
 40
0.00261464
 41
0.00261464
  0
VERTEX
  8
0
 10
2.09864
 20
0.470703
 30
0.0
 40
0.00261464
 41
0.00261464
  0
VERTEX
  8
0
 10
2.05735
 20
0.409071
 30
0.0
 40
0.00261464
 41
0.00261464
  0
VERTEX
  8
0
 10
2.0356
 20
0.348361
 30
0.0
 40
0.00261464
 41
0.00261464
  0
VERTEX
  8
0
 10
2.03749
 20
0.302138
 30
0.0
 40
0.00261464
 41
0.00261464
  0
VERTEX
  8
0
 10
2.04324
 20
0.2889
 30
0.0
 40
0.00261464
 41
0.00261464
  0
VERTEX
  8
0
 10
2.05018
 20
0.27284
 30
0.0
 40
0.00261464
 41
0.00261464
  0
VERTEX
  8
0
 10
2.08658
 20
0.231174
 30
0.0
 40
0.00261464
 41
0.00261464
  0
VERTEX
  8
0
 10
2.15924
 20
0.174914
 30
0.0
 40
0.00261464
 41
0.00261464
  0
VERTEX
  8
0
 10
2.25142
 20
0.119683
 30
0.0
 40
0.00261464
 41
0.00261464
  0
VERTEX
  8
0
 10
2.32775
 20
0.0783962
 30
0.0
 40
0.00261464
 41
0.00261464
  0
VERTEX
  8
0
 10
2.35335
 20
0.0648872
 30
0.0
 40
0.00261464
 41
0.00261464
  0
SEQEND
 8
0
  0
POLYLINE
  8
0
 62
     0
 66
     1
 10
0
 20
0
 30
0.0
 40
0.188254
 41
0.188254
  0
VERTEX
  8
0
 10
2.17692
 20
0.532824
 30
0.0
 40
0.00261464
 41
0.00261464
  0
VERTEX
  8
0
 10
2.18207
 20
0.527724
 30
0.0
 40
0.00261464
 41
0.00261464
  0
VERTEX
  8
0
 10
2.23031
 20
0.473742
 30
0.0
 40
0.00261464
 41
0.00261464
  0
VERTEX
  8
0
 10
2.23432
 20
0.467719
 30
0.0
 40
0.00261464
 41
0.00261464
  0
VERTEX
  8
0
 10
2.23828
 20
0.461751
 30
0.0
 40
0.00261464
 41
0.00261464
  0
VERTEX
  8
0
 10
2.26975
 20
0.3954
 30
0.0
 40
0.00261464
 41
0.00261464
  0
VERTEX
  8
0
 10
2.27257
 20
0.388456
 30
0.0
 40
0.00261464
 41
0.00261464
  0
SEQEND
 8
0
  0
POLYLINE
  8
0
 62
     0
 66
     1
 10
0
 20
0
 30
0.0
 40
0.189931
 41
0.189931
  0
VERTEX
  8
0
 10
2.27778
 20
0.313911
 30
0.0
 40
0.00263793
 41
0.00263793
  0
VERTEX
  8
0
 10
2.2781
 20
0.305664
 30
0.0
 40
0.00263793
 41
0.00263793
  0
VERTEX
  8
0
 10
2.27849
 20
0.280871
 30
0.0
 40
0.00263793
 41
0.00263793
  0
VERTEX
  8
0
 10
2.27567
 20
0.248047
 30
0.0
 40
0.00263793
 41
0.00263793
  0
VERTEX
  8
0
 10
2.26563
 20
0.215657
 30
0.0
 40
0.00263793
 41
0.00263793
  0
VERTEX
  8
0
 10
2.25103
 20
0.191026
 30
0.0
 40
0.00263793
 41
0.00263793
  0
VERTEX
  8
0
 10
2.2449
 20
0.183974
 30
0.0
 40
0.00263793
 41
0.00263793
  0
VERTEX
  8
0
 10
2.23742
 20
0.175456
 30
0.0
 40
0.00263793
 41
0.00263793
  0
VERTEX
  8
0
 10
2.21094
 20
0.153267
 30
0.0
 40
0.00263793
 41
0.00263793
  0
VERTEX
  8
0
 10
2.16629
 20
0.123318
 30
0.0
 40
0.00263793
 41
0.00263793
  0
VERTEX
  8
0
 10
2.11442
 20
0.0938585
 30
0.0
 40
0.00263793
 41
0.00263793
  0
VERTEX
  8
0
 10
2.07286
 20
0.0718858
 30
0.0
 40
0.00263793
 41
0.00263793
  0
VERTEX
  8
0
 10
2.05897
 20
0.0646158
 30
0.0
 40
0.00263793
 41
0.00263793
  0
SEQEND
 8
0
  0
POLYLINE
  8
0
 62
     0
 66
     1
 10
0
 20
0
 30
0.0
 40
0.173484
 41
0.173484
  0
VERTEX
  8
0
 10
1.60969
 20
0.574274
 30
0.0
 40
0.0024095
 41
0.0024095
  0
VERTEX
  8
0
 10
1.60949
 20
0.587403
 30
0.0
 40
0.0024095
 41
0.0024095
  0
VERTEX
  8
0
 10
1.60883
 20
0.626736
 30
0.0
 40
0.0024095
 41
0.0024095
  0
VERTEX
  8
0
 10
1.60846
 20
0.653646
 30
0.0
 40
0.0024095
 41
0.0024095
  0
VERTEX
  8
0
 10
1.60829
 20
0.663519
 30
0.0
 40
0.0024095
 41
0.0024095
  0
VERTEX
  8
0
 10
1.60829
 20
0.664931
 30
0.0
 40
0.0024095
 41
0.0024095
  0
VERTEX
  8
0
 10
1.60829
 20
0.664931
 30
0.0
 40
0.0024095
 41
0.0024095
  0
SEQEND
 8
0
  0
POLYLINE
  8
0
 62
     0
 66
     1
 10
0
 20
0
 30
0.0
 40
0.173484
 41
0.173484
  0
VERTEX
  8
0
 10
2.16189
 20
0.600206
 30
0.0
 40
0.0024095
 41
0.0024095
  0
VERTEX
  8
0
 10
2.16168
 20
0.613336
 30
0.0
 40
0.0024095
 41
0.0024095
  0
VERTEX
  8
0
 10
2.16103
 20
0.652615
 30
0.0
 40
0.0024095
 41
0.0024095
  0
VERTEX
  8
0
 10
2.1606
 20
0.679525
 30
0.0
 40
0.0024095
 41
0.0024095
  0
VERTEX
  8
0
 10
2.16043
 20
0.689399
 30
0.0
 40
0.0024095
 41
0.0024095
  0
VERTEX
  8
0
 10
2.16043
 20
0.69081
 30
0.0
 40
0.0024095
 41
0.0024095
  0
VERTEX
  8
0
 10
2.16043
 20
0.69081
 30
0.0
 40
0.0024095
 41
0.0024095
  0
SEQEND
 8
0
  0
POLYLINE
  8
0
 62
     1
 66
     1
 10
0
 20
0
 30
0.0
 70
     1
 40
0
 41
0
  0
VERTEX
  8
0
 10
0.290365
 20
0.113281
 30
0.0
 40
0
 41
0
  0
VERTEX
  8
0
 10
0.290365
 20
0.113553
 30
0.0
 40
0
 41
0
  0
VERTEX
  8
0
 10
0.289551
 20
0.114366
 30
0.0
 40
0
 41
0
  0
VERTEX
  8
0
 10
0.289279
 20
0.114366
 30
0.0
 40
0
 41
0
  0
VERTEX
  8
0
 10
0.288574
 20
0.113715
 30
0.0
 40
0
 41
0
  0
VERTEX
  8
0
 10
0.282878
 20
0.111762
 30
0.0
 40
0
 41
0
  0
VERTEX
  8
0
 10
0.280979
 20
0.111762
 30
0.0
 40
0
 41
0
  0
VERTEX
  8
0
 10
0.280979
 20
0.11046
 30
0.0
 40
0
 41
0
  0
VERTEX
  8
0
 10
0.282443
 20
0.11046
 30
0.0
 40
0
 41
0
  0
VERTEX
  8
0
 10
0.28635
 20
0.111274
 30
0.0
 40
0
 41
0
  0
VERTEX
  8
0
 10
0.286947
 20
0.111545
 30
0.0
 40
0
 41
0
  0
VERTEX
  8
0
 10
0.286947
 20
0.0902778
 30
0.0
 40
0
 41
0
  0
VERTEX
  8
0
 10
0.286947
 20
0.0898438
 30
0.0
 40
0
 41
0
  0
VERTEX
  8
0
 10
0.283746
 20
0.0883789
 30
0.0
 40
0
 41
0
  0
VERTEX
  8
0
 10
0.282715
 20
0.0883789
 30
0.0
 40
0
 41
0
  0
VERTEX
  8
0
 10
0.281304
 20
0.0883789
 30
0.0
 40
0
 41
0
  0
VERTEX
  8
0
 10
0.281304
 20
0.0870768
 30
0.0
 40
0
 41
0
  0
VERTEX
  8
0
 10
0.281685
 20
0.0871311
 30
0.0
 40
0
 41
0
  0
VERTEX
  8
0
 10
0.286893
 20
0.0871853
 30
0.0
 40
0
 41
0
  0
VERTEX
  8
0
 10
0.288683
 20
0.0871853
 30
0.0
 40
0
 41
0
  0
VERTEX
  8
0
 10
0.290474
 20
0.0871853
 30
0.0
 40
0
 41
0
  0
VERTEX
  8
0
 10
0.295574
 20
0.0871311
 30
0.0
 40
0
 41
0
  0
VERTEX
  8
0
 10
0.296007
 20
0.0870768
 30
0.0
 40
0
 41
0
  0
VERTEX
  8
0
 10
0.296007
 20
0.0883789
 30
0.0
 40
0
 41
0
  0
VERTEX
  8
0
 10
0.294596
 20
0.0883789
 30
0.0
 40
0
 41
0
  0
VERTEX
  8
0
 10
0.293511
 20
0.0883789
 30
0.0
 40
0
 41
0
  0
VERTEX
  8
0
 10
0.290365
 20
0.0898438
 30
0.0
 40
0
 41
0
  0
VERTEX
  8
0
 10
0.290365
 20
0.0902778
 30
0.0
 40
0
 41
0
  0
VERTEX
  8
0
 10
0.290365
 20
0.113281
 30
0.0
 40
0
 41
0
  0
SEQEND
 8
0
  0
POLYLINE
  8
0
 62
     1
 66
     1
 10
0
 20
0
 30
0.0
 70
     1
 40
0
 41
0
  0
VERTEX
  8
0
 10
0.540799
 20
0.0858832
 30
0.0
 40
0
 41
0
  0
VERTEX
  8
0
 10
0.545628
 20
0.090115
 30
0.0
 40
0
 41
0
  0
VERTEX
  8
0
 10
0.547364
 20
0.0915256
 30
0.0
 40
0
 41
0
  0
VERTEX
  8
0
 10
0.555447
 20
0.0994467
 30
0.0
 40
0
 41
0
  0
VERTEX
  8
0
 10
0.555447
 20
0.102051
 30
0.0
 40
0
 41
0
  0
VERTEX
  8
0
 10
0.555447
 20
0.104058
 30
0.0
 40
0
 41
0
  0
VERTEX
  8
0
 10
0.548178
 20
0.110026
 30
0.0
 40
0
 41
0
  0
VERTEX
  8
0
 10
0.54579
 20
0.110026
 30
0.0
 40
0
 41
0
  0
VERTEX
  8
0
 10
0.543619
 20
0.110026
 30
0.0
 40
0
 41
0
  0
VERTEX
  8
0
 10
0.537272
 20
0.104438
 30
0.0
 40
0
 41
0
  0
VERTEX
  8
0
 10
0.537272
 20
0.102539
 30
0.0
 40
0
 41
0
  0
VERTEX
  8
0
 10
0.537272
 20
0.101997
 30
0.0
 40
0
 41
0
  0
VERTEX
  8
0
 10
0.539063
 20
0.100315
 30
0.0
 40
0
 41
0
  0
VERTEX
  8
0
 10
0.539714
 20
0.100315
 30
0.0
 40
0
 41
0
  0
VERTEX
  8
0
 10
0.540256
 20
0.100315
 30
0.0
 40
0
 41
0
  0
VERTEX
  8
0
 10
0.542046
 20
0.101942
 30
0.0
 40
0
 41
0
  0
VERTEX
  8
0
 10
0.542046
 20
0.102485
 30
0.0
 40
0
 41
0
  0
VERTEX
  8
0
 10
0.542046
 20
0.103027
 30
0.0
 40
0
 41
0
  0
VERTEX
  8
0
 10
0.540256
 20
0.104601
 30
0.0
 40
0
 41
0
  0
VERTEX
  8
0
 10
0.53966
 20
0.104601
 30
0.0
 40
0
 41
0
  0
VERTEX
  8
0
 10
0.539497
 20
0.104601
 30
0.0
 40
0
 41
0
  0
VERTEX
  8
0
 10
0.539063
 20
0.104601
 30
0.0
 40
0
 41
0
  0
VERTEX
  8
0
 10
0.539063
 20
0.104546
 30
0.0
 40
0
 41
0
  0
VERTEX
  8
0
 10
0.539279
 20
0.105252
 30
0.0
 40
0
 41
0
  0
VERTEX
  8
0
 10
0.543674
 20
0.108724
 30
0.0
 40
0
 41
0
  0
VERTEX
  8
0
 10
0.545193
 20
0.108724
 30
0.0
 40
0
 41
0
  0
VERTEX
  8
0
 10
0.546713
 20
0.108724
 30
0.0
 40
0
 41
0
  0
VERTEX
  8
0
 10
0.551324
 20
0.103733
 30
0.0
 40
0
 41
0
  0
VERTEX
  8
0
 10
0.551324
 20
0.102051
 30
0.0
 40
0
 41
0
  0
VERTEX
  8
0
 10
0.551324
 20
0.0998264
 30
0.0
 40
0
 41
0
  0
VERTEX
  8
0
 10
0.547146
 20
0.0936415
 30
0.0
 40
0
 41
0
  0
VERTEX
  8
0
 10
0.546496
 20
0.0929904
 30
0.0
 40
0
 41
0
  0
VERTEX
  8
0
 10
0.537761
 20
0.0842557
 30
0.0
 40
0
 41
0
  0
VERTEX
  8
0
 10
0.537597
 20
0.0841471
 30
0.0
 40
0
 41
0
  0
VERTEX
  8
0
 10
0.537272
 20
0.0831164
 30
0.0
 40
0
 41
0
  0
VERTEX
  8
0
 10
0.537272
 20
0.0827365
 30
0.0
 40
0
 41
0
  0
VERTEX
  8
0
 10
0.554254
 20
0.0827365
 30
0.0
 40
0
 41
0
  0
VERTEX
  8
0
 10
0.555447
 20
0.0898438
 30
0.0
 40
0
 41
0
  0
VERTEX
  8
0
 10
0.554363
 20
0.0898438
 30
0.0
 40
0
 41
0
  0
VERTEX
  8
0
 10
0.554254
 20
0.0895725
 30
0.0
 40
0
 41
0
  0
VERTEX
  8
0
 10
0.553386
 20
0.0863715
 30
0.0
 40
0
 41
0
  0
VERTEX
  8
0
 10
0.553276
 20
0.0862087
 30
0.0
 40
0
 41
0
  0
VERTEX
  8
0
 10
0.553168
 20
0.0861546
 30
0.0
 40
0
 41
0
  0
VERTEX
  8
0
 10
0.54899
 20
0.0858832
 30
0.0
 40
0
 41
0
  0
VERTEX
  8
0
 10
0.54899
 20
0.0858832
 30
0.0
 40
0
 41
0
  0
VERTEX
  8
0
 10
0.540799
 20
0.0858832
 30
0.0
 40
0
 41
0
  0
SEQEND
 8
0
  0
POLYLINE
  8
0
 62
     1
 66
     1
 10
0
 20
0
 30
0.0
 70
     1
 40
0
 41
0
  0
VERTEX
  8
0
 10
2.34299
 20
0.0877279
 30
0.0
 40
0
 41
0
  0
VERTEX
  8
0
 10
2.34787
 20
0.0920139
 30
0.0
 40
0
 41
0
  0
VERTEX
  8
0
 10
2.34961
 20
0.0934244
 30
0.0
 40
0
 41
0
  0
VERTEX
  8
0
 10
2.35769
 20
0.101346
 30
0.0
 40
0
 41
0
  0
VERTEX
  8
0
 10
2.35769
 20
0.10395
 30
0.0
 40
0
 41
0
  0
VERTEX
  8
0
 10
2.35769
 20
0.105957
 30
0.0
 40
0
 41
0
  0
VERTEX
  8
0
 10
2.35042
 20
0.111925
 30
0.0
 40
0
 41
0
  0
VERTEX
  8
0
 10
2.34804
 20
0.111925
 30
0.0
 40
0
 41
0
  0
VERTEX
  8
0
 10
2.34586
 20
0.111925
 30
0.0
 40
0
 41
0
  0
VERTEX
  8
0
 10
2.33951
 20
0.106337
 30
0.0
 40
0
 41
0
  0
VERTEX
  8
0
 10
2.33951
 20
0.104438
 30
0.0
 40
0
 41
0
  0
VERTEX
  8
0
 10
2.33951
 20
0.103895
 30
0.0
 40
0
 41
0
  0
VERTEX
  8
0
 10
2.34131
 20
0.102214
 30
0.0
 40
0
 41
0
  0
VERTEX
  8
0
 10
2.34196
 20
0.102214
 30
0.0
 40
0
 41
0
  0
VERTEX
  8
0
 10
2.3425
 20
0.102214
 30
0.0
 40
0
 41
0
  0
VERTEX
  8
0
 10
2.34429
 20
0.103841
 30
0.0
 40
0
 41
0
  0
VERTEX
  8
0
 10
2.34429
 20
0.104384
 30
0.0
 40
0
 41
0
  0
VERTEX
  8
0
 10
2.34429
 20
0.104926
 30
0.0
 40
0
 41
0
  0
VERTEX
  8
0
 10
2.34244
 20
0.1065
 30
0.0
 40
0
 41
0
  0
VERTEX
  8
0
 10
2.34185
 20
0.1065
 30
0.0
 40
0
 41
0
  0
VERTEX
  8
0
 10
2.34169
 20
0.1065
 30
0.0
 40
0
 41
0
  0
VERTEX
  8
0
 10
2.34131
 20
0.1065
 30
0.0
 40
0
 41
0
  0
VERTEX
  8
0
 10
2.34131
 20
0.106445
 30
0.0
 40
0
 41
0
  0
VERTEX
  8
0
 10
2.34153
 20
0.107151
 30
0.0
 40
0
 41
0
  0
VERTEX
  8
0
 10
2.34592
 20
0.110623
 30
0.0
 40
0
 41
0
  0
VERTEX
  8
0
 10
2.34744
 20
0.110623
 30
0.0
 40
0
 41
0
  0
VERTEX
  8
0
 10
2.34896
 20
0.110623
 30
0.0
 40
0
 41
0
  0
VERTEX
  8
0
 10
2.35351
 20
0.105632
 30
0.0
 40
0
 41
0
  0
VERTEX
  8
0
 10
2.35351
 20
0.10395
 30
0.0
 40
0
 41
0
  0
VERTEX
  8
0
 10
2.35351
 20
0.101725
 30
0.0
 40
0
 41
0
  0
VERTEX
  8
0
 10
2.34933
 20
0.0955404
 30
0.0
 40
0
 41
0
  0
VERTEX
  8
0
 10
2.34874
 20
0.0948893
 30
0.0
 40
0
 41
0
  0
VERTEX
  8
0
 10
2.34
 20
0.0861546
 30
0.0
 40
0
 41
0
  0
VERTEX
  8
0
 10
2.33985
 20
0.086046
 30
0.0
 40
0
 41
0
  0
VERTEX
  8
0
 10
2.33951
 20
0.084961
 30
0.0
 40
0
 41
0
  0
VERTEX
  8
0
 10
2.33951
 20
0.0845811
 30
0.0
 40
0
 41
0
  0
VERTEX
  8
0
 10
2.35644
 20
0.0845811
 30
0.0
 40
0
 41
0
  0
VERTEX
  8
0
 10
2.35769
 20
0.0917426
 30
0.0
 40
0
 41
0
  0
VERTEX
  8
0
 10
2.35661
 20
0.0917426
 30
0.0
 40
0
 41
0
  0
VERTEX
  8
0
 10
2.3565
 20
0.0914714
 30
0.0
 40
0
 41
0
  0
VERTEX
  8
0
 10
2.35562
 20
0.0882161
 30
0.0
 40
0
 41
0
  0
VERTEX
  8
0
 10
2.35553
 20
0.0880533
 30
0.0
 40
0
 41
0
  0
VERTEX
  8
0
 10
2.35542
 20
0.0879992
 30
0.0
 40
0
 41
0
  0
VERTEX
  8
0
 10
2.35124
 20
0.0877279
 30
0.0
 40
0
 41
0
  0
VERTEX
  8
0
 10
2.35124
 20
0.0877279
 30
0.0
 40
0
 41
0
  0
VERTEX
  8
0
 10
2.34299
 20
0.0877279
 30
0.0
 40
0
 41
0
  0
SEQEND
 8
0
  0
POLYLINE
  8
0
 62
     1
 66
     1
 10
0
 20
0
 30
0.0
 70
     1
 40
0
 41
0
  0
VERTEX
  8
0
 10
2.06799
 20
0.115994
 30
0.0
 40
0
 41
0
  0
VERTEX
  8
0
 10
2.06799
 20
0.116265
 30
0.0
 40
0
 41
0
  0
VERTEX
  8
0
 10
2.06717
 20
0.117079
 30
0.0
 40
0
 41
0
  0
VERTEX
  8
0
 10
2.06689
 20
0.117079
 30
0.0
 40
0
 41
0
  0
VERTEX
  8
0
 10
2.06614
 20
0.116428
 30
0.0
 40
0
 41
0
  0
VERTEX
  8
0
 10
2.06044
 20
0.114475
 30
0.0
 40
0
 41
0
  0
VERTEX
  8
0
 10
2.0586
 20
0.114475
 30
0.0
 40
0
 41
0
  0
VERTEX
  8
0
 10
2.0586
 20
0.113173
 30
0.0
 40
0
 41
0
  0
VERTEX
  8
0
 10
2.06006
 20
0.113173
 30
0.0
 40
0
 41
0
  0
VERTEX
  8
0
 10
2.06396
 20
0.113987
 30
0.0
 40
0
 41
0
  0
VERTEX
  8
0
 10
2.06456
 20
0.114258
 30
0.0
 40
0
 41
0
  0
VERTEX
  8
0
 10
2.06456
 20
0.0929904
 30
0.0
 40
0
 41
0
  0
VERTEX
  8
0
 10
2.06456
 20
0.0925564
 30
0.0
 40
0
 41
0
  0
VERTEX
  8
0
 10
2.06136
 20
0.0910915
 30
0.0
 40
0
 41
0
  0
VERTEX
  8
0
 10
2.06033
 20
0.0910915
 30
0.0
 40
0
 41
0
  0
VERTEX
  8
0
 10
2.05886
 20
0.0910915
 30
0.0
 40
0
 41
0
  0
VERTEX
  8
0
 10
2.05886
 20
0.0897894
 30
0.0
 40
0
 41
0
  0
VERTEX
  8
0
 10
2.05925
 20
0.0898438
 30
0.0
 40
0
 41
0
  0
VERTEX
  8
0
 10
2.06446
 20
0.0898981
 30
0.0
 40
0
 41
0
  0
VERTEX
  8
0
 10
2.06625
 20
0.0898981
 30
0.0
 40
0
 41
0
  0
VERTEX
  8
0
 10
2.06808
 20
0.0898981
 30
0.0
 40
0
 41
0
  0
VERTEX
  8
0
 10
2.07319
 20
0.0898438
 30
0.0
 40
0
 41
0
  0
VERTEX
  8
0
 10
2.07362
 20
0.0897894
 30
0.0
 40
0
 41
0
  0
VERTEX
  8
0
 10
2.07362
 20
0.0910915
 30
0.0
 40
0
 41
0
  0
VERTEX
  8
0
 10
2.07221
 20
0.0910915
 30
0.0
 40
0
 41
0
  0
VERTEX
  8
0
 10
2.07113
 20
0.0910915
 30
0.0
 40
0
 41
0
  0
VERTEX
  8
0
 10
2.06799
 20
0.0925564
 30
0.0
 40
0
 41
0
  0
VERTEX
  8
0
 10
2.06799
 20
0.0929904
 30
0.0
 40
0
 41
0
  0
VERTEX
  8
0
 10
2.06799
 20
0.115994
 30
0.0
 40
0
 41
0
  0
SEQEND
 8
0
  0
POLYLINE
  8
0
 62
     0
 66
     1
 10
0
 20
0
 30
0.0
 40
0.243603
 41
0.243603
  0
VERTEX
  8
0
 10
0.686957
 20
0.437662
 30
0.0
 40
0.00338338
 41
0.00338338
  0
VERTEX
  8
0
 10
0.736817
 20
0.440267
 30
0.0
 40
0.00338338
 41
0.00338338
  0
SEQEND
 8
0
  0
POLYLINE
  8
0
 62
     0
 66
     1
 10
0
 20
0
 30
0.0
 70
     1
 40
0
 41
0
  0
VERTEX
  8
0
 10
0.753689
 20
0.441135
 30
0.0
 40
0
 41
0
  0
VERTEX
  8
0
 10
0.720432
 20
0.429254
 30
0.0
 40
0
 41
0
  0
VERTEX
  8
0
 10
0.719347
 20
0.44949
 30
0.0
 40
0
 41
0
  0
VERTEX
  8
0
 10
0.753689
 20
0.441135
 30
0.0
 40
0
 41
0
  0
SEQEND
 8
0
  0
POLYLINE
  8
0
 62
     0
 66
     1
 10
0
 20
0
 30
0.0
 70
     1
 40
0.243603
 41
0.243603
  0
VERTEX
  8
0
 10
0.753689
 20
0.441135
 30
0.0
 40
0.00338338
 41
0.00338338
  0
VERTEX
  8
0
 10
0.720432
 20
0.429254
 30
0.0
 40
0.00338338
 41
0.00338338
  0
VERTEX
  8
0
 10
0.719347
 20
0.44949
 30
0.0
 40
0.00338338
 41
0.00338338
  0
VERTEX
  8
0
 10
0.753689
 20
0.441135
 30
0.0
 40
0.00338338
 41
0.00338338
  0
SEQEND
 8
0
  0
POLYLINE
  8
0
 62
     0
 66
     1
 10
0
 20
0
 30
0.0
 40
0.243603
 41
0.243603
  0
VERTEX
  8
0
 10
1.32818
 20
0.438531
 30
0.0
 40
0.00338338
 41
0.00338338
  0
VERTEX
  8
0
 10
1.37804
 20
0.441135
 30
0.0
 40
0.00338338
 41
0.00338338
  0
SEQEND
 8
0
  0
POLYLINE
  8
0
 62
     0
 66
     1
 10
0
 20
0
 30
0.0
 70
     1
 40
0
 41
0
  0
VERTEX
  8
0
 10
1.39492
 20
0.442003
 30
0.0
 40
0
 41
0
  0
VERTEX
  8
0
 10
1.36165
 20
0.430122
 30
0.0
 40
0
 41
0
  0
VERTEX
  8
0
 10
1.36057
 20
0.450358
 30
0.0
 40
0
 41
0
  0
VERTEX
  8
0
 10
1.39492
 20
0.442003
 30
0.0
 40
0
 41
0
  0
SEQEND
 8
0
  0
POLYLINE
  8
0
 62
     0
 66
     1
 10
0
 20
0
 30
0.0
 70
     1
 40
0.243603
 41
0.243603
  0
VERTEX
  8
0
 10
1.39492
 20
0.442003
 30
0.0
 40
0.00338338
 41
0.00338338
  0
VERTEX
  8
0
 10
1.36165
 20
0.430122
 30
0.0
 40
0.00338338
 41
0.00338338
  0
VERTEX
  8
0
 10
1.36057
 20
0.450358
 30
0.0
 40
0.00338338
 41
0.00338338
  0
VERTEX
  8
0
 10
1.39492
 20
0.442003
 30
0.0
 40
0.00338338
 41
0.00338338
  0
SEQEND
 8
0
  0
POLYLINE
  8
0
 62
     0
 66
     1
 10
0
 20
0
 30
0.0
 40
0.243603
 41
0.243603
  0
VERTEX
  8
0
 10
1.79312
 20
0.438747
 30
0.0
 40
0.00338338
 41
0.00338338
  0
VERTEX
  8
0
 10
1.84293
 20
0.441351
 30
0.0
 40
0.00338338
 41
0.00338338
  0
SEQEND
 8
0
  0
POLYLINE
  8
0
 62
     0
 66
     1
 10
0
 20
0
 30
0.0
 70
     1
 40
0
 41
0
  0
VERTEX
  8
0
 10
1.85986
 20
0.442219
 30
0.0
 40
0
 41
0
  0
VERTEX
  8
0
 10
1.82661
 20
0.430339
 30
0.0
 40
0
 41
0
  0
VERTEX
  8
0
 10
1.82553
 20
0.450629
 30
0.0
 40
0
 41
0
  0
VERTEX
  8
0
 10
1.85986
 20
0.442219
 30
0.0
 40
0
 41
0
  0
SEQEND
 8
0
  0
POLYLINE
  8
0
 62
     0
 66
     1
 10
0
 20
0
 30
0.0
 70
     1
 40
0.243603
 41
0.243603
  0
VERTEX
  8
0
 10
1.85986
 20
0.442219
 30
0.0
 40
0.00338338
 41
0.00338338
  0
VERTEX
  8
0
 10
1.82661
 20
0.430339
 30
0.0
 40
0.00338338
 41
0.00338338
  0
VERTEX
  8
0
 10
1.82553
 20
0.450629
 30
0.0
 40
0.00338338
 41
0.00338338
  0
VERTEX
  8
0
 10
1.85986
 20
0.442219
 30
0.0
 40
0.00338338
 41
0.00338338
  0
SEQEND
 8
0
  0
POLYLINE
  8
0
 62
     0
 66
     1
 10
0
 20
0
 30
0.0
 40
0.173484
 41
0.173484
  0
VERTEX
  8
0
 10
0.329264
 20
0.805718
 30
0.0
 40
0.0024095
 41
0.0024095
  0
VERTEX
  8
0
 10
0.329047
 20
0.818847
 30
0.0
 40
0.0024095
 41
0.0024095
  0
VERTEX
  8
0
 10
0.328396
 20
0.858128
 30
0.0
 40
0.0024095
 41
0.0024095
  0
VERTEX
  8
0
 10
0.327963
 20
0.885037
 30
0.0
 40
0.0024095
 41
0.0024095
  0
VERTEX
  8
0
 10
0.3278
 20
0.894911
 30
0.0
 40
0.0024095
 41
0.0024095
  0
VERTEX
  8
0
 10
0.3278
 20
0.896322
 30
0.0
 40
0.0024095
 41
0.0024095
  0
VERTEX
  8
0
 10
0.3278
 20
0.896322
 30
0.0
 40
0.0024095
 41
0.0024095
  0
SEQEND
 8
0
  0
POLYLINE
  8
0
 62
     0
 66
     1
 10
0
 20
0
 30
0.0
 40
0.188254
 41
0.188254
  0
VERTEX
  8
0
 10
0.149957
 20
0.459526
 30
0.0
 40
0.00261464
 41
0.00261464
  0
VERTEX
  8
0
 10
0.14974
 20
0.472657
 30
0.0
 40
0.00261464
 41
0.00261464
  0
VERTEX
  8
0
 10
0.149089
 20
0.51199
 30
0.0
 40
0.00261464
 41
0.00261464
  0
VERTEX
  8
0
 10
0.148708
 20
0.5389
 30
0.0
 40
0.00261464
 41
0.00261464
  0
VERTEX
  8
0
 10
0.148546
 20
0.548774
 30
0.0
 40
0.00261464
 41
0.00261464
  0
VERTEX
  8
0
 10
0.148546
 20
0.550185
 30
0.0
 40
0.00261464
 41
0.00261464
  0
VERTEX
  8
0
 10
0.148546
 20
0.550185
 30
0.0
 40
0.00261464
 41
0.00261464
  0
SEQEND
 8
0
  0
POLYLINE
  8
0
 62
     0
 66
     1
 10
0
 20
0
 30
0.0
 40
0.188254
 41
0.188254
  0
VERTEX
  8
0
 10
0.305393
 20
0.740722
 30
0.0
 40
0.00261464
 41
0.00261464
  0
VERTEX
  8
0
 10
0.299371
 20
0.737847
 30
0.0
 40
0.00261464
 41
0.00261464
  0
VERTEX
  8
0
 10
0.240614
 20
0.70345
 30
0.0
 40
0.00261464
 41
0.00261464
  0
VERTEX
  8
0
 10
0.234972
 20
0.698676
 30
0.0
 40
0.00261464
 41
0.00261464
  0
VERTEX
  8
0
 10
0.229275
 20
0.693956
 30
0.0
 40
0.00261464
 41
0.00261464
  0
VERTEX
  8
0
 10
0.175185
 20
0.633789
 30
0.0
 40
0.00261464
 41
0.00261464
  0
VERTEX
  8
0
 10
0.169868
 20
0.627171
 30
0.0
 40
0.00261464
 41
0.00261464
  0
SEQEND
 8
0
  0
POLYLINE
  8
0
 62
     0
 66
     1
 10
0
 20
0
 30
0.0
 40
0.188254
 41
0.188254
  0
VERTEX
  8
0
 10
0.144368
 20
0.375
 30
0.0
 40
0.00261464
 41
0.00261464
  0
VERTEX
  8
0
 10
0.138889
 20
0.369086
 30
0.0
 40
0.00261464
 41
0.00261464
  0
VERTEX
  8
0
 10
0.088596
 20
0.309517
 30
0.0
 40
0.00261464
 41
0.00261464
  0
VERTEX
  8
0
 10
0.0845811
 20
0.303494
 30
0.0
 40
0.00261464
 41
0.00261464
  0
VERTEX
  8
0
 10
0.0805122
 20
0.297472
 30
0.0
 40
0.00261464
 41
0.00261464
  0
VERTEX
  8
0
 10
0.0497504
 20
0.236762
 30
0.0
 40
0.00261464
 41
0.00261464
  0
VERTEX
  8
0
 10
0.0470921
 20
0.230632
 30
0.0
 40
0.00261464
 41
0.00261464
  0
SEQEND
 8
0
  0
POLYLINE
  8
0
 62
     0
 66
     1
 10
0
 20
0
 30
0.0
 40
0.188254
 41
0.188254
  0
VERTEX
  8
0
 10
0.171442
 20
0.375
 30
0.0
 40
0.00261464
 41
0.00261464
  0
VERTEX
  8
0
 10
0.176594
 20
0.3699
 30
0.0
 40
0.00261464
 41
0.00261464
  0
VERTEX
  8
0
 10
0.224826
 20
0.315918
 30
0.0
 40
0.00261464
 41
0.00261464
  0
VERTEX
  8
0
 10
0.228842
 20
0.309896
 30
0.0
 40
0.00261464
 41
0.00261464
  0
VERTEX
  8
0
 10
0.232801
 20
0.303874
 30
0.0
 40
0.00261464
 41
0.00261464
  0
VERTEX
  8
0
 10
0.264268
 20
0.237576
 30
0.0
 40
0.00261464
 41
0.00261464
  0
VERTEX
  8
0
 10
0.26709
 20
0.230632
 30
0.0
 40
0.00261464
 41
0.00261464
  0
SEQEND
 8
0
  0
POLYLINE
  8
0
 62
     0
 66
     1
 10
0
 20
0
 30
0.0
 70
     1
 40
0
 41
0
  0
VERTEX
  8
0
 10
0.042589
 20
0.199653
 30
0.0
 40
0
 41
0
  0
VERTEX
  8
0
 10
0.0426432
 20
0.200087
 30
0.0
 40
0
 41
0
  0
VERTEX
  8
0
 10
0.0467665
 20
0.207682
 30
0.0
 40
0
 41
0
  0
VERTEX
  8
0
 10
0.0481771
 20
0.207682
 30
0.0
 40
0
 41
0
  0
VERTEX
  8
0
 10
0.0488824
 20
0.207682
 30
0.0
 40
0
 41
0
  0
VERTEX
  8
0
 10
0.0506728
 20
0.207032
 30
0.0
 40
0
 41
0
  0
VERTEX
  8
0
 10
0.0509983
 20
0.206814
 30
0.0
 40
0
 41
0
  0
VERTEX
  8
0
 10
0.0505643
 20
0.206706
 30
0.0
 40
0
 41
0
  0
VERTEX
  8
0
 10
0.0483399
 20
0.203993
 30
0.0
 40
0
 41
0
  0
VERTEX
  8
0
 10
0.0483399
 20
0.203071
 30
0.0
 40
0
 41
0
  0
VERTEX
  8
0
 10
0.0483399
 20
0.202528
 30
0.0
 40
0
 41
0
  0
VERTEX
  8
0
 10
0.0499132
 20
0.200738
 30
0.0
 40
0
 41
0
  0
VERTEX
  8
0
 10
0.0504557
 20
0.200738
 30
0.0
 40
0
 41
0
  0
VERTEX
  8
0
 10
0.0512153
 20
0.200738
 30
0.0
 40
0
 41
0
  0
VERTEX
  8
0
 10
0.0534939
 20
0.203722
 30
0.0
 40
0
 41
0
  0
VERTEX
  8
0
 10
0.0534939
 20
0.204699
 30
0.0
 40
0
 41
0
  0
VERTEX
  8
0
 10
0.0534939
 20
0.205838
 30
0.0
 40
0
 41
0
  0
VERTEX
  8
0
 10
0.0495876
 20
0.209201
 30
0.0
 40
0
 41
0
  0
VERTEX
  8
0
 10
0.0482856
 20
0.209201
 30
0.0
 40
0
 41
0
  0
VERTEX
  8
0
 10
0.0467665
 20
0.209201
 30
0.0
 40
0
 41
0
  0
VERTEX
  8
0
 10
0.0424804
 20
0.204428
 30
0.0
 40
0
 41
0
  0
VERTEX
  8
0
 10
0.0423178
 20
0.204047
 30
0.0
 40
0
 41
0
  0
VERTEX
  8
0
 10
0.0419379
 20
0.205186
 30
0.0
 40
0
 41
0
  0
VERTEX
  8
0
 10
0.0376519
 20
0.209201
 30
0.0
 40
0
 41
0
  0
VERTEX
  8
0
 10
0.0362414
 20
0.209201
 30
0.0
 40
0
 41
0
  0
VERTEX
  8
0
 10
0.0345053
 20
0.209201
 30
0.0
 40
0
 41
0
  0
VERTEX
  8
0
 10
0.0294596
 20
0.204644
 30
0.0
 40
0
 41
0
  0
VERTEX
  8
0
 10
0.0271268
 20
0.20025
 30
0.0
 40
0
 41
0
  0
VERTEX
  8
0
 10
0.0271268
 20
0.198731
 30
0.0
 40
0
 41
0
  0
VERTEX
  8
0
 10
0.0271268
 20
0.198568
 30
0.0
 40
0
 41
0
  0
VERTEX
  8
0
 10
0.027615
 20
0.197971
 30
0.0
 40
0
 41
0
  0
VERTEX
  8
0
 10
0.0278321
 20
0.197971
 30
0.0
 40
0
 41
0
  0
VERTEX
  8
0
 10
0.0279949
 20
0.197971
 30
0.0
 40
0
 41
0
  0
VERTEX
  8
0
 10
0.0284831
 20
0.198622
 30
0.0
 40
0
 41
0
  0
VERTEX
  8
0
 10
0.0285374
 20
0.198731
 30
0.0
 40
0
 41
0
  0
VERTEX
  8
0
 10
0.0290256
 20
0.200575
 30
0.0
 40
0
 41
0
  0
VERTEX
  8
0
 10
0.0343425
 20
0.207682
 30
0.0
 40
0
 41
0
  0
VERTEX
  8
0
 10
0.0361328
 20
0.207682
 30
0.0
 40
0
 41
0
  0
VERTEX
  8
0
 10
0.0368924
 20
0.207682
 30
0.0
 40
0
 41
0
  0
VERTEX
  8
0
 10
0.039171
 20
0.204264
 30
0.0
 40
0
 41
0
  0
VERTEX
  8
0
 10
0.039171
 20
0.203071
 30
0.0
 40
0
 41
0
  0
VERTEX
  8
0
 10
0.039171
 20
0.199056
 30
0.0
 40
0
 41
0
  0
VERTEX
  8
0
 10
0.0366211
 20
0.18929
 30
0.0
 40
0
 41
0
  0
VERTEX
  8
0
 10
0.0361328
 20
0.186849
 30
0.0
 40
0
 41
0
  0
VERTEX
  8
0
 10
0.0359158
 20
0.185818
 30
0.0
 40
0
 41
0
  0
VERTEX
  8
0
 10
0.0320096
 20
0.179796
 30
0.0
 40
0
 41
0
  0
VERTEX
  8
0
 10
0.0307617
 20
0.179796
 30
0.0
 40
0
 41
0
  0
VERTEX
  8
0
 10
0.0300564
 20
0.179796
 30
0.0
 40
0
 41
0
  0
VERTEX
  8
0
 10
0.0282118
 20
0.180447
 30
0.0
 40
0
 41
0
  0
VERTEX
  8
0
 10
0.0279406
 20
0.180664
 30
0.0
 40
0
 41
0
  0
VERTEX
  8
0
 10
0.0282661
 20
0.180772
 30
0.0
 40
0
 41
0
  0
VERTEX
  8
0
 10
0.030599
 20
0.183539
 30
0.0
 40
0
 41
0
  0
VERTEX
  8
0
 10
0.030599
 20
0.184407
 30
0.0
 40
0
 41
0
  0
VERTEX
  8
0
 10
0.030599
 20
0.185004
 30
0.0
 40
0
 41
0
  0
VERTEX
  8
0
 10
0.0290256
 20
0.18674
 30
0.0
 40
0
 41
0
  0
VERTEX
  8
0
 10
0.0285374
 20
0.18674
 30
0.0
 40
0
 41
0
  0
VERTEX
  8
0
 10
0.0277235
 20
0.18674
 30
0.0
 40
0
 41
0
  0
VERTEX
  8
0
 10
0.0254449
 20
0.183811
 30
0.0
 40
0
 41
0
  0
VERTEX
  8
0
 10
0.0254449
 20
0.182835
 30
0.0
 40
0
 41
0
  0
VERTEX
  8
0
 10
0.0254449
 20
0.181749
 30
0.0
 40
0
 41
0
  0
VERTEX
  8
0
 10
0.0293511
 20
0.178331
 30
0.0
 40
0
 41
0
  0
VERTEX
  8
0
 10
0.0306532
 20
0.178331
 30
0.0
 40
0
 41
0
  0
VERTEX
  8
0
 10
0.0321181
 20
0.178331
 30
0.0
 40
0
 41
0
  0
VERTEX
  8
0
 10
0.0365126
 20
0.183376
 30
0.0
 40
0
 41
0
  0
VERTEX
  8
0
 10
0.0365668
 20
0.183431
 30
0.0
 40
0
 41
0
  0
VERTEX
  8
0
 10
0.0367296
 20
0.182835
 30
0.0
 40
0
 41
0
  0
VERTEX
  8
0
 10
0.0411783
 20
0.178331
 30
0.0
 40
0
 41
0
  0
VERTEX
  8
0
 10
0.0426975
 20
0.178331
 30
0.0
 40
0
 41
0
  0
VERTEX
  8
0
 10
0.0443251
 20
0.178331
 30
0.0
 40
0
 41
0
  0
VERTEX
  8
0
 10
0.0493707
 20
0.182943
 30
0.0
 40
0
 41
0
  0
VERTEX
  8
0
 10
0.0517036
 20
0.187338
 30
0.0
 40
0
 41
0
  0
VERTEX
  8
0
 10
0.0517036
 20
0.188803
 30
0.0
 40
0
 41
0
  0
VERTEX
  8
0
 10
0.0517036
 20
0.189019
 30
0.0
 40
0
 41
0
  0
VERTEX
  8
0
 10
0.0512153
 20
0.189507
 30
0.0
 40
0
 41
0
  0
VERTEX
  8
0
 10
0.0511068
 20
0.189507
 30
0.0
 40
0
 41
0
  0
VERTEX
  8
0
 10
0.0508897
 20
0.189507
 30
0.0
 40
0
 41
0
  0
VERTEX
  8
0
 10
0.0502929
 20
0.188911
 30
0.0
 40
0
 41
0
  0
VERTEX
  8
0
 10
0.0502929
 20
0.188803
 30
0.0
 40
0
 41
0
  0
VERTEX
  8
0
 10
0.0498047
 20
0.186957
 30
0.0
 40
0
 41
0
  0
VERTEX
  8
0
 10
0.0445964
 20
0.179796
 30
0.0
 40
0
 41
0
  0
VERTEX
  8
0
 10
0.0428603
 20
0.179796
 30
0.0
 40
0
 41
0
  0
VERTEX
  8
0
 10
0.0420464
 20
0.179796
 30
0.0
 40
0
 41
0
  0
VERTEX
  8
0
 10
0.0397678
 20
0.183214
 30
0.0
 40
0
 41
0
  0
VERTEX
  8
0
 10
0.0397678
 20
0.184299
 30
0.0
 40
0
 41
0
  0
VERTEX
  8
0
 10
0.0397678
 20
0.184299
 30
0.0
 40
0
 41
0
  0
VERTEX
  8
0
 10
0.0404731
 20
0.189561
 30
0.0
 40
0
 41
0
  0
VERTEX
  8
0
 10
0.0406358
 20
0.190267
 30
0.0
 40
0
 41
0
  0
VERTEX
  8
0
 10
0.042589
 20
0.199653
 30
0.0
 40
0
 41
0
  0
SEQEND
 8
0
  0
ENDSEC
  0
EOF
